<?xml version="1.0" standalone="no"?>
<!DOCTYPE svg PUBLIC "-//W3C//DTD SVG 1.1//EN" "http://www.w3.org/Graphics/SVG/1.1/DTD/svg11.dtd" >
<svg xmlns="http://www.w3.org/2000/svg">
<metadata></metadata>
<defs>
<font id="bariolthin" horiz-adv-x="508" >
<font-face units-per-em="1000" ascent="787" descent="-213" />
<missing-glyph horiz-adv-x="250" />
<glyph unicode="&#x2e;&#x2e;&#x2e;" horiz-adv-x="733" d="M70 -8q-17 0 -17 19q0 20 17 20t17 -20q0 -19 -17 -19zM366 -8q-17 0 -17 19q0 20 17 20t17 -20q0 -19 -17 -19zM662 -8q-17 0 -17 19q0 20 17 20t17 -20q0 -19 -17 -19z" />
<glyph unicode="ff" horiz-adv-x="529" d="M498 438h-124v-437q0 -9 -9 -9t-9 9v437h-237v-437q0 -9 -9 -9t-9 9v437h-63q-8 0 -8 8t8 8h63v64q0 76 40.5 121.5t119.5 45.5q8 0 8 -8t-8 -8q-71 0 -106.5 -39t-35.5 -112v-64h237v64q0 76 40.5 121.5t119.5 45.5q8 0 8 -8t-8 -8q-71 0 -106.5 -39t-35.5 -112v-64h124 q8 0 8 -8t-8 -8z" />
<glyph unicode="fi" horiz-adv-x="448" d="M261 669q-71 0 -106.5 -39t-35.5 -112v-64h240q9 0 9 -9v-444q0 -9 -9 -9t-9 9v437h-231v-437q0 -9 -9 -9t-9 9v437h-63q-8 0 -8 8t8 8h63v64q0 76 40.5 121.5t119.5 45.5q56 0 100 -23q6 -3 6 -8q0 -8 -8 -8q-1 0 -11 4q-44 19 -87 19z" />
<glyph unicode="fl" horiz-adv-x="473" d="M433 -8q-48 0 -65.5 27.5t-17.5 80.5v338h-231v-437q0 -9 -9 -9t-9 9v437h-63q-8 0 -8 8t8 8h63v64q0 76 40.5 121.5t119.5 45.5q60 0 100 -23q7 -4 7 -12v-550q0 -46 13.5 -69t51.5 -23q8 0 8 -8t-8 -8zM261 669q-71 0 -106.5 -39t-35.5 -112v-64h231v195q-40 20 -89 20 z" />
<glyph unicode="ffi" horiz-adv-x="703" d="M516 669q-71 0 -106.5 -39t-35.5 -112v-64h240q9 0 9 -9v-444q0 -9 -9 -9t-9 9v437h-231v-437q0 -9 -9 -9t-9 9v437h-237v-437q0 -9 -9 -9t-9 9v437h-63q-8 0 -8 8t8 8h63v64q0 76 40.5 121.5t119.5 45.5q8 0 8 -8t-8 -8q-71 0 -106.5 -39t-35.5 -112v-64h237v64 q0 76 40.5 121.5t119.5 45.5q56 0 100 -23q6 -3 6 -8q0 -8 -8 -8q-1 0 -11 4q-44 19 -87 19z" />
<glyph unicode="ffl" horiz-adv-x="728" d="M688 -8q-48 0 -65.5 27.5t-17.5 80.5v338h-231v-437q0 -9 -9 -9t-9 9v437h-237v-437q0 -9 -9 -9t-9 9v437h-63q-8 0 -8 8t8 8h63v64q0 76 40.5 121.5t119.5 45.5q8 0 8 -8t-8 -8q-71 0 -106.5 -39t-35.5 -112v-64h237v64q0 76 40.5 121.5t119.5 45.5q60 0 100 -23 q7 -4 7 -12v-550q0 -46 13.5 -69t51.5 -23q8 0 8 -8t-8 -8zM516 669q-71 0 -106.5 -39t-35.5 -112v-64h231v195q-40 20 -89 20z" />
<glyph unicode="fj" horiz-adv-x="448" d="M241 -185q50 0 79.5 35.5t29.5 91.5v57v2v437h-231v-437q0 -9 -9 -9t-9 9v437h-63q-8 0 -8 8t8 8h63v64q0 76 40.5 121.5t119.5 45.5q56 0 100 -23q6 -3 6 -8q0 -8 -8 -8q-1 0 -11 4q-44 19 -87 19q-71 0 -106.5 -39t-35.5 -112v-64h240q9 0 9 -9v-503q0 -62 -34 -102.5 t-93 -40.5q-8 0 -8 8t8 8z" />
<glyph unicode="fb" horiz-adv-x="775" d="M119 438v-437q0 -9 -9 -9t-9 9v437h-63q-8 0 -8 8t8 8h63v64q0 76 40.5 121.5t119.5 45.5q61 0 102 -24q5 -3 5 -8v-285l5.5 11t18 24t32.5 30t49 24t67 11q96 0 143 -58.5t47 -181.5t-47 -182t-143 -59q-87 0 -138.5 49.5t-51.5 144.5v468q-43 20 -89 20 q-71 0 -106.5 -39t-35.5 -112v-64h124q8 0 8 -8t-8 -8h-124zM368 335v-154q0 -86 46.5 -132t125.5 -46q172 0 172 225q0 224 -172 224q-37 0 -68 -12t-49.5 -29t-31.5 -34.5t-18 -29.5z" />
<glyph unicode="ffb" horiz-adv-x="1030" d="M374 438v-437q0 -9 -9 -9t-9 9v437h-237v-437q0 -9 -9 -9t-9 9v437h-63q-8 0 -8 8t8 8h63v64q0 76 40.5 121.5t119.5 45.5q8 0 8 -8t-8 -8q-71 0 -106.5 -39t-35.5 -112v-64h237v64q0 76 40.5 121.5t119.5 45.5q61 0 102 -24q5 -3 5 -8v-285l5.5 11t18 24t32.5 30t49 24 t67 11q96 0 143 -58.5t47 -181.5t-47 -182t-143 -59q-87 0 -138.5 49.5t-51.5 144.5v468q-38 20 -89 20q-71 0 -106.5 -39t-35.5 -112v-64h124q8 0 8 -8t-8 -8h-124zM623 335v-154q0 -86 46.5 -132t125.5 -46q172 0 172 225q0 224 -172 224q-37 0 -68 -12t-49.5 -29 t-31.5 -34.5t-18 -29.5z" />
<glyph unicode="fh" horiz-adv-x="770" d="M350 1v648q-43 20 -89 20q-71 0 -106.5 -39t-35.5 -112v-64h124q8 0 8 -8t-8 -8h-124v-437q0 -9 -9 -9t-9 9v437h-63q-8 0 -8 8t8 8h63v64q0 76 40.5 121.5t119.5 45.5q61 0 102 -24q5 -3 5 -8v-290q13 41 54.5 73t107.5 32q51 0 86 -14t52.5 -40.5t24.5 -55.5t7 -67 v-290q0 -9 -9 -9t-9 9v299q0 151 -152 151q-77 0 -119.5 -46.5t-42.5 -108.5v-295q0 -9 -9 -9t-9 9z" />
<glyph unicode="ffh" horiz-adv-x="1025" d="M605 1v648q-38 20 -89 20q-71 0 -106.5 -39t-35.5 -112v-64h124q8 0 8 -8t-8 -8h-124v-437q0 -9 -9 -9t-9 9v437h-237v-437q0 -9 -9 -9t-9 9v437h-63q-8 0 -8 8t8 8h63v64q0 76 40.5 121.5t119.5 45.5q8 0 8 -8t-8 -8q-71 0 -106.5 -39t-35.5 -112v-64h237v64 q0 76 40.5 121.5t119.5 45.5q61 0 102 -24q5 -3 5 -8v-290q13 41 54.5 73t107.5 32q51 0 86 -14t52.5 -40.5t24.5 -55.5t7 -67v-290q0 -9 -9 -9t-9 9v299q0 151 -152 151q-77 0 -119.5 -46.5t-42.5 -108.5v-295q0 -9 -9 -9t-9 9z" />
<glyph unicode="fk" horiz-adv-x="704" d="M368 653v-437l290 243q3 3 7 3q9 0 9 -9q0 -4 -4 -7l-206 -173l215 -264q4 -4 4 -8q0 -9 -9 -9q-5 0 -8 4l-216 265l-82 -68v-192q0 -9 -9 -9t-9 9v648q-38 20 -89 20q-71 0 -106.5 -39t-35.5 -112v-64h124q8 0 8 -8t-8 -8h-124v-437q0 -9 -9 -9t-9 9v437h-63q-8 0 -8 8 t8 8h63v64q0 76 40.5 121.5t119.5 45.5q61 0 102 -24q5 -3 5 -8z" />
<glyph unicode="ffk" horiz-adv-x="959" d="M623 653v-437l290 243q3 3 7 3q9 0 9 -9q0 -4 -4 -7l-206 -173l215 -264q4 -4 4 -8q0 -9 -9 -9q-5 0 -8 4l-216 265l-82 -68v-192q0 -9 -9 -9t-9 9v648q-38 20 -89 20q-71 0 -106.5 -39t-35.5 -112v-64h124q8 0 8 -8t-8 -8h-124v-437q0 -9 -9 -9t-9 9v437h-237v-437 q0 -9 -9 -9t-9 9v437h-63q-8 0 -8 8t8 8h63v64q0 76 40.5 121.5t119.5 45.5q8 0 8 -8t-8 -8q-71 0 -106.5 -39t-35.5 -112v-64h237v64q0 76 40.5 121.5t119.5 45.5q61 0 102 -24q5 -3 5 -8z" />
<glyph unicode="ffj" horiz-adv-x="703" d="M496 -185q50 0 79.5 35.5t29.5 91.5v496h-231v-437q0 -9 -9 -9t-9 9v437h-237v-437q0 -9 -9 -9t-9 9v437h-63q-8 0 -8 8t8 8h63v64q0 76 40.5 121.5t119.5 45.5q8 0 8 -8t-8 -8q-71 0 -106.5 -39t-35.5 -112v-64h237v64q0 76 40.5 121.5t119.5 45.5q56 0 100 -23 q6 -3 6 -8q0 -8 -8 -8q-1 0 -11 4q-44 19 -87 19q-71 0 -106.5 -39t-35.5 -112v-64h240q9 0 9 -9v-503q0 -62 -34 -102.5t-93 -40.5q-8 0 -8 8t8 8z" />
<glyph unicode=" "  horiz-adv-x="250" />
<glyph unicode="&#x09;" horiz-adv-x="250" />
<glyph unicode="&#xa0;" horiz-adv-x="250" />
<glyph unicode="!" horiz-adv-x="141" d="M70 -8q-17 0 -17 19q0 20 17 20t17 -20q0 -19 -17 -19zM70 124q-6 0 -6 7l-5 538q0 12 11 12t11 -12l-5 -538q0 -7 -6 -7z" />
<glyph unicode="&#x22;" horiz-adv-x="295" d="M103 485q-7 0 -7 6l-5 177q0 13 12 13t12 -13l-5 -177q0 -6 -7 -6zM191 485q-7 0 -7 6l-5 177q0 13 12 13t12 -13l-5 -177q0 -6 -7 -6z" />
<glyph unicode="#" horiz-adv-x="519" d="M53 244h89l26 168h-88q-8 0 -8 8t8 8h91l34 216q1 8 9 8t8 -8q0 -3 -1 -9l-33 -207h176l34 216q1 8 9 8t8 -8q0 -3 -1 -9l-33 -207h85q8 0 8 -8t-8 -8h-87l-26 -168h86q8 0 8 -8t-8 -8h-89l-35 -228q-1 -8 -9 -8t-8 8q0 3 1 9l34 219h-176l-35 -228q-1 -8 -9 -8t-8 8 q0 3 1 9l34 219h-87q-8 0 -8 8t8 8zM186 412l-26 -168h175l26 168h-175z" />
<glyph unicode="$" horiz-adv-x="545" d="M276 780v-93q127 -3 196 -97q2 -3 2 -6q0 -8 -8 -8q-5 0 -8 4q-61 91 -188 91q-95 0 -137 -42t-42 -103q0 -46 29.5 -78.5t73.5 -49t95.5 -36t95.5 -39t73.5 -58.5t29.5 -93q0 -86 -53.5 -134.5t-158.5 -51.5v-92q0 -8 -8 -8t-8 8v92q-146 1 -217 115q-3 5 -3 9q0 9 9 9 q5 0 10 -8q65 -109 203 -109q103 0 155.5 44.5t52.5 125.5q0 44 -22 76.5t-57 52t-77 35t-84.5 31t-77.5 34.5t-57 50.5t-22 74.5q0 69 45.5 113.5t141.5 47.5v93q0 8 8 8t8 -8z" />
<glyph unicode="%" horiz-adv-x="746" d="M188 376q118 0 118 148t-118 148t-118 -148t118 -148zM188 361q-134 0 -134 163t134 163t134 -163t-134 -163zM558 2q118 0 118 148t-118 148t-118 -148t118 -148zM558 -13q-134 0 -134 163t134 163t134 -163t-134 -163zM196 7l337 666q3 8 10 8q8 0 8 -8q0 -3 -2 -7 l-337 -666q-3 -8 -10 -8q-8 0 -8 8q0 3 2 7z" />
<glyph unicode="&#x26;" horiz-adv-x="600" d="M183 367q74 52 116 99.5t42 99.5q0 50 -27.5 77.5t-74.5 27.5q-52 0 -81.5 -35.5t-29.5 -90.5q0 -86 55 -178zM178 342q-115 -81 -115 -172q0 -78 52.5 -123t129.5 -45q55 0 101.5 24.5t76.5 57.5q-88 68 -145 126.5t-100 131.5zM436 74q-84 -88 -191 -88 q-89 0 -144.5 49.5t-55.5 134.5q0 57 31.5 100t91.5 87q-58 100 -58 188q0 62 33.5 102t95.5 40q54 0 87 -31.5t33 -89.5q0 -55 -40 -103.5t-127 -110.5q76 -133 241 -255q54 65 68 137q1 8 9 8q7 0 7 -7q0 -4 -1 -9q-14 -67 -69 -139q76 -53 140 -79q7 -3 7 -8q0 -8 -8 -8 q-2 0 -8 2q-77 33 -142 80z" />
<glyph unicode="'" horiz-adv-x="199" d="M103 485q-7 0 -7 6l-5 177q0 13 12 13t12 -13l-5 -177q0 -6 -7 -6z" />
<glyph unicode="(" horiz-adv-x="303" d="M80 296q0 49 1.5 83t6 83t15 85.5t27 75t44.5 67t65 46.5q4 2 7 2q8 0 8 -7q0 -6 -7 -10q-42 -21 -71.5 -61t-44 -80.5t-22.5 -99.5t-9.5 -94.5t-1.5 -89.5q0 -44 1 -73.5t5 -78t14 -84.5t25.5 -75t42 -67.5t61.5 -46.5q7 -4 7 -10q0 -7 -8 -7q-3 0 -7 2q-37 18 -65 46.5 t-44.5 67t-27 75t-15 85.5t-6 83t-1.5 83z" />
<glyph unicode=")" horiz-adv-x="303" d="M223 296q0 -49 -1.5 -83t-6 -83t-15 -85.5t-27 -75t-44.5 -67t-65 -46.5q-4 -2 -7 -2q-8 0 -8 7q0 6 7 10q42 21 71.5 61t44 80.5t22.5 99.5t9.5 94.5t1.5 89.5q0 44 -1 73.5t-5 78t-14 84.5t-25.5 75t-42 67.5t-61.5 46.5q-7 4 -7 10q0 7 8 7q3 0 7 -2q37 -18 65 -46.5 t44.5 -67t27 -75t15 -85.5t6 -83t1.5 -83z" />
<glyph unicode="*" horiz-adv-x="357" d="M178 546l-74 -111q-5 -6 -8 -6q-9 0 -9 8q0 3 3 8l80 107l-126 28q-8 2 -8 8q0 9 8 9q2 0 10 -2l119 -34l-3 128q0 10 8 10t8 -10l-3 -128l119 34q8 2 10 2q8 0 8 -9q0 -6 -8 -8l-126 -28l80 -107q3 -5 3 -8q0 -8 -9 -8q-4 0 -8 6z" />
<glyph unicode="+" horiz-adv-x="444" d="M230 437v-211h206q8 0 8 -8t-8 -8h-206v-210q0 -8 -8 -8t-8 8v210h-206q-8 0 -8 8t8 8h206v211q0 8 8 8t8 -8z" />
<glyph unicode="," horiz-adv-x="141" d="M87 8q0 -68 -27 -109q-3 -4 -7 -4q-6 0 -6 6q0 2 2 6q14 21 14 52q0 15 -5 29.5t-5 22.5q0 20 17 20t17 -23z" />
<glyph unicode="-" horiz-adv-x="282" d="M232 244h-183q-8 0 -8 8t8 8h183q8 0 8 -8t-8 -8z" />
<glyph unicode="." horiz-adv-x="141" d="M70 -8q-17 0 -17 19q0 20 17 20t17 -20q0 -19 -17 -19z" />
<glyph unicode="/" horiz-adv-x="407" d="M58 -81l274 825q2 7 9 7q9 0 9 -9q0 -2 -2 -8l-274 -825q-2 -7 -9 -7q-9 0 -9 9q0 2 2 8z" />
<glyph unicode="0" horiz-adv-x="590" d="M295 2q118 0 168 78t50 257q0 178 -50 256t-168 78t-168 -78t-50 -256q0 -179 50 -257t168 -78zM295 -14q-126 0 -181 82t-55 269q0 186 55 268t181 82t181 -82t55 -268q0 -187 -55 -269t-181 -82z" />
<glyph unicode="1" horiz-adv-x="343" d="M243 672v-671q0 -9 -9 -9t-9 9v654l-160 -113q-5 -3 -7 -3q-9 0 -9 9q0 5 5 8l172 122q4 3 8 3q9 0 9 -9z" />
<glyph unicode="2" horiz-adv-x="524" d="M74 18h399q9 0 9 -9t-9 -9h-409q-9 0 -9 9q0 48 22 88.5t57 69.5t77.5 55.5t85.5 53.5t78 56.5t57 71t22 91.5q0 75 -50.5 125.5t-133.5 50.5q-72 0 -112 -28.5t-59 -83.5q-2 -7 -10 -7t-8 8q0 2 1 5q40 122 188 122q91 0 146.5 -54t55.5 -138q0 -51 -22 -94.5t-57 -74.5 t-77.5 -59t-85 -54t-77.5 -53.5t-57 -63.5t-22 -78z" />
<glyph unicode="3" horiz-adv-x="532" d="M421 655h-327q-9 0 -9 9t9 9h346q9 0 9 -9q0 -4 -3 -7l-230 -267h52q103 0 154.5 -53.5t51.5 -144.5q0 -98 -56 -152t-164 -54q-158 0 -211 107q-2 4 -2 7q0 7 8 7q6 0 10 -8q22 -47 73.5 -72t121.5 -25q100 0 150.5 49t50.5 141q0 81 -46 131t-141 50h-70q-9 0 -9 9 q0 5 5 10z" />
<glyph unicode="4" horiz-adv-x="522" d="M392 672v-491h82q9 0 9 -8q0 -9 -9 -9h-82v-163q0 -9 -9 -9t-9 9v163h-336q-9 0 -9 9q0 3 3 8l342 494q4 6 9 6q9 0 9 -9zM55 181h319v463z" />
<glyph unicode="5" horiz-adv-x="550" d="M459 657h-310l-58 -300q63 73 182 73q101 0 160 -57.5t59 -161.5q0 -111 -59.5 -168t-159.5 -57q-153 0 -217 125q-1 2 -1 5q0 8 8 8q5 0 8 -6q59 -116 202 -116q90 0 145 53t55 156q0 100 -55 151.5t-145 51.5q-59 0 -100 -17t-81 -60q-4 -4 -9 -4q-11 0 -11 11q0 3 1 8 l60 310q2 11 13 11h313q8 0 8 -8t-8 -8z" />
<glyph unicode="6" horiz-adv-x="566" d="M284 421q102 0 162 -56t60 -160q0 -112 -59 -165.5t-163 -53.5q-114 0 -169 88t-55 246q0 192 59.5 279.5t180.5 87.5q53 0 94.5 -15.5t62.5 -36.5q4 -4 4 -8q0 -8 -8 -8q-4 0 -8 4q-54 48 -145 48q-223 0 -223 -334v-46q64 130 207 130zM284 2q204 0 204 203 q0 100 -55.5 150t-148.5 50q-135 0 -203 -135q0 -118 50 -193t153 -75z" />
<glyph unicode="7" horiz-adv-x="480" d="M429 657h-387q-8 0 -8 8t8 8h397q8 0 8 -8q0 -44 -16.5 -86t-42.5 -78t-57.5 -73t-63.5 -80t-58 -91t-42.5 -114.5t-16.5 -141.5q0 -9 -9 -9t-9 9q0 76 16.5 143t42.5 116t57.5 93t63.5 81t58 71.5t42.5 73t16.5 78.5z" />
<glyph unicode="8" horiz-adv-x="550" d="M275 -14q-105 0 -164 49t-59 144q0 78 41 126.5t115 61.5q-55 12 -89.5 52.5t-34.5 102.5q0 80 51.5 122.5t139.5 42.5t139.5 -42.5t51.5 -122.5q0 -62 -34.5 -102.5t-89.5 -52.5q74 -13 115 -61.5t41 -126.5q0 -95 -59 -144t-164 -49zM275 671q-80 0 -126.5 -38 t-46.5 -111q0 -71 47.5 -109.5t125.5 -38.5t125.5 38.5t47.5 109.5q0 73 -46.5 111t-126.5 38zM275 358q-98 0 -151.5 -45t-53.5 -134q0 -87 55.5 -132t149.5 -45t149.5 45t55.5 132q0 89 -53.5 134t-151.5 45z" />
<glyph unicode="9" horiz-adv-x="566" d="M282 252q-102 0 -162 56t-60 160q0 112 59 165.5t163 53.5q114 0 169 -88t55 -246q0 -192 -59.5 -279.5t-180.5 -87.5q-53 0 -94.5 15.5t-62.5 36.5q-4 4 -4 8q0 8 8 8q4 0 8 -4q54 -48 145 -48q223 0 223 334v46q-64 -130 -207 -130zM282 671q-204 0 -204 -203 q0 -100 55.5 -150t148.5 -50q135 0 203 135q0 118 -50 193t-153 75z" />
<glyph unicode=":" horiz-adv-x="141" d="M70 -8q-17 0 -17 19q0 20 17 20t17 -20q0 -19 -17 -19zM70 417q-17 0 -17 19q0 20 17 20t17 -20q0 -19 -17 -19z" />
<glyph unicode=";" horiz-adv-x="141" d="M70 417q-17 0 -17 19q0 20 17 20t17 -20q0 -19 -17 -19zM87 8q0 -68 -27 -109q-3 -4 -7 -4q-6 0 -6 6q0 2 2 6q14 21 14 52q0 15 -5 29.5t-5 22.5q0 20 17 20t17 -23z" />
<glyph unicode="&#x3c;" horiz-adv-x="344" d="M11 235q0 5 5 8l302 240q3 2 6 2q8 0 8 -8q0 -4 -4 -7l-295 -235l295 -235q4 -3 4 -7q0 -8 -8 -8q-3 0 -6 2l-302 240q-5 3 -5 8z" />
<glyph unicode="=" horiz-adv-x="444" d="M8 303h428q8 0 8 -8t-8 -8h-428q-8 0 -8 8t8 8zM8 150h428q8 0 8 -8t-8 -8h-428q-8 0 -8 8t8 8z" />
<glyph unicode="&#x3e;" horiz-adv-x="344" d="M333 235q0 -5 -5 -8l-302 -240q-3 -2 -6 -2q-8 0 -8 8q0 4 4 7l295 235l-295 235q-4 3 -4 7q0 8 8 8q3 0 6 -2l302 -240q5 -3 5 -8z" />
<glyph unicode="?" horiz-adv-x="461" d="M64 513q0 -9 -9 -9t-9 9q0 82 44.5 128t135.5 46q89 0 138.5 -46.5t49.5 -125.5q0 -55 -23 -96.5t-56 -66.5t-66 -46.5t-56 -49.5t-23 -62q0 -38 25 -63q4 -4 4 -9q0 -9 -9 -9q-4 0 -9 5q-29 29 -29 76q0 32 16.5 58.5t41.5 44t54 39.5t54 43.5t41.5 56.5t16.5 79 q0 71 -44 113.5t-126 42.5q-162 0 -162 -158zM202 -8q-17 0 -17 19q0 20 17 20t17 -20q0 -19 -17 -19z" />
<glyph unicode="@" horiz-adv-x="802" d="M389 359q54 0 90 -28t36 -88v-172q0 -35 23 -51t58 -16q43 0 73 18t44 48.5t20 60.5t6 64q0 161 -91 242.5t-248 81.5q-165 0 -251 -88t-86 -259q0 -175 88.5 -260.5t248.5 -85.5q152 0 239 65q5 4 10 4q8 0 8 -8q0 -6 -8 -11q-52 -37 -108.5 -51.5t-140.5 -14.5 q-169 0 -262 90.5t-93 271.5q0 180 92 271.5t263 91.5q163 0 259.5 -86.5t96.5 -253.5q0 -36 -7 -69t-23.5 -66t-49.5 -52.5t-80 -19.5q-35 0 -61.5 16t-32.5 45q-34 -61 -125 -61q-67 0 -101 29.5t-34 75.5q0 105 149 105h107v52q0 44 -29.5 68.5t-79.5 24.5q-64 0 -97 -45 q-4 -5 -9 -5q-7 0 -7 7q0 4 3 8q34 51 110 51zM498 181h-107q-131 0 -131 -88q0 -39 28 -64t89 -25q62 0 91.5 25.5t29.5 65.5v86z" />
<glyph unicode="A" horiz-adv-x="604" d="M468 222h-332l-87 -223q-3 -7 -9 -7q-9 0 -9 8q0 3 1 5l263 671q2 5 7 5t7 -5l263 -671q1 -2 1 -5q0 -8 -9 -8q-6 0 -9 7zM462 238l-160 411l-160 -411h320z" />
<glyph unicode="B" horiz-adv-x="546" d="M113 657v-294h165q79 0 125.5 38.5t46.5 108.5q0 147 -172 147h-165zM113 347v-331h199q172 0 172 166q0 79 -46.5 122t-127.5 43h-197zM312 0h-208q-9 0 -9 9v655q0 9 9 9h174q190 0 190 -163q0 -68 -38.5 -106t-89.5 -46q68 -3 114 -49t46 -127q0 -87 -46.5 -134.5 t-141.5 -47.5z" />
<glyph unicode="C" horiz-adv-x="629" d="M350 -14q-147 0 -224 87.5t-77 262.5q0 176 77 263.5t224 87.5q71 0 129.5 -27t92.5 -75q2 -3 2 -6q0 -9 -9 -9q-5 0 -8 4q-29 43 -86 70t-121 27q-139 0 -211 -84.5t-72 -250.5q0 -165 72 -249.5t211 -84.5q65 0 124 27t88 70q3 4 8 4q9 0 9 -9q0 -3 -2 -6 q-34 -47 -95 -74.5t-132 -27.5z" />
<glyph unicode="D" horiz-adv-x="603" d="M113 657v-641h138q140 0 212.5 75t72.5 245q0 169 -72.5 245t-212.5 76h-138zM251 0h-147q-9 0 -9 9v655q0 9 9 9h147q149 0 226 -79t77 -258t-76.5 -257.5t-226.5 -78.5z" />
<glyph unicode="E" d="M113 331v-315h344q8 0 8 -8t-8 -8h-354q-8 0 -8 9v655q0 9 8 9h342q8 0 8 -8t-8 -8h-332v-310h261q8 0 8 -8t-8 -8h-261z" />
<glyph unicode="F" d="M113 321v-320q0 -9 -9 -9t-9 9v663q0 9 8 9h342q8 0 8 -8t-8 -8h-332v-320h261q8 0 8 -8t-8 -8h-261z" />
<glyph unicode="G" horiz-adv-x="670" d="M350 -14q-147 0 -224 87.5t-77 262.5q0 176 77 263.5t224 87.5q71 0 129.5 -27t92.5 -75q2 -3 2 -6q0 -9 -9 -9q-5 0 -8 4q-29 43 -86 70t-121 27q-139 0 -211 -84.5t-72 -250.5q0 -165 72 -249.5t211 -84.5q70 0 131 31t91 78v183h-196q-8 0 -8 8t8 8h200q5 0 9.5 -4 t4.5 -9v-180q0 -10 -8 -21q-37 -50 -98.5 -80t-133.5 -30z" />
<glyph unicode="H" horiz-adv-x="640" d="M527 355v317q0 9 9 9t9 -9v-671q0 -9 -9 -9t-9 9v338h-414v-338q0 -9 -9 -9t-9 9v671q0 9 9 9t9 -9v-317h414z" />
<glyph unicode="I" horiz-adv-x="208" d="M113 672v-671q0 -9 -9 -9t-9 9v671q0 9 9 9t9 -9z" />
<glyph unicode="J" horiz-adv-x="398" d="M285 189v483q0 9 9 9t9 -9v-483q0 -97 -37.5 -150t-130.5 -53q-62 0 -103 22q-5 2 -5 8q0 8 8 8q3 0 11 -4q35 -17 89 -17q84 0 117 48t33 138z" />
<glyph unicode="K" horiz-adv-x="541" d="M113 672v-406l357 412q3 3 7 3q9 0 9 -9q0 -4 -3 -7l-238 -272l275 -386q2 -3 2 -7q0 -8 -8 -8q-5 0 -8 4l-273 383l-120 -139v-239q0 -9 -9 -9t-9 9v671q0 9 9 9t9 -9z" />
<glyph unicode="L" horiz-adv-x="468" d="M113 672v-656h319q8 0 8 -8t-8 -8h-329q-8 0 -8 9v663q0 9 9 9t9 -9z" />
<glyph unicode="M" horiz-adv-x="763" d="M650 633l-264 -515q-3 -6 -10 -6q-6 0 -9 6l-264 515v-632q0 -9 -9 -9t-9 9v671q0 9 9 9q5 0 7 -4l275 -539l274 537q3 6 9 6q9 0 9 -9v-671q0 -9 -9 -9t-9 9v632z" />
<glyph unicode="N" horiz-adv-x="619" d="M516 32v640q0 9 9 9t9 -9v-671q0 -9 -9 -9q-6 0 -9 5l-413 644v-640q0 -9 -9 -9t-9 9v671q0 9 9 9q5 0 8 -5z" />
<glyph unicode="O" horiz-adv-x="700" d="M350 2q139 0 211 84.5t72 249.5q0 166 -72 250.5t-211 84.5t-211 -84.5t-72 -250.5q0 -165 72 -249.5t211 -84.5zM350 687q147 0 224 -87.5t77 -263.5q0 -175 -77 -262.5t-224 -87.5t-224 87.5t-77 262.5q0 176 77 263.5t224 87.5z" />
<glyph unicode="P" horiz-adv-x="534" d="M113 657v-344h193q75 0 118 46.5t43 125.5q0 81 -42.5 126.5t-118.5 45.5h-193zM113 297v-296q0 -9 -9 -9t-9 9v663q0 9 9 9h202q82 0 130.5 -48t48.5 -140q0 -91 -48.5 -139.5t-130.5 -48.5h-193z" />
<glyph unicode="Q" horiz-adv-x="700" d="M350 687q147 0 224 -87.5t77 -263.5q0 -294 -216 -341q71 -15 131 -82q4 -4 4 -7q0 -8 -8 -8q-3 0 -7 4q-79 84 -175 84h-30q-147 0 -224 87.5t-77 262.5q0 176 77 263.5t224 87.5zM350 2q139 0 211 84.5t72 249.5q0 166 -72 250.5t-211 84.5t-211 -84.5t-72 -250.5 q0 -165 72 -249.5t211 -84.5z" />
<glyph unicode="R" horiz-adv-x="544" d="M268 309h-155v-308q0 -9 -9 -9t-9 9v663q0 9 9 9h205q79 0 131 -52.5t52 -129.5t-52 -129.5t-131 -52.5h-21q6 -9 17 -23.5t39.5 -54.5t54 -74.5t51.5 -70.5t41.5 -57t14.5 -20q3 -4 3 -8q0 -9 -9 -9q-6 0 -9 5zM113 657v-332h196q74 0 119.5 48.5t45.5 117.5 t-45.5 117.5t-119.5 48.5h-196z" />
<glyph unicode="S" horiz-adv-x="545" d="M458 580q-61 91 -188 91q-95 0 -137 -42t-42 -103q0 -46 29.5 -78.5t73.5 -49t95.5 -36t95.5 -39t73.5 -58.5t29.5 -93q0 -89 -57 -137.5t-169 -48.5q-145 0 -219 115q-3 5 -3 9q0 9 9 9q5 0 10 -8q65 -109 203 -109q103 0 155.5 44.5t52.5 125.5q0 44 -22 76.5t-57 52 t-77 35t-84.5 31t-77.5 34.5t-57 50.5t-22 74.5q0 71 48 116t149 45q132 0 202 -97q2 -3 2 -6q0 -8 -8 -8q-5 0 -8 4z" />
<glyph unicode="T" horiz-adv-x="538" d="M278 657v-656q0 -9 -9 -9t-9 9v656h-214q-8 0 -8 8t8 8h446q8 0 8 -8t-8 -8h-214z" />
<glyph unicode="U" horiz-adv-x="625" d="M522 186v486q0 9 9 9t9 -9v-486q0 -44 -9 -77t-32 -62.5t-68.5 -45t-111.5 -15.5t-112 16t-69.5 45t-33 62.5t-9.5 76.5v486q0 9 9 9t9 -9v-486q0 -41 8.5 -71.5t30 -57.5t64 -41t103.5 -14q117 0 160 48.5t43 135.5z" />
<glyph unicode="V" horiz-adv-x="576" d="M48 674l240 -653l240 653q2 7 9 7q9 0 9 -9q0 -1 -2 -7l-247 -666q-3 -7 -9 -7t-9 7l-247 666q-2 6 -2 7q0 9 9 9q7 0 9 -7z" />
<glyph unicode="W" horiz-adv-x="826" d="M592 -1l-179 645l-179 -645q-3 -7 -9 -7q-8 0 -9 7l-184 667q-1 4 -1 6q0 9 9 9q7 0 9 -8l176 -649l179 650q2 7 9 7t9 -7l179 -650l176 649q2 8 9 8q9 0 9 -9q0 -2 -1 -6l-184 -667q-1 -7 -9 -7q-6 0 -9 7z" />
<glyph unicode="X" horiz-adv-x="486" d="M243 363l199 312q4 6 9 6q9 0 9 -9q0 -3 -2 -6l-205 -320l218 -339q2 -3 2 -6q0 -9 -9 -9q-4 0 -8 5l-213 331l-213 -331q-4 -5 -8 -5q-9 0 -9 9q0 3 2 6l218 339l-205 320q-2 3 -2 6q0 9 9 9q5 0 9 -6z" />
<glyph unicode="Y" d="M254 344l209 332q3 5 8 5q9 0 9 -9q0 -3 -2 -6l-215 -341v-324q0 -9 -9 -9t-9 9v324l-215 341q-2 3 -2 6q0 9 9 9q5 0 8 -5z" />
<glyph unicode="Z" horiz-adv-x="497" d="M469 0h-445q-8 0 -8 8q0 4 3 8l418 641h-390q-8 0 -8 8t8 8h406q8 0 8 -8q0 -3 -3 -7l-417 -642h428q8 0 8 -8t-8 -8z" />
<glyph unicode="[" horiz-adv-x="233" d="M93 -130h75q8 0 8 -8t-8 -8h-84q-9 0 -9 9v866q0 9 9 9h84q8 0 8 -8t-8 -8h-75v-852z" />
<glyph unicode="\" horiz-adv-x="407" d="M75 744l274 -825q2 -6 2 -8q0 -9 -9 -9q-7 0 -9 7l-274 825q-2 6 -2 8q0 9 9 9q7 0 9 -7z" />
<glyph unicode="]" horiz-adv-x="234" d="M65 -130h75v852h-75q-8 0 -8 8t8 8h84q9 0 9 -9v-866q0 -9 -9 -9h-84q-8 0 -8 8t8 8z" />
<glyph unicode="^" horiz-adv-x="468" d="M410 373l-176 300l-176 -300q-3 -4 -7 -4q-7 0 -7 7q0 3 3 8l176 300q4 7 11 7t11 -7l176 -300q3 -5 3 -8q0 -7 -7 -7q-4 0 -7 4z" />
<glyph unicode="_" horiz-adv-x="406" d="M-8 -61h422q8 0 8 -8t-8 -8h-422q-8 0 -8 8t8 8z" />
<glyph unicode="`" horiz-adv-x="370" d="M129 655q8 7 15 -2l101 -119q5 -5 0 -10q-5 -4 -10 1l-106 114q-9 9 0 16z" />
<glyph unicode="a" horiz-adv-x="462" d="M392 311v-310q0 -8 -9 -8q-8 0 -8 8v73q-19 -43 -65 -64.5t-104 -21.5q-81 0 -123.5 37t-42.5 99q0 65 45.5 100t122.5 35h167v52q0 68 -39.5 104.5t-109.5 36.5q-101 0 -143 -72q-3 -6 -9 -6q-8 0 -8 8q0 4 3 8q48 78 157 78q81 0 123.5 -42t42.5 -115zM206 4 q71 0 120 34t49 100v106h-167q-68 0 -109 -31.5t-41 -88.5q0 -56 38.5 -88t109.5 -32z" />
<glyph unicode="b" horiz-adv-x="505" d="M98 335v-154q0 -86 46.5 -132t125.5 -46q172 0 172 225q0 224 -172 224q-37 0 -68 -12t-49.5 -29t-31.5 -34.5t-18 -29.5zM80 181v522q0 9 9 9t9 -9v-335l5.5 11t18 24t32.5 30t49 24t67 11q96 0 143 -58.5t47 -181.5t-47 -182t-143 -59q-87 0 -138.5 49.5t-51.5 144.5z " />
<glyph unicode="c" horiz-adv-x="443" d="M244 452q-181 0 -181 -225q0 -224 181 -224q74 0 137 50q5 3 7 3q8 0 8 -8q0 -4 -5 -8q-67 -53 -147 -53q-199 0 -199 240q0 241 199 241q93 0 141 -54q4 -4 4 -7q0 -8 -8 -8q-4 0 -7 3q-50 50 -130 50z" />
<glyph unicode="d" horiz-adv-x="500" d="M407 181v154q-2 5 -5.5 13t-17.5 28t-31.5 35.5t-49 28t-68.5 12.5q-172 0 -172 -224q0 -225 172 -225q79 0 125.5 46t46.5 132zM425 703v-522q0 -95 -51.5 -144.5t-138.5 -49.5q-96 0 -143 59t-47 182t47 181.5t143 58.5q36 0 67 -10.5t49.5 -25t31.5 -29t19 -25.5 l5 -10v335q0 9 9 9t9 -9z" />
<glyph unicode="e" horiz-adv-x="466" d="M45 228q0 240 199 240q183 0 183 -191q0 -21 -3 -39q-2 -12 -16 -12h-345q0 -223 181 -223q84 0 152 49q6 4 8 4q8 0 8 -8q0 -3 -3 -6q-68 -55 -165 -55q-199 0 -199 241zM410 277q0 175 -166 175q-89 0 -134.5 -54t-45.5 -156h345q1 27 1 35z" />
<glyph unicode="f" horiz-adv-x="274" d="M243 438h-124v-437q0 -9 -9 -9t-9 9v437h-63q-8 0 -8 8t8 8h63v64q0 76 40.5 121.5t119.5 45.5q8 0 8 -8t-8 -8q-71 0 -106.5 -39t-35.5 -112v-64h124q8 0 8 -8t-8 -8z" />
<glyph unicode="g" horiz-adv-x="466" d="M62 306q0 75 44.5 118.5t127.5 43.5q68 0 113 -32q22 61 92 61q8 0 8 -8t-8 -8q-62 0 -80 -55q47 -42 47 -120q0 -75 -44.5 -118.5t-127.5 -43.5q-67 0 -110 29q-45 -15 -45 -57q0 -57 72 -57h129q79 0 124.5 -30t45.5 -93q0 -68 -55 -102.5t-149 -34.5q-86 0 -144 32.5 t-58 100.5q0 42 29 74t63 39q-74 7 -74 71q0 48 49 67q-49 42 -49 123zM388 306q0 66 -39.5 106t-114.5 40t-114.5 -40t-39.5 -106t39.5 -106t114.5 -40t114.5 40t39.5 106zM432 -64q0 107 -152 107h-99q-55 -7 -87 -37.5t-32 -73.5q0 -61 52 -89t133 -28q84 0 134.5 30 t50.5 91z" />
<glyph unicode="h" horiz-adv-x="500" d="M98 703v-340q13 41 54.5 73t107.5 32q51 0 86 -14t52.5 -40.5t24.5 -55.5t7 -67v-290q0 -9 -9 -9t-9 9v299q0 151 -152 151q-77 0 -119.5 -46.5t-42.5 -108.5v-295q0 -9 -9 -9t-9 9v702q0 9 9 9t9 -9z" />
<glyph unicode="i" horiz-adv-x="178" d="M89 603q-12 0 -12 15q0 16 12 16t12 -16q0 -15 -12 -15zM98 453v-452q0 -9 -9 -9t-9 9v452q0 9 9 9t9 -9z" />
<glyph unicode="j" horiz-adv-x="183" d="M93 603q-12 0 -12 15q0 16 12 16t12 -16q0 -15 -12 -15zM-24 -185q50 0 79.5 35.5t29.5 91.5v511q0 9 9 9t9 -9v-511q0 -62 -34 -102.5t-93 -40.5q-8 0 -8 8t8 8z" />
<glyph unicode="k" horiz-adv-x="434" d="M180 261l-82 -68v-192q0 -9 -9 -9t-9 9v702q0 9 9 9t9 -9v-487l290 243q3 3 7 3q9 0 9 -9q0 -4 -4 -7l-206 -173l215 -264q4 -4 4 -8q0 -9 -9 -9q-5 0 -8 4z" />
<glyph unicode="l" horiz-adv-x="198" d="M158 -8q-48 0 -65.5 27.5t-17.5 80.5v603q0 9 9 9t9 -9v-603q0 -46 13.5 -69t51.5 -23q8 0 8 -8t-8 -8z" />
<glyph unicode="m" horiz-adv-x="808" d="M251 468q76 0 115.5 -32t47.5 -85q10 48 50 82.5t109 34.5q51 0 85.5 -14t51.5 -40.5t24 -55.5t7 -67v-290q0 -9 -9 -9t-9 9v299q0 70 -33 110.5t-117 40.5q-75 0 -114.5 -46t-39.5 -109v-295q0 -9 -9 -9t-9 9v311q0 61 -35 100t-115 39q-76 0 -114.5 -45.5t-38.5 -109.5 v-295q0 -9 -9 -9t-9 9v452q0 9 9 9t9 -9v-90q13 42 50 73.5t103 31.5z" />
<glyph unicode="n" horiz-adv-x="500" d="M98 453v-90q12 41 54 73t108 32q51 0 86 -14t52.5 -40.5t24.5 -55.5t7 -67v-290q0 -9 -9 -9t-9 9v299q0 151 -152 151q-77 0 -119.5 -46.5t-42.5 -108.5v-295q0 -9 -9 -9t-9 9v452q0 9 9 9t9 -9z" />
<glyph unicode="o" horiz-adv-x="488" d="M244 3q181 0 181 224q0 225 -181 225t-181 -225q0 -224 181 -224zM244 -13q-199 0 -199 240q0 241 199 241t199 -241q0 -240 -199 -240z" />
<glyph unicode="p" horiz-adv-x="505" d="M80 -192v645q0 9 9 9t9 -9v-104q36 119 170 119q192 0 192 -241q0 -240 -192 -240q-40 0 -72.5 12.5t-49.5 30t-29 34.5t-15 30l-4 12v-298q0 -9 -9 -9t-9 9zM96 228q0 -112 44 -168.5t128 -56.5q174 0 174 224q0 225 -174 225q-172 0 -172 -224z" />
<glyph unicode="q" horiz-adv-x="494" d="M407 120v154q0 86 -46.5 132t-125.5 46q-172 0 -172 -225q0 -224 172 -224q37 0 68 12t49.5 29t31.5 34.5t18 29.5zM425 274v-466q0 -9 -9 -9t-9 9v279l-5.5 -11t-18 -24t-32.5 -30t-49 -24t-67 -11q-96 0 -143 58.5t-47 181.5t47 182t143 59q87 0 138.5 -49.5 t51.5 -144.5z" />
<glyph unicode="r" horiz-adv-x="283" d="M260 466q8 0 8 -8t-8 -8q-79 0 -120.5 -52.5t-41.5 -118.5v-278q0 -9 -9 -9t-9 9v449q0 9 9 9t9 -9v-101q10 45 52.5 81t109.5 36z" />
<glyph unicode="s" horiz-adv-x="399" d="M196 452q-58 0 -92 -24.5t-34 -71.5q0 -38 29.5 -62t72 -37.5t85 -28.5t72 -44t29.5 -73q0 -63 -43 -93.5t-117 -30.5q-101 0 -164 68q-3 3 -3 6q0 8 8 8q3 0 7 -4q60 -62 152 -62q66 0 104 26.5t38 81.5q0 40 -29.5 66.5t-72 40.5l-85 28t-72 41t-29.5 69q0 55 40 83.5 t104 28.5q48 0 86.5 -18t58.5 -48q2 -3 2 -6q0 -8 -8 -8q-4 0 -7 4q-41 60 -132 60z" />
<glyph unicode="t" horiz-adv-x="258" d="M195 -8q-100 0 -100 118v328h-62q-8 0 -8 8t8 8h62v128q0 9 9 9t9 -9v-128h90q8 0 8 -8t-8 -8h-90v-328q0 -51 19 -76.5t63 -25.5q8 0 8 -8t-8 -8z" />
<glyph unicode="u" horiz-adv-x="490" d="M245 4q157 0 157 151v298q0 9 9 9t9 -9v-289q0 -177 -175 -177t-175 177v289q0 9 9 9t9 -9v-298q0 -151 157 -151z" />
<glyph unicode="v" horiz-adv-x="428" d="M214 -8q-6 0 -9 7l-179 447q-2 6 -2 7q0 9 9 9q6 0 9 -7l172 -435l172 435q3 7 9 7q9 0 9 -9q0 -1 -2 -7l-179 -447q-3 -7 -9 -7z" />
<glyph unicode="w" horiz-adv-x="656" d="M453 0l-125 430l-125 -430q-2 -8 -10 -8q-7 0 -9 8l-158 445q-2 6 -2 8q0 9 9 9q7 0 9 -7l151 -432l126 432q2 7 9 7t9 -7l126 -432l151 432q2 7 9 7q9 0 9 -9q0 -2 -2 -8l-158 -445q-2 -8 -9 -8q-8 0 -10 8z" />
<glyph unicode="x" horiz-adv-x="384" d="M180 231l-153 216q-2 3 -2 6q0 9 9 9q5 0 8 -5l150 -213l149 213q3 5 8 5q9 0 9 -9q0 -3 -2 -6l-153 -218l157 -222q2 -3 2 -6q0 -9 -9 -9q-5 0 -8 5l-154 218l-153 -218q-3 -5 -8 -5q-9 0 -9 9q0 3 2 6z" />
<glyph unicode="y" horiz-adv-x="428" d="M25 -201q-8 0 -8 8t8 8q75 0 105.5 35t74.5 149l-179 447q-2 6 -2 7q0 9 9 9q6 0 9 -7l172 -435l172 435q3 7 9 7q9 0 9 -9q0 -1 -2 -7l-207 -516q-30 -75 -66 -103t-104 -28z" />
<glyph unicode="z" horiz-adv-x="390" d="M353 0h-316q-8 0 -8 8q0 2 3 7l300 423h-274q-8 0 -8 8t8 8h289q8 0 8 -8q0 -3 -3 -7l-299 -423h300q8 0 8 -8t-8 -8z" />
<glyph unicode="{" horiz-adv-x="296" d="M56 288h-13q-8 0 -8 8t8 8h13q52 0 75.5 27t23.5 86q0 40 -6.5 117.5t-6.5 119.5q0 40 23 62t63 22q8 0 8 -8t-8 -8q-31 0 -49.5 -17t-18.5 -51q0 -39 5.5 -119.5t5.5 -118.5q0 -55 -23.5 -87.5t-68.5 -32.5q45 0 68.5 -32.5t23.5 -87.5q0 -38 -5.5 -118.5t-5.5 -119.5 q0 -34 18.5 -51t49.5 -17q8 0 8 -8t-8 -8q-40 0 -63 22t-23 62q0 42 6.5 119.5t6.5 117.5q0 59 -23.5 86t-75.5 27z" />
<glyph unicode="|" horiz-adv-x="218" d="M118 799v-950q0 -9 -9 -9t-9 9v950q0 9 9 9t9 -9z" />
<glyph unicode="}" horiz-adv-x="296" d="M253 288h-13q-52 0 -75.5 -27t-23.5 -86q0 -40 6.5 -117.5t6.5 -119.5q0 -40 -23 -62t-63 -22q-8 0 -8 8t8 8q31 0 49.5 17t18.5 51q0 39 -5.5 119.5t-5.5 118.5q0 55 23.5 87.5t68.5 32.5q-45 0 -68.5 32.5t-23.5 87.5q0 38 5.5 118.5t5.5 119.5q0 34 -18.5 51t-49.5 17 q-8 0 -8 8t8 8q40 0 63 -22t23 -62q0 -42 -6.5 -119.5t-6.5 -117.5q0 -59 23.5 -86t75.5 -27h13q8 0 8 -8t-8 -8z" />
<glyph unicode="~" horiz-adv-x="477" d="M325 281q63 0 91 59q3 6 9 6q7 0 7 -8q0 -3 -2 -7q-12 -24 -39 -45t-66 -21q-35 0 -87.5 35t-86.5 35q-63 0 -91 -59q-3 -6 -9 -6q-7 0 -7 8q0 3 2 7q12 24 39 45t66 21q40 0 92.5 -35t81.5 -35z" />
<glyph unicode="&#xa1;" horiz-adv-x="141" d="M70 468q17 0 17 -19q0 -20 -17 -20t-17 20q0 19 17 19zM70 336q6 0 6 -7l5 -538q0 -12 -11 -12t-11 12l5 538q0 7 6 7z" />
<glyph unicode="&#xa2;" horiz-adv-x="443" d="M253 -13v-85q0 -9 -9 -9t-9 9v85q-190 6 -190 240q0 235 190 241v72q0 9 9 9t9 -9v-72q84 -3 132 -54q4 -4 4 -7q0 -8 -8 -8q-4 0 -7 3q-50 50 -130 50q-181 0 -181 -225q0 -224 181 -224q74 0 137 50q5 3 7 3q8 0 8 -8q0 -4 -5 -8q-64 -50 -138 -53z" />
<glyph unicode="&#xa3;" horiz-adv-x="584" d="M360 303h-190q31 -64 31 -123q0 -38 -20.5 -79.5t-48.5 -67.5q42 24 90 24q42 0 103 -28t91 -28q84 0 118 75q4 7 9 7q9 0 9 -8q0 -4 -2 -8q-23 -45 -54 -64t-80 -19q-37 0 -97.5 28.5t-96.5 28.5q-29 0 -52.5 -7.5t-35 -15t-30.5 -22.5q-6 -4 -9 -4q-9 0 -9 9q0 4 5 9 q93 91 93 170q0 55 -33 123h-67q-8 0 -8 8t8 8h59q-3 6 -11.5 22.5t-12 24.5t-10.5 23t-10.5 26t-7.5 25.5t-5.5 29t-1.5 30.5q0 83 55.5 135t150.5 52q154 0 205 -133q2 -6 2 -9q0 -8 -8 -8q-6 0 -9 8q-20 56 -66.5 91t-123.5 35q-86 0 -137 -47.5t-51 -123.5 q0 -18 3 -36.5t6 -30.5t11 -32t11 -26.5t15 -29.5t14 -26h198q8 0 8 -8t-8 -8z" />
<glyph unicode="&#xa4;" horiz-adv-x="467" d="M413 312q0 -68 -46 -122l64 -64q4 -4 4 -8q0 -9 -9 -9q-5 0 -8 4l-63 64q-50 -47 -120 -47q-73 0 -122 49l-65 -66q-3 -4 -8 -4q-9 0 -9 9q0 4 4 8l65 66q-43 51 -43 120q0 70 45 121l-67 68q-4 4 -4 8q0 9 9 9q5 0 8 -4l66 -68q51 48 121 48q69 0 118 -46l65 66q3 4 8 4 q9 0 9 -9q0 -4 -4 -8l-65 -66q47 -52 47 -123zM395 312q0 70 -45.5 117.5t-114.5 47.5t-114.5 -47.5t-45.5 -117.5t45.5 -117.5t114.5 -47.5t114.5 47.5t45.5 117.5z" />
<glyph unicode="&#xa5;" d="M100 313h145v12l-215 341q-2 3 -2 6q0 9 9 9q5 0 8 -5l209 -332l209 332q3 5 8 5q9 0 9 -9q0 -3 -2 -6l-215 -341v-12h144q8 0 8 -8t-8 -8h-144v-85h144q8 0 8 -8t-8 -8h-144v-195q0 -9 -9 -9t-9 9v195h-145q-8 0 -8 8t8 8h145v85h-145q-8 0 -8 8t8 8z" />
<glyph unicode="&#xa6;" horiz-adv-x="218" d="M118 799v-434q0 -9 -9 -9t-9 9v434q0 9 9 9t9 -9zM118 283v-434q0 -9 -9 -9t-9 9v434q0 9 9 9t9 -9z" />
<glyph unicode="&#xa7;" horiz-adv-x="504" d="M66 283q0 -42 20 -71t55.5 -46.5t72.5 -30t82.5 -28t73.5 -33.5q67 57 67 131q0 50 -33.5 84t-75.5 48t-102 34.5t-93 40.5q-67 -57 -67 -129zM455 205q0 -78 -70 -141q54 -44 54 -113q0 -64 -49.5 -108t-145.5 -44q-61 0 -109.5 24t-75.5 63q-3 4 -3 8q0 7 7 7q4 0 8 -5 q62 -81 173 -81q92 0 134.5 39.5t42.5 96.5q0 47 -27.5 79.5t-69 47.5t-90 32t-90 33.5t-69 52t-27.5 87.5q0 76 70 139q-54 44 -54 113q0 64 49.5 108t145.5 44q61 0 109.5 -24t75.5 -63q3 -4 3 -8q0 -7 -7 -7q-4 0 -8 5q-62 81 -173 81q-92 0 -134.5 -39.5t-42.5 -96.5 q0 -41 20.5 -70.5t53.5 -46t72.5 -29t79.5 -26.5t73 -31.5t53.5 -49.5t20.5 -77z" />
<glyph unicode="&#xa8;" horiz-adv-x="248" d="M63 551q-15 0 -15 16t15 16t15 -16t-15 -16zM185 551q-15 0 -15 16t15 16t15 -16t-15 -16z" />
<glyph unicode="&#xa9;" horiz-adv-x="812" d="M405 170q66 0 103 37q3 3 7 3q7 0 7 -7q0 -3 -3 -7q-39 -42 -114 -42q-151 0 -151 182q0 183 151 183q74 0 108 -41q3 -4 3 -8q0 -7 -7 -7q-4 0 -7 3q-35 37 -97 37q-133 0 -133 -167q0 -166 133 -166zM406 2q152 0 233.5 83.5t81.5 250.5t-81.5 251t-233.5 84 t-233.5 -84t-81.5 -251t81.5 -250.5t233.5 -83.5zM406 -14q-160 0 -246.5 88t-86.5 262q0 175 86.5 263t246.5 88t246.5 -88t86.5 -263q0 -174 -86.5 -262t-246.5 -88z" />
<glyph unicode="&#xaa;" horiz-adv-x="381" d="M193 672q-57 0 -88 -43q-3 -4 -8 -4q-7 0 -7 7q0 4 3 8q31 47 100 47q57 0 87 -31t30 -78v-206q0 -8 -8 -8t-8 8v44q-31 -55 -109 -55q-55 0 -84.5 24.5t-29.5 67.5q0 42 30.5 67t88.5 25h104v33q0 42 -27 68t-74 26zM185 376q47 0 78 25.5t31 76.5v51h-104 q-49 0 -75.5 -20t-26.5 -56q0 -37 25.5 -57t71.5 -20zM322 277h-264q-8 0 -8 8t8 8h264q8 0 8 -8t-8 -8z" />
<glyph unicode="&#xab;" horiz-adv-x="464" d="M63 212q0 4 6 10l177 205q3 3 6 3q8 0 8 -8q0 -4 -4 -8l-175 -202l175 -202q4 -4 4 -8q0 -8 -8 -8q-3 0 -6 3l-177 205q-6 6 -6 10zM203 212q0 4 6 10l177 205q3 3 6 3q8 0 8 -8q0 -4 -4 -8l-175 -202l175 -202q4 -4 4 -8q0 -8 -8 -8q-3 0 -6 3l-177 205q-6 6 -6 10z" />
<glyph unicode="&#xac;" horiz-adv-x="563" d="M505 294v-238q0 -8 -8 -8t-8 8v230h-424q-8 0 -8 8t8 8h432q8 0 8 -8z" />
<glyph unicode="&#xae;" horiz-adv-x="377" d="M188 687q147 0 147 -152q0 -153 -147 -153q-70 0 -108 38.5t-38 114.5t38 114t108 38zM188 396q132 0 132 139q0 138 -132 138q-131 0 -131 -138q0 -139 131 -139zM152 536h48q13 0 21 9t8 22q0 14 -8 22.5t-21 8.5h-48v-62zM136 464v138q0 11 11 11h53q22 0 34 -13 t12 -33q0 -19 -11.5 -31.5t-29.5 -14.5l34 -49q4 -5 4 -8q0 -8 -8 -8q-4 0 -7 4l-41 61h-35v-57q0 -8 -8 -8t-8 8z" />
<glyph unicode="&#xaf;" horiz-adv-x="382" d="M296 559h-210q-8 0 -8 8t8 8h210q8 0 8 -8t-8 -8z" />
<glyph unicode="&#xb0;" horiz-adv-x="356" d="M42 550q0 57 40 97t97 40t97 -40t40 -97t-40 -97t-97 -40t-97 40t-40 97zM58 549q0 -50 34.5 -85.5t85.5 -35.5t86.5 35.5t35.5 85.5t-35.5 86.5t-86.5 36.5t-85.5 -36.5t-34.5 -86.5z" />
<glyph unicode="&#xb1;" horiz-adv-x="444" d="M230 525v-211h206q8 0 8 -8t-8 -8h-206v-210q0 -8 -8 -8t-8 8v210h-206q-8 0 -8 8t8 8h206v211q0 8 8 8t8 -8zM8 16h428q8 0 8 -8t-8 -8h-428q-8 0 -8 8t8 8z" />
<glyph unicode="&#xb2;" horiz-adv-x="259" d="M217 425h-181q-7 0 -7 7q0 32 18.5 56.5t45 40t53 30.5t45 37t18.5 50q0 30 -20 50t-61 20q-57 0 -73 -48q-2 -6 -8 -6q-7 0 -7 7q0 2 1 5q19 56 87 56q48 0 72.5 -23t24.5 -61q0 -30 -18.5 -54t-45 -40t-53 -31t-45 -36t-18.5 -46h172q7 0 7 -7t-7 -7z" />
<glyph unicode="&#xb3;" horiz-adv-x="254" d="M191 710h-145q-7 0 -7 7t7 7h159q7 0 7 -7q0 -4 -3 -7l-92 -106h11q51 0 74.5 -26.5t23.5 -66.5q0 -92 -108 -92q-64 0 -93 48q-2 4 -2 7q0 7 7 7q4 0 7 -5q27 -43 81 -43q92 0 92 78q0 79 -84 79h-23q-7 0 -7 7q0 3 3 6z" />
<glyph unicode="&#xb4;" horiz-adv-x="370" d="M242 655q9 -7 0 -16l-106 -114q-5 -5 -10 -1q-5 5 0 10l101 119q7 9 15 2z" />
<glyph unicode="&#xb5;" horiz-adv-x="490" d="M245 4q157 0 157 151v298q0 9 9 9t9 -9v-289q0 -177 -175 -177q-123 0 -157 84v-267q0 -9 -9 -9t-9 9v649q0 9 9 9t9 -9v-298q0 -151 157 -151z" />
<glyph unicode="&#xb6;" horiz-adv-x="434" d="M334 657h-78v-471q0 -144 -82 -196q160 36 160 262v405zM384 657h-32v-405q0 -83 -19.5 -141t-56.5 -88.5t-81 -43t-102 -12.5q-34 0 -64 12q-6 3 -6 8q0 7 7 7q2 0 8 -2q26 -9 55 -9q72 0 108.5 54t36.5 146v176h-60q-65 0 -110.5 46t-45.5 111t46 111t110 46h206 q8 0 8 -8t-8 -8z" />
<glyph unicode="&#xb7;" horiz-adv-x="164" d="M81 281q-17 0 -17 19q0 20 17 20t17 -20q0 -19 -17 -19z" />
<glyph unicode="&#xb8;" horiz-adv-x="315" d="M232 -139q0 -38 -22 -60.5t-66 -22.5q-38 0 -59 18q-3 3 -3 6q0 7 7 7q3 0 7 -3q20 -14 48 -14q73 0 73 69q0 33 -19 48t-46 15q-12 0 -23 -2.5t-12 -2.5q-8 0 -8 9l4 72h14l-5 -68q14 5 30 5q80 0 80 -76z" />
<glyph unicode="&#xb9;" horiz-adv-x="157" d="M107 719v-289q0 -8 -8 -8t-8 8v275l-63 -42q-5 -3 -7 -3q-7 0 -7 7q0 4 4 7l74 50q6 3 7 3q8 0 8 -8z" />
<glyph unicode="&#xba;" horiz-adv-x="333" d="M166 376q118 0 118 148t-118 148t-118 -148t118 -148zM166 687q135 0 135 -163t-135 -163t-135 163t135 163zM298 277h-264q-8 0 -8 8t8 8h264q8 0 8 -8t-8 -8z" />
<glyph unicode="&#xbb;" horiz-adv-x="464" d="M401 212q0 -4 -6 -10l-177 -205q-3 -3 -6 -3q-8 0 -8 8q0 4 4 8l175 202l-175 202q-4 4 -4 8q0 8 8 8q3 0 6 -3l177 -205q6 -6 6 -10zM261 212q0 -4 -6 -10l-177 -205q-3 -3 -6 -3q-8 0 -8 8q0 4 4 8l175 202l-175 202q-4 4 -4 8q0 8 8 8q3 0 6 -3l177 -205q6 -6 6 -10z " />
<glyph unicode="&#xbc;" horiz-adv-x="469" d="M365 664l-258 -665q-3 -7 -9 -7q-9 0 -9 9q0 2 2 8l258 665q3 7 9 7q9 0 9 -9q0 -2 -2 -8zM135 676v-289q0 -8 -8 -8t-8 8v275l-63 -42q-4 -3 -7 -3q-7 0 -7 7q0 4 4 7l74 50q6 3 7 3q8 0 8 -8zM236 82h132v184zM384 82h31q7 0 7 -7t-7 -7h-31v-68q0 -8 -8 -8t-8 8v68 h-146q-7 0 -7 7q0 2 4 8l149 208q4 6 8 6q8 0 8 -8v-207z" />
<glyph unicode="&#xbd;" horiz-adv-x="510" d="M135 676v-289q0 -8 -8 -8t-8 8v275l-63 -42q-4 -3 -7 -3q-7 0 -7 7q0 4 4 7l74 50q6 3 7 3q8 0 8 -8zM365 664l-258 -665q-3 -7 -9 -7q-9 0 -9 9q0 2 2 8l258 665q3 7 9 7q9 0 9 -9q0 -2 -2 -8zM468 0h-181q-7 0 -7 7q0 32 18.5 56.5t45 40t53 30.5t45 37t18.5 50 q0 30 -20 50t-61 20q-57 0 -73 -48q-2 -6 -8 -6q-7 0 -7 7q0 2 1 5q19 56 87 56q48 0 72.5 -23t24.5 -61q0 -30 -18.5 -54t-45 -40t-53 -31t-45 -36t-18.5 -46h172q7 0 7 -7t-7 -7z" />
<glyph unicode="&#xbe;" horiz-adv-x="523" d="M194 667h-145q-7 0 -7 7t7 7h159q7 0 7 -7q0 -4 -3 -7l-92 -106h11q51 0 74.5 -26.5t23.5 -66.5q0 -92 -108 -92q-64 0 -93 48q-2 4 -2 7q0 7 7 7q4 0 7 -5q27 -43 81 -43q92 0 92 78q0 79 -84 79h-23q-7 0 -7 7q0 3 3 6zM419 664l-258 -665q-3 -7 -9 -7q-9 0 -9 9 q0 2 2 8l258 665q3 7 9 7q9 0 9 -9q0 -2 -2 -8zM290 82h132v184zM438 82h31q7 0 7 -7t-7 -7h-31v-68q0 -8 -8 -8t-8 8v68h-146q-7 0 -7 7q0 2 4 8l149 208q4 6 8 6q8 0 8 -8v-207z" />
<glyph unicode="&#xbf;" horiz-adv-x="461" d="M397 -53q0 9 9 9t9 -9q0 -82 -44.5 -128t-135.5 -46q-89 0 -138.5 46.5t-49.5 125.5q0 55 23 96.5t56 66.5t66 46.5t56 49.5t23 62q0 38 -25 63q-4 4 -4 9q0 9 9 9q4 0 9 -5q29 -29 29 -76q0 -32 -16.5 -58.5t-41.5 -44t-54 -39.5t-54 -43.5t-41.5 -56.5t-16.5 -79 q0 -71 44 -113.5t126 -42.5q162 0 162 158zM259 468q17 0 17 -19q0 -20 -17 -20t-17 20q0 19 17 19z" />
<glyph unicode="&#xc0;" horiz-adv-x="604" d="M468 222h-332l-87 -223q-3 -7 -9 -7q-9 0 -9 8q0 3 1 5l263 671q2 5 7 5t7 -5l263 -671q1 -2 1 -5q0 -8 -9 -8q-6 0 -9 7zM462 238l-160 411l-160 -411h320zM220 858q8 7 15 -2l101 -119q5 -5 0 -10q-5 -4 -10 1l-106 114q-9 9 0 16z" />
<glyph unicode="&#xc1;" horiz-adv-x="604" d="M468 222h-332l-87 -223q-3 -7 -9 -7q-9 0 -9 8q0 3 1 5l263 671q2 5 7 5t7 -5l263 -671q1 -2 1 -5q0 -8 -9 -8q-6 0 -9 7zM462 238l-160 411l-160 -411h320zM375 858q9 -7 0 -16l-106 -114q-5 -5 -10 -1q-5 5 0 10l101 119q7 9 15 2z" />
<glyph unicode="&#xc2;" horiz-adv-x="604" d="M468 222h-332l-87 -223q-3 -7 -9 -7q-9 0 -9 8q0 3 1 5l263 671q2 5 7 5t7 -5l263 -671q1 -2 1 -5q0 -8 -9 -8q-6 0 -9 7zM462 238l-160 411l-160 -411h320zM402 745l-100 80l-100 -80q-3 -3 -7 -3q-8 0 -8 8q0 4 5 8l101 80q5 4 9 4t9 -4l101 -80q5 -4 5 -8q0 -8 -8 -8 q-4 0 -7 3z" />
<glyph unicode="&#xc3;" horiz-adv-x="604" d="M468 222h-332l-87 -223q-3 -7 -9 -7q-9 0 -9 8q0 3 1 5l263 671q2 5 7 5t7 -5l263 -671q1 -2 1 -5q0 -8 -9 -8q-6 0 -9 7zM462 238l-160 411l-160 -411h320zM366 756q35 0 52 34q4 8 10 8q8 0 8 -8q0 -3 -2 -7q-20 -43 -68 -43q-28 0 -66.5 21t-61.5 21q-35 0 -52 -34 q-4 -8 -10 -8q-8 0 -8 8q0 3 2 7q20 43 68 43q28 0 66 -21t62 -21z" />
<glyph unicode="&#xc4;" horiz-adv-x="604" d="M468 222h-332l-87 -223q-3 -7 -9 -7q-9 0 -9 8q0 3 1 5l263 671q2 5 7 5t7 -5l263 -671q1 -2 1 -5q0 -8 -9 -8q-6 0 -9 7zM462 238l-160 411l-160 -411h320zM241 748q-15 0 -15 16t15 16t15 -16t-15 -16zM363 748q-15 0 -15 16t15 16t15 -16t-15 -16z" />
<glyph unicode="&#xc5;" horiz-adv-x="604" d="M468 222h-332l-87 -223q-3 -7 -9 -7q-9 0 -9 8q0 3 1 5l263 671q2 5 7 5t7 -5l263 -671q1 -2 1 -5q0 -8 -9 -8q-6 0 -9 7zM462 238l-160 411l-160 -411h320zM302 721q84 0 84 80t-84 80t-84 -80t84 -80zM302 706q-100 0 -100 95t100 95t100 -95t-100 -95z" />
<glyph unicode="&#xc6;" horiz-adv-x="832" d="M437 331v-315h344q8 0 8 -8t-8 -8h-353q-9 0 -9 9v213h-252l-138 -224q-4 -6 -9 -6q-9 0 -9 9q0 3 4 9l405 657q4 6 10 6h339q8 0 8 -8t-8 -8h-332v-310h261q8 0 8 -8t-8 -8h-261zM176 238h243v395z" />
<glyph unicode="&#xc7;" horiz-adv-x="629" d="M443 -139q0 -38 -22 -60.5t-66 -22.5q-38 0 -59 18q-3 3 -3 6q0 7 7 7q2 0 7 -3q20 -14 48 -14q73 0 73 69q0 33 -19 48t-46 15q-12 0 -23 -2.5t-12 -2.5q-8 0 -8 9l3 59q-134 8 -204 95t-70 254q0 176 77 263.5t224 87.5q71 0 129.5 -27t92.5 -75q2 -3 2 -6q0 -9 -9 -9 q-5 0 -8 4q-29 43 -86 70t-121 27q-139 0 -211 -84.5t-72 -250.5q0 -165 72 -249.5t211 -84.5q65 0 124 27t88 70q3 4 8 4q9 0 9 -9q0 -3 -2 -6q-34 -47 -95 -74.5t-132 -27.5h-13l-4 -54q14 5 30 5q80 0 80 -76z" />
<glyph unicode="&#xc8;" d="M113 331v-315h344q8 0 8 -8t-8 -8h-354q-8 0 -8 9v655q0 9 8 9h342q8 0 8 -8t-8 -8h-332v-310h261q8 0 8 -8t-8 -8h-261zM219 858q8 7 15 -2l101 -119q5 -5 0 -10q-5 -4 -10 1l-106 114q-9 9 0 16z" />
<glyph unicode="&#xc9;" d="M113 331v-315h344q8 0 8 -8t-8 -8h-354q-8 0 -8 9v655q0 9 8 9h342q8 0 8 -8t-8 -8h-332v-310h261q8 0 8 -8t-8 -8h-261zM343 858q9 -7 0 -16l-106 -114q-5 -5 -10 -1q-5 5 0 10l101 119q7 9 15 2z" />
<glyph unicode="&#xca;" d="M113 331v-315h344q8 0 8 -8t-8 -8h-354q-8 0 -8 9v655q0 9 8 9h342q8 0 8 -8t-8 -8h-332v-310h261q8 0 8 -8t-8 -8h-261zM381 745l-100 80l-100 -80q-3 -3 -7 -3q-8 0 -8 8q0 4 5 8l101 80q5 4 9 4t9 -4l101 -80q5 -4 5 -8q0 -8 -8 -8q-4 0 -7 3z" />
<glyph unicode="&#xcb;" horiz-adv-x="507" d="M113 331v-315h344q8 0 8 -8t-8 -8h-354q-8 0 -8 9v655q0 9 8 9h342q8 0 8 -8t-8 -8h-332v-310h261q8 0 8 -8t-8 -8h-261zM220 748q-15 0 -15 16t15 16t15 -16t-15 -16zM342 748q-15 0 -15 16t15 16t15 -16t-15 -16z" />
<glyph unicode="&#xcc;" horiz-adv-x="212" d="M108 672v-671q0 -9 -9 -9t-9 9v671q0 9 9 9t9 -9zM19 858q8 7 15 -2l101 -119q5 -5 0 -10q-5 -4 -10 1l-106 114q-9 9 0 16z" />
<glyph unicode="&#xcd;" horiz-adv-x="208" d="M113 672v-671q0 -9 -9 -9t-9 9v671q0 9 9 9t9 -9zM192 858q9 -7 0 -16l-106 -114q-5 -5 -10 -1q-5 5 0 10l101 119q7 9 15 2z" />
<glyph unicode="&#xce;" horiz-adv-x="208" d="M113 672v-671q0 -9 -9 -9t-9 9v671q0 9 9 9t9 -9zM204 744l-100 80l-100 -80q-3 -3 -7 -3q-8 0 -8 8q0 4 5 8l101 80q5 4 9 4t9 -4l101 -80q5 -4 5 -8q0 -8 -8 -8q-4 0 -7 3z" />
<glyph unicode="&#xcf;" horiz-adv-x="208" d="M113 672v-671q0 -9 -9 -9t-9 9v671q0 9 9 9t9 -9zM41 748q-15 0 -15 16t15 16t15 -16t-15 -16zM163 748q-15 0 -15 16t15 16t15 -16t-15 -16z" />
<glyph unicode="&#xd0;" horiz-adv-x="603" d="M251 0h-147q-9 0 -9 9v333h-58q-8 0 -8 8t8 8h58v306q0 9 9 9h147q149 0 226 -79t77 -258t-76.5 -257.5t-226.5 -78.5zM113 657v-299h239q8 0 8 -8t-8 -8h-239v-326h138q140 0 212.5 75t72.5 245q0 169 -72.5 245t-212.5 76h-138z" />
<glyph unicode="&#xd1;" horiz-adv-x="620" d="M514 32v640q0 9 9 9t9 -9v-671q0 -9 -9 -9q-6 0 -9 5l-413 644v-640q0 -9 -9 -9t-9 9v671q0 9 9 9q5 0 8 -5zM383 756q35 0 52 34q4 8 10 8q8 0 8 -8q0 -3 -2 -7q-20 -43 -68 -43q-28 0 -66.5 21t-61.5 21q-35 0 -52 -34q-4 -8 -10 -8q-8 0 -8 8q0 3 2 7q20 43 68 43 q28 0 66 -21t62 -21z" />
<glyph unicode="&#xd2;" horiz-adv-x="700" d="M350 2q139 0 211 84.5t72 249.5q0 166 -72 250.5t-211 84.5t-211 -84.5t-72 -250.5q0 -165 72 -249.5t211 -84.5zM350 687q147 0 224 -87.5t77 -263.5q0 -175 -77 -262.5t-224 -87.5t-224 87.5t-77 262.5q0 176 77 263.5t224 87.5zM281 858q8 7 15 -2l101 -119 q5 -5 0 -10q-5 -4 -10 1l-106 114q-9 9 0 16z" />
<glyph unicode="&#xd3;" horiz-adv-x="700" d="M350 2q139 0 211 84.5t72 249.5q0 166 -72 250.5t-211 84.5t-211 -84.5t-72 -250.5q0 -165 72 -249.5t211 -84.5zM350 687q147 0 224 -87.5t77 -263.5q0 -175 -77 -262.5t-224 -87.5t-224 87.5t-77 262.5q0 176 77 263.5t224 87.5zM433 858q9 -7 0 -16l-106 -114 q-5 -5 -10 -1q-5 5 0 10l101 119q7 9 15 2z" />
<glyph unicode="&#xd4;" horiz-adv-x="700" d="M350 2q139 0 211 84.5t72 249.5q0 166 -72 250.5t-211 84.5t-211 -84.5t-72 -250.5q0 -165 72 -249.5t211 -84.5zM350 687q147 0 224 -87.5t77 -263.5q0 -175 -77 -262.5t-224 -87.5t-224 87.5t-77 262.5q0 176 77 263.5t224 87.5zM450 745l-100 80l-100 -80q-3 -3 -7 -3 q-8 0 -8 8q0 4 5 8l101 80q5 4 9 4t9 -4l101 -80q5 -4 5 -8q0 -8 -8 -8q-4 0 -7 3z" />
<glyph unicode="&#xd5;" horiz-adv-x="700" d="M350 2q139 0 211 84.5t72 249.5q0 166 -72 250.5t-211 84.5t-211 -84.5t-72 -250.5q0 -165 72 -249.5t211 -84.5zM350 687q147 0 224 -87.5t77 -263.5q0 -175 -77 -262.5t-224 -87.5t-224 87.5t-77 262.5q0 176 77 263.5t224 87.5zM414 756q35 0 52 34q4 8 10 8q8 0 8 -8 q0 -3 -2 -7q-20 -43 -68 -43q-28 0 -66.5 21t-61.5 21q-35 0 -52 -34q-4 -8 -10 -8q-8 0 -8 8q0 3 2 7q20 43 68 43q28 0 66 -21t62 -21z" />
<glyph unicode="&#xd6;" horiz-adv-x="700" d="M350 2q139 0 211 84.5t72 249.5q0 166 -72 250.5t-211 84.5t-211 -84.5t-72 -250.5q0 -165 72 -249.5t211 -84.5zM350 687q147 0 224 -87.5t77 -263.5q0 -175 -77 -262.5t-224 -87.5t-224 87.5t-77 262.5q0 176 77 263.5t224 87.5zM292 748q-15 0 -15 16t15 16t15 -16 t-15 -16zM414 748q-15 0 -15 16t15 16t15 -16t-15 -16z" />
<glyph unicode="&#xd7;" horiz-adv-x="343" d="M184 218l155 -153q4 -3 4 -7q0 -9 -9 -9q-4 0 -7 3l-156 153l-155 -153q-3 -3 -7 -3q-9 0 -9 9q0 4 4 7l155 153l-155 153q-4 3 -4 7q0 9 9 9q4 0 7 -3l155 -154l156 154q3 3 7 3q9 0 9 -9q0 -4 -4 -7z" />
<glyph unicode="&#xd8;" horiz-adv-x="700" d="M350 687q131 0 208 -71l61 77q3 4 8 4q7 0 7 -7q0 -4 -3 -7l-62 -79q82 -88 82 -268q0 -175 -77 -262.5t-224 -87.5q-134 0 -209 72l-62 -79q-3 -3 -7 -3q-7 0 -7 7q0 4 3 7l62 79q-81 89 -81 267q0 176 77 263.5t224 87.5zM350 2q139 0 211 84.5t72 249.5q0 168 -75 254 l-406 -518q70 -70 198 -70zM67 336q0 -168 74 -253l406 518q-72 70 -197 70q-139 0 -211 -84.5t-72 -250.5z" />
<glyph unicode="&#xd9;" horiz-adv-x="625" d="M522 186v486q0 9 9 9t9 -9v-486q0 -44 -9 -77t-32 -62.5t-68.5 -45t-111.5 -15.5t-112 16t-69.5 45t-33 62.5t-9.5 76.5v486q0 9 9 9t9 -9v-486q0 -41 8.5 -71.5t30 -57.5t64 -41t103.5 -14q117 0 160 48.5t43 135.5zM262 858q8 7 15 -2l101 -119q5 -5 0 -10q-5 -4 -10 1 l-106 114q-9 9 0 16z" />
<glyph unicode="&#xda;" horiz-adv-x="625" d="M522 186v486q0 9 9 9t9 -9v-486q0 -44 -9 -77t-32 -62.5t-68.5 -45t-111.5 -15.5t-112 16t-69.5 45t-33 62.5t-9.5 76.5v486q0 9 9 9t9 -9v-486q0 -41 8.5 -71.5t30 -57.5t64 -41t103.5 -14q117 0 160 48.5t43 135.5zM390 858q9 -7 0 -16l-106 -114q-5 -5 -10 -1 q-5 5 0 10l101 119q7 9 15 2z" />
<glyph unicode="&#xdb;" horiz-adv-x="625" d="M522 186v486q0 9 9 9t9 -9v-486q0 -44 -9 -77t-32 -62.5t-68.5 -45t-111.5 -15.5t-112 16t-69.5 45t-33 62.5t-9.5 76.5v486q0 9 9 9t9 -9v-486q0 -41 8.5 -71.5t30 -57.5t64 -41t103.5 -14q117 0 160 48.5t43 135.5zM423 745l-100 80l-100 -80q-3 -3 -7 -3q-8 0 -8 8 q0 4 5 8l101 80q5 4 9 4t9 -4l101 -80q5 -4 5 -8q0 -8 -8 -8q-4 0 -7 3z" />
<glyph unicode="&#xdc;" horiz-adv-x="625" d="M522 186v486q0 9 9 9t9 -9v-486q0 -44 -9 -77t-32 -62.5t-68.5 -45t-111.5 -15.5t-112 16t-69.5 45t-33 62.5t-9.5 76.5v486q0 9 9 9t9 -9v-486q0 -41 8.5 -71.5t30 -57.5t64 -41t103.5 -14q117 0 160 48.5t43 135.5zM257 748q-15 0 -15 16t15 16t15 -16t-15 -16z M379 748q-15 0 -15 16t15 16t15 -16t-15 -16z" />
<glyph unicode="&#xdd;" d="M254 344l209 332q3 5 8 5q9 0 9 -9q0 -3 -2 -6l-215 -341v-324q0 -9 -9 -9t-9 9v324l-215 341q-2 3 -2 6q0 9 9 9q5 0 8 -5zM333 858q9 -7 0 -16l-106 -114q-5 -5 -10 -1q-5 5 0 10l101 119q7 9 15 2z" />
<glyph unicode="&#xde;" horiz-adv-x="534" d="M113 162v-161q0 -9 -9 -9t-9 9v671q0 9 9 9t9 -9v-134h193q82 0 130.5 -48t48.5 -140q0 -91 -48.5 -139.5t-130.5 -48.5h-193zM113 522v-344h193q75 0 118 46.5t43 125.5q0 81 -42.5 126.5t-118.5 45.5h-193z" />
<glyph unicode="&#xdf;" horiz-adv-x="520" d="M98 518v-517q0 -9 -9 -9t-9 9v517q0 77 36 122t110 45q55 0 90.5 -32.5t35.5 -80.5q0 -29 -12 -51.5t-30 -36.5t-38.5 -28.5t-38.5 -26.5t-30 -31t-12 -42q0 -38 29.5 -62t72 -37.5t85 -28.5t72 -44t29.5 -73q0 -61 -43.5 -92.5t-116.5 -31.5q-101 0 -164 68q-3 3 -3 6 q0 8 8 8q3 0 7 -4q60 -62 152 -62q65 0 103.5 27.5t38.5 80.5q0 40 -29.5 66.5t-72 40.5l-85 28t-72 41t-29.5 69q0 31 16.5 54t40.5 38t47.5 30t40 39t16.5 55q0 44 -31 70.5t-77 26.5q-64 0 -96 -39.5t-32 -111.5z" />
<glyph unicode="&#xe0;" horiz-adv-x="462" d="M392 311v-310q0 -8 -9 -8q-8 0 -8 8v73q-19 -43 -65 -64.5t-104 -21.5q-81 0 -123.5 37t-42.5 99q0 65 45.5 100t122.5 35h167v52q0 68 -39.5 104.5t-109.5 36.5q-101 0 -143 -72q-3 -6 -9 -6q-8 0 -8 8q0 4 3 8q48 78 157 78q81 0 123.5 -42t42.5 -115zM206 4 q71 0 120 34t49 100v106h-167q-68 0 -109 -31.5t-41 -88.5q0 -56 38.5 -88t109.5 -32zM170 655q8 7 15 -2l101 -119q5 -5 0 -10q-5 -4 -10 1l-106 114q-9 9 0 16z" />
<glyph unicode="&#xe1;" horiz-adv-x="462" d="M392 311v-310q0 -8 -9 -8q-8 0 -8 8v73q-19 -43 -65 -64.5t-104 -21.5q-81 0 -123.5 37t-42.5 99q0 65 45.5 100t122.5 35h167v52q0 68 -39.5 104.5t-109.5 36.5q-101 0 -143 -72q-3 -6 -9 -6q-8 0 -8 8q0 4 3 8q48 78 157 78q81 0 123.5 -42t42.5 -115zM206 4 q71 0 120 34t49 100v106h-167q-68 0 -109 -31.5t-41 -88.5q0 -56 38.5 -88t109.5 -32zM305 655q9 -7 0 -16l-106 -114q-5 -5 -10 -1q-5 5 0 10l101 119q7 9 15 2z" />
<glyph unicode="&#xe2;" horiz-adv-x="462" d="M392 311v-310q0 -8 -9 -8q-8 0 -8 8v73q-19 -43 -65 -64.5t-104 -21.5q-81 0 -123.5 37t-42.5 99q0 65 45.5 100t122.5 35h167v52q0 68 -39.5 104.5t-109.5 36.5q-101 0 -143 -72q-3 -6 -9 -6q-8 0 -8 8q0 4 3 8q48 78 157 78q81 0 123.5 -42t42.5 -115zM206 4 q71 0 120 34t49 100v106h-167q-68 0 -109 -31.5t-41 -88.5q0 -56 38.5 -88t109.5 -32zM333 553l-100 80l-100 -80q-3 -3 -7 -3q-8 0 -8 8q0 4 5 8l101 80q5 4 9 4t9 -4l101 -80q5 -4 5 -8q0 -8 -8 -8q-4 0 -7 3z" />
<glyph unicode="&#xe3;" horiz-adv-x="462" d="M392 311v-310q0 -8 -9 -8q-8 0 -8 8v73q-19 -43 -65 -64.5t-104 -21.5q-81 0 -123.5 37t-42.5 99q0 65 45.5 100t122.5 35h167v52q0 68 -39.5 104.5t-109.5 36.5q-101 0 -143 -72q-3 -6 -9 -6q-8 0 -8 8q0 4 3 8q48 78 157 78q81 0 123.5 -42t42.5 -115zM206 4 q71 0 120 34t49 100v106h-167q-68 0 -109 -31.5t-41 -88.5q0 -56 38.5 -88t109.5 -32zM289 560q35 0 52 34q4 8 10 8q8 0 8 -8q0 -3 -2 -7q-20 -43 -68 -43q-28 0 -66.5 21t-61.5 21q-35 0 -52 -34q-4 -8 -10 -8q-8 0 -8 8q0 3 2 7q20 43 68 43q28 0 66 -21t62 -21z" />
<glyph unicode="&#xe4;" horiz-adv-x="462" d="M392 311v-310q0 -8 -9 -8q-8 0 -8 8v73q-19 -43 -65 -64.5t-104 -21.5q-81 0 -123.5 37t-42.5 99q0 65 45.5 100t122.5 35h167v52q0 68 -39.5 104.5t-109.5 36.5q-101 0 -143 -72q-3 -6 -9 -6q-8 0 -8 8q0 4 3 8q48 78 157 78q81 0 123.5 -42t42.5 -115zM206 4 q71 0 120 34t49 100v106h-167q-68 0 -109 -31.5t-41 -88.5q0 -56 38.5 -88t109.5 -32zM170 551q-15 0 -15 16t15 16t15 -16t-15 -16zM292 551q-15 0 -15 16t15 16t15 -16t-15 -16z" />
<glyph unicode="&#xe5;" horiz-adv-x="462" d="M392 311v-310q0 -8 -9 -8q-8 0 -8 8v73q-19 -43 -65 -64.5t-104 -21.5q-81 0 -123.5 37t-42.5 99q0 65 45.5 100t122.5 35h167v52q0 68 -39.5 104.5t-109.5 36.5q-101 0 -143 -72q-3 -6 -9 -6q-8 0 -8 8q0 4 3 8q48 78 157 78q81 0 123.5 -42t42.5 -115zM206 4 q71 0 120 34t49 100v106h-167q-68 0 -109 -31.5t-41 -88.5q0 -56 38.5 -88t109.5 -32zM231 520q84 0 84 80t-84 80t-84 -80t84 -80zM231 505q-100 0 -100 95t100 95t100 -95t-100 -95z" />
<glyph unicode="&#xe6;" horiz-adv-x="796" d="M226 468q71 0 112.5 -33t50.5 -91q38 124 185 124q47 0 82.5 -14t54 -34.5t29.5 -49t14 -50.5t3 -46q0 -37 -19 -37h-345q0 -234 181 -234q84 0 152 49q6 4 8 4q8 0 8 -8q0 -3 -3 -6q-68 -55 -165 -55q-78 0 -125 39.5t-60 105.5q-10 -64 -55 -104t-128 -40 q-81 0 -123.5 36t-42.5 97q0 64 45.5 98t122.5 34h167v58q0 68 -39.5 104.5t-109.5 36.5q-97 0 -141 -75q-3 -6 -9 -6q-8 0 -8 8q0 3 3 8q50 81 155 81zM206 4q72 0 120.5 39t48.5 118v77h-167q-68 0 -109 -30.5t-41 -86.5q0 -55 38 -86t110 -31zM740 277q0 175 -166 175 q-180 0 -180 -199h345q1 16 1 24z" />
<glyph unicode="&#xe7;" horiz-adv-x="443" d="M333 -139q0 -38 -22 -60.5t-66 -22.5q-38 0 -59 18q-3 3 -3 6q0 7 7 7q2 0 7 -3q20 -14 48 -14q73 0 73 69q0 33 -19 48t-46 15q-12 0 -23 -2.5t-12 -2.5q-8 0 -8 9l3 61q-168 17 -168 238q0 241 199 241q93 0 141 -54q4 -4 4 -7q0 -8 -8 -8q-4 0 -7 3q-50 50 -130 50 q-181 0 -181 -225q0 -224 181 -224q74 0 137 50q5 3 7 3q8 0 8 -8q0 -4 -5 -8q-67 -53 -147 -53q-12 0 -17 1l-4 -56q14 5 30 5q80 0 80 -76z" />
<glyph unicode="&#xe8;" horiz-adv-x="466" d="M45 228q0 240 199 240q183 0 183 -191q0 -21 -3 -39q-2 -12 -16 -12h-345q0 -223 181 -223q84 0 152 49q6 4 8 4q8 0 8 -8q0 -3 -3 -6q-68 -55 -165 -55q-199 0 -199 241zM410 277q0 175 -166 175q-89 0 -134.5 -54t-45.5 -156h345q1 27 1 35zM176 655q8 7 15 -2 l101 -119q5 -5 0 -10q-5 -4 -10 1l-106 114q-9 9 0 16z" />
<glyph unicode="&#xe9;" horiz-adv-x="466" d="M45 228q0 240 199 240q183 0 183 -191q0 -21 -3 -39q-2 -12 -16 -12h-345q0 -223 181 -223q84 0 152 49q6 4 8 4q8 0 8 -8q0 -3 -3 -6q-68 -55 -165 -55q-199 0 -199 241zM410 277q0 175 -166 175q-89 0 -134.5 -54t-45.5 -156h345q1 27 1 35zM322 655q9 -7 0 -16 l-106 -114q-5 -5 -10 -1q-5 5 0 10l101 119q7 9 15 2z" />
<glyph unicode="&#xea;" horiz-adv-x="466" d="M45 228q0 240 199 240q183 0 183 -191q0 -21 -3 -39q-2 -12 -16 -12h-345q0 -223 181 -223q84 0 152 49q6 4 8 4q8 0 8 -8q0 -3 -3 -6q-68 -55 -165 -55q-199 0 -199 241zM410 277q0 175 -166 175q-89 0 -134.5 -54t-45.5 -156h345q1 27 1 35zM349 553l-100 80l-100 -80 q-3 -3 -7 -3q-8 0 -8 8q0 4 5 8l101 80q5 4 9 4t9 -4l101 -80q5 -4 5 -8q0 -8 -8 -8q-4 0 -7 3z" />
<glyph unicode="&#xeb;" horiz-adv-x="466" d="M45 228q0 240 199 240q183 0 183 -191q0 -21 -3 -39q-2 -12 -16 -12h-345q0 -223 181 -223q84 0 152 49q6 4 8 4q8 0 8 -8q0 -3 -3 -6q-68 -55 -165 -55q-199 0 -199 241zM410 277q0 175 -166 175q-89 0 -134.5 -54t-45.5 -156h345q1 27 1 35zM188 551q-15 0 -15 16 t15 16t15 -16t-15 -16zM310 551q-15 0 -15 16t15 16t15 -16t-15 -16z" />
<glyph unicode="&#xec;" horiz-adv-x="178" d="M98 453v-452q0 -9 -9 -9t-9 9v452q0 9 9 9t9 -9zM1 655q8 7 15 -2l101 -119q5 -5 0 -10q-5 -4 -10 1l-106 114q-9 9 0 16z" />
<glyph unicode="&#xed;" horiz-adv-x="178" d="M98 453v-452q0 -9 -9 -9t-9 9v452q0 9 9 9t9 -9zM181 655q9 -7 0 -16l-106 -114q-5 -5 -10 -1q-5 5 0 10l101 119q7 9 15 2z" />
<glyph unicode="&#xee;" horiz-adv-x="178" d="M98 453v-452q0 -9 -9 -9t-9 9v452q0 9 9 9t9 -9zM188 553l-100 80l-100 -80q-3 -3 -7 -3q-8 0 -8 8q0 4 5 8l101 80q5 4 9 4t9 -4l101 -80q5 -4 5 -8q0 -8 -8 -8q-4 0 -7 3z" />
<glyph unicode="&#xef;" horiz-adv-x="178" d="M98 453v-452q0 -9 -9 -9t-9 9v452q0 9 9 9t9 -9zM27 551q-15 0 -15 16t15 16t15 -16t-15 -16zM149 551q-15 0 -15 16t15 16t15 -16t-15 -16z" />
<glyph unicode="&#xf0;" horiz-adv-x="491" d="M244 -13q-199 0 -199 240q0 241 199 241q125 0 171 -96q-14 64 -46 127.5t-67 101.5l-77 -50l-5 -2q-8 0 -8 8q0 5 6 9l73 47q-48 51 -112 83q-6 3 -6 9q0 7 7 7q4 0 8 -2q63 -32 117 -87l62 40q3 2 6 2q7 0 7 -7q0 -5 -5 -9l-59 -38q63 -74 95 -164t32 -220 q0 -240 -199 -240zM244 3q181 0 181 224q0 225 -181 225t-181 -225q0 -224 181 -224z" />
<glyph unicode="&#xf1;" horiz-adv-x="500" d="M98 453v-90q12 41 54 73t108 32q51 0 86 -14t52.5 -40.5t24.5 -55.5t7 -67v-290q0 -9 -9 -9t-9 9v299q0 151 -152 151q-77 0 -119.5 -46.5t-42.5 -108.5v-295q0 -9 -9 -9t-9 9v452q0 9 9 9t9 -9zM322 560q35 0 52 34q4 8 10 8q8 0 8 -8q0 -3 -2 -7q-20 -43 -68 -43 q-28 0 -66.5 21t-61.5 21q-35 0 -52 -34q-4 -8 -10 -8q-8 0 -8 8q0 3 2 7q20 43 68 43q28 0 66 -21t62 -21z" />
<glyph unicode="&#xf2;" horiz-adv-x="488" d="M242 3q181 0 181 224q0 225 -181 225t-181 -225q0 -224 181 -224zM242 -13q-199 0 -199 240q0 241 199 241t199 -241q0 -240 -199 -240zM188 655q8 7 15 -2l101 -119q5 -5 0 -10q-5 -4 -10 1l-106 114q-9 9 0 16z" />
<glyph unicode="&#xf3;" horiz-adv-x="488" d="M242 3q181 0 181 224q0 225 -181 225t-181 -225q0 -224 181 -224zM242 -13q-199 0 -199 240q0 241 199 241t199 -241q0 -240 -199 -240zM328 655q9 -7 0 -16l-106 -114q-5 -5 -10 -1q-5 5 0 10l101 119q7 9 15 2z" />
<glyph unicode="&#xf4;" horiz-adv-x="488" d="M242 3q181 0 181 224q0 225 -181 225t-181 -225q0 -224 181 -224zM242 -13q-199 0 -199 240q0 241 199 241t199 -241q0 -240 -199 -240zM345 553l-100 80l-100 -80q-3 -3 -7 -3q-8 0 -8 8q0 4 5 8l101 80q5 4 9 4t9 -4l101 -80q5 -4 5 -8q0 -8 -8 -8q-4 0 -7 3z" />
<glyph unicode="&#xf5;" horiz-adv-x="488" d="M242 3q181 0 181 224q0 225 -181 225t-181 -225q0 -224 181 -224zM242 -13q-199 0 -199 240q0 241 199 241t199 -241q0 -240 -199 -240zM310 560q35 0 52 34q4 8 10 8q8 0 8 -8q0 -3 -2 -7q-20 -43 -68 -43q-28 0 -66.5 21t-61.5 21q-35 0 -52 -34q-4 -8 -10 -8 q-8 0 -8 8q0 3 2 7q20 43 68 43q28 0 66 -21t62 -21z" />
<glyph unicode="&#xf6;" horiz-adv-x="488" d="M242 3q181 0 181 224q0 225 -181 225t-181 -225q0 -224 181 -224zM242 -13q-199 0 -199 240q0 241 199 241t199 -241q0 -240 -199 -240zM183 551q-15 0 -15 16t15 16t15 -16t-15 -16zM305 551q-15 0 -15 16t15 16t15 -16t-15 -16z" />
<glyph unicode="&#xf7;" horiz-adv-x="444" d="M240 340q0 -8 -5 -13t-13 -5t-13 5t-5 13t5 13t13 5t13 -5t5 -13zM240 96q0 -8 -5 -13.5t-13 -5.5t-13 5.5t-5 13.5q0 7 5.5 12.5t12.5 5.5t12.5 -5.5t5.5 -12.5zM8 226h428q8 0 8 -8t-8 -8h-428q-8 0 -8 8t8 8z" />
<glyph unicode="&#xf8;" horiz-adv-x="488" d="M244 -13q-101 0 -151 62l-47 -51q-3 -3 -7 -3q-9 0 -9 9q0 4 4 7l49 52q-38 59 -38 164q0 241 199 241q103 0 154 -67l52 56q3 3 7 3q9 0 9 -9q0 -4 -4 -7l-54 -58q35 -58 35 -159q0 -240 -199 -240zM63 227q0 -95 32 -150l291 311q-45 64 -142 64q-181 0 -181 -225z M244 3q181 0 181 224q0 92 -30 146l-290 -311q44 -59 139 -59z" />
<glyph unicode="&#xf9;" horiz-adv-x="490" d="M245 4q157 0 157 151v298q0 9 9 9t9 -9v-289q0 -177 -175 -177t-175 177v289q0 9 9 9t9 -9v-298q0 -151 157 -151zM179 655q8 7 15 -2l101 -119q5 -5 0 -10q-5 -4 -10 1l-106 114q-9 9 0 16z" />
<glyph unicode="&#xfa;" horiz-adv-x="490" d="M245 4q157 0 157 151v298q0 9 9 9t9 -9v-289q0 -177 -175 -177t-175 177v289q0 9 9 9t9 -9v-298q0 -151 157 -151zM327 655q9 -7 0 -16l-106 -114q-5 -5 -10 -1q-5 5 0 10l101 119q7 9 15 2z" />
<glyph unicode="&#xfb;" horiz-adv-x="490" d="M245 4q157 0 157 151v298q0 9 9 9t9 -9v-289q0 -177 -175 -177t-175 177v289q0 9 9 9t9 -9v-298q0 -151 157 -151zM351 553l-100 80l-100 -80q-3 -3 -7 -3q-8 0 -8 8q0 4 5 8l101 80q5 4 9 4t9 -4l101 -80q5 -4 5 -8q0 -8 -8 -8q-4 0 -7 3z" />
<glyph unicode="&#xfc;" horiz-adv-x="490" d="M245 4q157 0 157 151v298q0 9 9 9t9 -9v-289q0 -177 -175 -177t-175 177v289q0 9 9 9t9 -9v-298q0 -151 157 -151zM186 551q-15 0 -15 16t15 16t15 -16t-15 -16zM308 551q-15 0 -15 16t15 16t15 -16t-15 -16z" />
<glyph unicode="&#xfd;" horiz-adv-x="428" d="M25 -201q-8 0 -8 8t8 8q75 0 105.5 35t74.5 149l-179 447q-2 6 -2 7q0 9 9 9q6 0 9 -7l172 -435l172 435q3 7 9 7q9 0 9 -9q0 -1 -2 -7l-207 -516q-30 -75 -66 -103t-104 -28zM301 655q9 -7 0 -16l-106 -114q-5 -5 -10 -1q-5 5 0 10l101 119q7 9 15 2z" />
<glyph unicode="&#xfe;" horiz-adv-x="505" d="M80 -192v895q0 9 9 9t9 -9v-354q36 119 170 119q192 0 192 -241q0 -240 -192 -240q-40 0 -72.5 12.5t-49.5 30t-29 34.5t-15 30l-4 12v-298q0 -9 -9 -9t-9 9zM96 228q0 -112 44 -168.5t128 -56.5q174 0 174 224q0 225 -174 225q-172 0 -172 -224z" />
<glyph unicode="&#xff;" horiz-adv-x="428" d="M25 -201q-8 0 -8 8t8 8q75 0 105.5 35t74.5 149l-179 447q-2 6 -2 7q0 9 9 9q6 0 9 -7l172 -435l172 435q3 7 9 7q9 0 9 -9q0 -1 -2 -7l-207 -516q-30 -75 -66 -103t-104 -28zM152 551q-15 0 -15 16t15 16t15 -16t-15 -16zM274 551q-15 0 -15 16t15 16t15 -16t-15 -16z " />
<glyph unicode="&#x100;" horiz-adv-x="604" d="M468 222h-332l-87 -223q-3 -7 -9 -7q-9 0 -9 8q0 3 1 5l263 671q2 5 7 5t7 -5l263 -671q1 -2 1 -5q0 -8 -9 -8q-6 0 -9 7zM462 238l-160 411l-160 -411h320zM407 755h-210q-8 0 -8 8t8 8h210q8 0 8 -8t-8 -8z" />
<glyph unicode="&#x101;" horiz-adv-x="462" d="M392 311v-310q0 -8 -9 -8q-8 0 -8 8v73q-19 -43 -65 -64.5t-104 -21.5q-81 0 -123.5 37t-42.5 99q0 65 45.5 100t122.5 35h167v52q0 68 -39.5 104.5t-109.5 36.5q-101 0 -143 -72q-3 -6 -9 -6q-8 0 -8 8q0 4 3 8q48 78 157 78q81 0 123.5 -42t42.5 -115zM206 4 q71 0 120 34t49 100v106h-167q-68 0 -109 -31.5t-41 -88.5q0 -56 38.5 -88t109.5 -32zM330 559h-210q-8 0 -8 8t8 8h210q8 0 8 -8t-8 -8z" />
<glyph unicode="&#x102;" horiz-adv-x="604" d="M468 222h-332l-87 -223q-3 -7 -9 -7q-9 0 -9 8q0 3 1 5l263 671q2 5 7 5t7 -5l263 -671q1 -2 1 -5q0 -8 -9 -8q-6 0 -9 7zM462 238l-160 411l-160 -411h320zM302 738q-101 0 -101 87q0 8 8 8t8 -8q0 -40 21.5 -56t63.5 -16t63.5 16t21.5 56q0 8 8 8t8 -8q0 -87 -101 -87z " />
<glyph unicode="&#x103;" horiz-adv-x="462" d="M392 311v-310q0 -8 -9 -8q-8 0 -8 8v73q-19 -43 -65 -64.5t-104 -21.5q-81 0 -123.5 37t-42.5 99q0 65 45.5 100t122.5 35h167v52q0 68 -39.5 104.5t-109.5 36.5q-101 0 -143 -72q-3 -6 -9 -6q-8 0 -8 8q0 4 3 8q48 78 157 78q81 0 123.5 -42t42.5 -115zM206 4 q71 0 120 34t49 100v106h-167q-68 0 -109 -31.5t-41 -88.5q0 -56 38.5 -88t109.5 -32zM225 537q-101 0 -101 87q0 8 8 8t8 -8q0 -40 21.5 -56t63.5 -16t63.5 16t21.5 56q0 8 8 8t8 -8q0 -87 -101 -87z" />
<glyph unicode="&#x104;" horiz-adv-x="604" d="M619 -150q8 0 8 -8q0 -5 -6 -8q-26 -11 -55 -11q-42 0 -61.5 20t-19.5 51q0 67 71 102l-88 226h-332l-87 -223q-3 -7 -9 -7q-9 0 -9 8q0 3 1 5l263 671q2 5 7 5t7 -5l263 -671q1 -2 1 -5q0 -4 -7 -8q-63 -33 -63 -93t63 -60q23 0 46 9q6 2 7 2zM462 238l-160 411 l-160 -411h320z" />
<glyph unicode="&#x105;" horiz-adv-x="462" d="M437 -150q8 0 8 -8q0 -5 -6 -8q-26 -11 -55 -11q-42 0 -61.5 20t-19.5 51q0 67 72 102v78q-19 -43 -65 -64.5t-104 -21.5q-81 0 -123.5 37t-42.5 99q0 65 45.5 100t122.5 35h167v52q0 68 -39.5 104.5t-109.5 36.5q-101 0 -143 -72q-3 -6 -9 -6q-8 0 -8 8q0 4 3 8 q48 78 157 78q81 0 123.5 -42t42.5 -115v-310q0 -5 -4 -7q-67 -34 -67 -95q0 -60 63 -60q23 0 46 9q6 2 7 2zM206 4q71 0 120 34t49 100v106h-167q-68 0 -109 -31.5t-41 -88.5q0 -56 38.5 -88t109.5 -32z" />
<glyph unicode="&#x106;" horiz-adv-x="629" d="M350 -14q-147 0 -224 87.5t-77 262.5q0 176 77 263.5t224 87.5q71 0 129.5 -27t92.5 -75q2 -3 2 -6q0 -9 -9 -9q-5 0 -8 4q-29 43 -86 70t-121 27q-139 0 -211 -84.5t-72 -250.5q0 -165 72 -249.5t211 -84.5q65 0 124 27t88 70q3 4 8 4q9 0 9 -9q0 -3 -2 -6 q-34 -47 -95 -74.5t-132 -27.5zM427 858q9 -7 0 -16l-106 -114q-5 -5 -10 -1q-5 5 0 10l101 119q7 9 15 2z" />
<glyph unicode="&#x107;" horiz-adv-x="443" d="M244 452q-181 0 -181 -225q0 -224 181 -224q74 0 137 50q5 3 7 3q8 0 8 -8q0 -4 -5 -8q-67 -53 -147 -53q-199 0 -199 240q0 241 199 241q93 0 141 -54q4 -4 4 -7q0 -8 -8 -8q-4 0 -7 3q-50 50 -130 50zM301 655q9 -7 0 -16l-106 -114q-5 -5 -10 -1q-5 5 0 10l101 119 q7 9 15 2z" />
<glyph unicode="&#x108;" horiz-adv-x="629" d="M350 -14q-147 0 -224 87.5t-77 262.5q0 176 77 263.5t224 87.5q71 0 129.5 -27t92.5 -75q2 -3 2 -6q0 -9 -9 -9q-5 0 -8 4q-29 43 -86 70t-121 27q-139 0 -211 -84.5t-72 -250.5q0 -165 72 -249.5t211 -84.5q65 0 124 27t88 70q3 4 8 4q9 0 9 -9q0 -3 -2 -6 q-34 -47 -95 -74.5t-132 -27.5zM445 745l-100 80l-100 -80q-3 -3 -7 -3q-8 0 -8 8q0 4 5 8l101 80q5 4 9 4t9 -4l101 -80q5 -4 5 -8q0 -8 -8 -8q-4 0 -7 3z" />
<glyph unicode="&#x109;" horiz-adv-x="443" d="M244 452q-181 0 -181 -225q0 -224 181 -224q74 0 137 50q5 3 7 3q8 0 8 -8q0 -4 -5 -8q-67 -53 -147 -53q-199 0 -199 240q0 241 199 241q93 0 141 -54q4 -4 4 -7q0 -8 -8 -8q-4 0 -7 3q-50 50 -130 50zM345 553l-100 80l-100 -80q-3 -3 -7 -3q-8 0 -8 8q0 4 5 8l101 80 q5 4 9 4t9 -4l101 -80q5 -4 5 -8q0 -8 -8 -8q-4 0 -7 3z" />
<glyph unicode="&#x10a;" horiz-adv-x="629" d="M350 -14q-147 0 -224 87.5t-77 262.5q0 176 77 263.5t224 87.5q71 0 129.5 -27t92.5 -75q2 -3 2 -6q0 -9 -9 -9q-5 0 -8 4q-29 43 -86 70t-121 27q-139 0 -211 -84.5t-72 -250.5q0 -165 72 -249.5t211 -84.5q65 0 124 27t88 70q3 4 8 4q9 0 9 -9q0 -3 -2 -6 q-34 -47 -95 -74.5t-132 -27.5zM347 754q-18 0 -18 18t18 18t18 -18t-18 -18z" />
<glyph unicode="&#x10b;" horiz-adv-x="443" d="M244 452q-181 0 -181 -225q0 -224 181 -224q74 0 137 50q5 3 7 3q8 0 8 -8q0 -4 -5 -8q-67 -53 -147 -53q-199 0 -199 240q0 241 199 241q93 0 141 -54q4 -4 4 -7q0 -8 -8 -8q-4 0 -7 3q-50 50 -130 50zM243 553q-18 0 -18 18t18 18t18 -18t-18 -18z" />
<glyph unicode="&#x10c;" horiz-adv-x="629" d="M350 -14q-147 0 -224 87.5t-77 262.5q0 176 77 263.5t224 87.5q71 0 129.5 -27t92.5 -75q2 -3 2 -6q0 -9 -9 -9q-5 0 -8 4q-29 43 -86 70t-121 27q-139 0 -211 -84.5t-72 -250.5q0 -165 72 -249.5t211 -84.5q65 0 124 27t88 70q3 4 8 4q9 0 9 -9q0 -3 -2 -6 q-34 -47 -95 -74.5t-132 -27.5zM347 759l100 80q3 3 7 3q8 0 8 -8q0 -4 -5 -8l-101 -80q-5 -4 -9 -4t-9 4l-101 80q-5 4 -5 8q0 8 8 8q4 0 7 -3z" />
<glyph unicode="&#x10d;" horiz-adv-x="443" d="M244 452q-181 0 -181 -225q0 -224 181 -224q74 0 137 50q5 3 7 3q8 0 8 -8q0 -4 -5 -8q-67 -53 -147 -53q-199 0 -199 240q0 241 199 241q93 0 141 -54q4 -4 4 -7q0 -8 -8 -8q-4 0 -7 3q-50 50 -130 50zM241 567l100 80q3 3 7 3q8 0 8 -8q0 -4 -5 -8l-101 -80 q-5 -4 -9 -4t-9 4l-101 80q-5 4 -5 8q0 8 8 8q4 0 7 -3z" />
<glyph unicode="&#x10e;" horiz-adv-x="603" d="M113 657v-641h138q140 0 212.5 75t72.5 245q0 169 -72.5 245t-212.5 76h-138zM251 0h-147q-9 0 -9 9v655q0 9 9 9h147q149 0 226 -79t77 -258t-76.5 -257.5t-226.5 -78.5zM274 759l100 80q3 3 7 3q8 0 8 -8q0 -4 -5 -8l-101 -80q-5 -4 -9 -4t-9 4l-101 80q-5 4 -5 8 q0 8 8 8q4 0 7 -3z" />
<glyph unicode="&#x10f;" horiz-adv-x="507" d="M407 181v154q-2 5 -5.5 13t-17.5 28t-31.5 35.5t-49 28t-68.5 12.5q-172 0 -172 -224q0 -225 172 -225q79 0 125.5 46t46.5 132zM425 703v-522q0 -95 -51.5 -144.5t-138.5 -49.5q-96 0 -143 59t-47 182t47 181.5t143 58.5q36 0 67 -10.5t49.5 -25t31.5 -29t19 -25.5 l5 -10v335q0 9 9 9t9 -9zM527 688q0 -68 -27 -109q-3 -4 -7 -4q-6 0 -6 6q0 2 2 6q14 21 14 52q0 15 -5 29.5t-5 22.5q0 20 17 20t17 -23z" />
<glyph unicode="&#x110;" horiz-adv-x="603" d="M251 0h-147q-9 0 -9 9v333h-58q-8 0 -8 8t8 8h58v306q0 9 9 9h147q149 0 226 -79t77 -258t-76.5 -257.5t-226.5 -78.5zM113 657v-299h239q8 0 8 -8t-8 -8h-239v-326h138q140 0 212.5 75t72.5 245q0 169 -72.5 245t-212.5 76h-138z" />
<glyph unicode="&#x111;" horiz-adv-x="500" d="M425 579v-398q0 -95 -51.5 -144.5t-138.5 -49.5q-96 0 -143 59t-47 182t47 181.5t143 58.5q36 0 67 -10.5t49.5 -25t31.5 -29t19 -25.5l5 -10v211h-114q-8 0 -8 8t8 8h114v108q0 9 9 9t9 -9v-108h51q8 0 8 -8t-8 -8h-51zM407 181v154q-2 5 -5.5 13t-17.5 28t-31.5 35.5 t-49 28t-68.5 12.5q-172 0 -172 -224q0 -225 172 -225q79 0 125.5 46t46.5 132z" />
<glyph unicode="&#x112;" d="M113 331v-315h344q8 0 8 -8t-8 -8h-354q-8 0 -8 9v655q0 9 8 9h342q8 0 8 -8t-8 -8h-332v-310h261q8 0 8 -8t-8 -8h-261zM383 755h-210q-8 0 -8 8t8 8h210q8 0 8 -8t-8 -8z" />
<glyph unicode="&#x113;" horiz-adv-x="466" d="M45 228q0 240 199 240q183 0 183 -191q0 -21 -3 -39q-2 -12 -16 -12h-345q0 -223 181 -223q84 0 152 49q6 4 8 4q8 0 8 -8q0 -3 -3 -6q-68 -55 -165 -55q-199 0 -199 241zM410 277q0 175 -166 175q-89 0 -134.5 -54t-45.5 -156h345q1 27 1 35zM348 559h-210q-8 0 -8 8 t8 8h210q8 0 8 -8t-8 -8z" />
<glyph unicode="&#x114;" d="M113 331v-315h344q8 0 8 -8t-8 -8h-354q-8 0 -8 9v655q0 9 8 9h342q8 0 8 -8t-8 -8h-332v-310h261q8 0 8 -8t-8 -8h-261zM280 738q-101 0 -101 87q0 8 8 8t8 -8q0 -40 21.5 -56t63.5 -16t63.5 16t21.5 56q0 8 8 8t8 -8q0 -87 -101 -87z" />
<glyph unicode="&#x115;" horiz-adv-x="466" d="M45 228q0 240 199 240q183 0 183 -191q0 -21 -3 -39q-2 -12 -16 -12h-345q0 -223 181 -223q84 0 152 49q6 4 8 4q8 0 8 -8q0 -3 -3 -6q-68 -55 -165 -55q-199 0 -199 241zM410 277q0 175 -166 175q-89 0 -134.5 -54t-45.5 -156h345q1 27 1 35zM242 537q-101 0 -101 87 q0 8 8 8t8 -8q0 -40 21.5 -56t63.5 -16t63.5 16t21.5 56q0 8 8 8t8 -8q0 -87 -101 -87z" />
<glyph unicode="&#x116;" d="M113 331v-315h344q8 0 8 -8t-8 -8h-354q-8 0 -8 9v655q0 9 8 9h342q8 0 8 -8t-8 -8h-332v-310h261q8 0 8 -8t-8 -8h-261zM277 754q-18 0 -18 18t18 18t18 -18t-18 -18z" />
<glyph unicode="&#x117;" horiz-adv-x="466" d="M45 228q0 240 199 240q183 0 183 -191q0 -21 -3 -39q-2 -12 -16 -12h-345q0 -223 181 -223q84 0 152 49q6 4 8 4q8 0 8 -8q0 -3 -3 -6q-68 -55 -165 -55q-199 0 -199 241zM410 277q0 175 -166 175q-89 0 -134.5 -54t-45.5 -156h345q1 27 1 35zM244 553q-18 0 -18 18 t18 18t18 -18t-18 -18z" />
<glyph unicode="&#x118;" d="M495 -150q8 0 8 -8q0 -5 -6 -8q-26 -11 -55 -11q-42 0 -61.5 20t-19.5 51q0 71 80 106h-338q-8 0 -8 9v655q0 9 8 9h342q8 0 8 -8t-8 -8h-332v-310h261q8 0 8 -8t-8 -8h-261v-315h344q8 0 8 -8q0 -6 -6 -8q-80 -35 -80 -101q0 -60 63 -60q23 0 46 9q6 2 7 2z" />
<glyph unicode="&#x119;" horiz-adv-x="466" d="M369 -150q8 0 8 -8q0 -5 -6 -8q-26 -11 -55 -11q-42 0 -61.5 20t-19.5 51q0 63 67 99q-26 -6 -58 -6q-199 0 -199 241q0 240 199 240q183 0 183 -191q0 -21 -3 -39q-2 -12 -16 -12h-345q0 -223 181 -223q84 0 152 49q6 4 8 4q8 0 8 -8q0 -3 -3 -6q-16 -14 -60 -36 t-70 -46t-26 -61q0 -60 63 -60q23 0 46 9q6 2 7 2zM410 277q0 175 -166 175q-89 0 -134.5 -54t-45.5 -156h345q1 27 1 35z" />
<glyph unicode="&#x11a;" d="M113 331v-315h344q8 0 8 -8t-8 -8h-354q-8 0 -8 9v655q0 9 8 9h342q8 0 8 -8t-8 -8h-332v-310h261q8 0 8 -8t-8 -8h-261zM277 759l100 80q3 3 7 3q8 0 8 -8q0 -4 -5 -8l-101 -80q-5 -4 -9 -4t-9 4l-101 80q-5 4 -5 8q0 8 8 8q4 0 7 -3z" />
<glyph unicode="&#x11b;" horiz-adv-x="466" d="M45 228q0 240 199 240q183 0 183 -191q0 -21 -3 -39q-2 -12 -16 -12h-345q0 -223 181 -223q84 0 152 49q6 4 8 4q8 0 8 -8q0 -3 -3 -6q-68 -55 -165 -55q-199 0 -199 241zM410 277q0 175 -166 175q-89 0 -134.5 -54t-45.5 -156h345q1 27 1 35zM254 567l100 80q3 3 7 3 q8 0 8 -8q0 -4 -5 -8l-101 -80q-5 -4 -9 -4t-9 4l-101 80q-5 4 -5 8q0 8 8 8q4 0 7 -3z" />
<glyph unicode="&#x11c;" horiz-adv-x="670" d="M350 -14q-147 0 -224 87.5t-77 262.5q0 176 77 263.5t224 87.5q71 0 129.5 -27t92.5 -75q2 -3 2 -6q0 -9 -9 -9q-5 0 -8 4q-29 43 -86 70t-121 27q-139 0 -211 -84.5t-72 -250.5q0 -165 72 -249.5t211 -84.5q70 0 131 31t91 78v183h-196q-8 0 -8 8t8 8h200q5 0 9.5 -4 t4.5 -9v-180q0 -10 -8 -21q-37 -50 -98.5 -80t-133.5 -30zM447 745l-100 80l-100 -80q-3 -3 -7 -3q-8 0 -8 8q0 4 5 8l101 80q5 4 9 4t9 -4l101 -80q5 -4 5 -8q0 -8 -8 -8q-4 0 -7 3z" />
<glyph unicode="&#x11d;" horiz-adv-x="466" d="M62 306q0 75 44.5 118.5t127.5 43.5q68 0 113 -32q22 61 92 61q8 0 8 -8t-8 -8q-62 0 -80 -55q47 -42 47 -120q0 -75 -44.5 -118.5t-127.5 -43.5q-67 0 -110 29q-45 -15 -45 -57q0 -57 72 -57h129q79 0 124.5 -30t45.5 -93q0 -68 -55 -102.5t-149 -34.5q-86 0 -144 32.5 t-58 100.5q0 42 29 74t63 39q-74 7 -74 71q0 48 49 67q-49 42 -49 123zM388 306q0 66 -39.5 106t-114.5 40t-114.5 -40t-39.5 -106t39.5 -106t114.5 -40t114.5 40t39.5 106zM432 -64q0 107 -152 107h-99q-55 -7 -87 -37.5t-32 -73.5q0 -61 52 -89t133 -28q84 0 134.5 30 t50.5 91zM341 553l-100 80l-100 -80q-3 -3 -7 -3q-8 0 -8 8q0 4 5 8l101 80q5 4 9 4t9 -4l101 -80q5 -4 5 -8q0 -8 -8 -8q-4 0 -7 3z" />
<glyph unicode="&#x11e;" horiz-adv-x="670" d="M350 -14q-147 0 -224 87.5t-77 262.5q0 176 77 263.5t224 87.5q71 0 129.5 -27t92.5 -75q2 -3 2 -6q0 -9 -9 -9q-5 0 -8 4q-29 43 -86 70t-121 27q-139 0 -211 -84.5t-72 -250.5q0 -165 72 -249.5t211 -84.5q70 0 131 31t91 78v183h-196q-8 0 -8 8t8 8h200q5 0 9.5 -4 t4.5 -9v-180q0 -10 -8 -21q-37 -50 -98.5 -80t-133.5 -30zM349 738q-101 0 -101 87q0 8 8 8t8 -8q0 -40 21.5 -56t63.5 -16t63.5 16t21.5 56q0 8 8 8t8 -8q0 -87 -101 -87z" />
<glyph unicode="&#x11f;" horiz-adv-x="466" d="M62 306q0 75 44.5 118.5t127.5 43.5q68 0 113 -32q22 61 92 61q8 0 8 -8t-8 -8q-62 0 -80 -55q47 -42 47 -120q0 -75 -44.5 -118.5t-127.5 -43.5q-67 0 -110 29q-45 -15 -45 -57q0 -57 72 -57h129q79 0 124.5 -30t45.5 -93q0 -68 -55 -102.5t-149 -34.5q-86 0 -144 32.5 t-58 100.5q0 42 29 74t63 39q-74 7 -74 71q0 48 49 67q-49 42 -49 123zM388 306q0 66 -39.5 106t-114.5 40t-114.5 -40t-39.5 -106t39.5 -106t114.5 -40t114.5 40t39.5 106zM432 -64q0 107 -152 107h-99q-55 -7 -87 -37.5t-32 -73.5q0 -61 52 -89t133 -28q84 0 134.5 30 t50.5 91zM237 537q-101 0 -101 87q0 8 8 8t8 -8q0 -40 21.5 -56t63.5 -16t63.5 16t21.5 56q0 8 8 8t8 -8q0 -87 -101 -87z" />
<glyph unicode="&#x120;" horiz-adv-x="670" d="M350 -14q-147 0 -224 87.5t-77 262.5q0 176 77 263.5t224 87.5q71 0 129.5 -27t92.5 -75q2 -3 2 -6q0 -9 -9 -9q-5 0 -8 4q-29 43 -86 70t-121 27q-139 0 -211 -84.5t-72 -250.5q0 -165 72 -249.5t211 -84.5q70 0 131 31t91 78v183h-196q-8 0 -8 8t8 8h200q5 0 9.5 -4 t4.5 -9v-180q0 -10 -8 -21q-37 -50 -98.5 -80t-133.5 -30zM347 754q-18 0 -18 18t18 18t18 -18t-18 -18z" />
<glyph unicode="&#x121;" horiz-adv-x="466" d="M62 306q0 75 44.5 118.5t127.5 43.5q68 0 113 -32q22 61 92 61q8 0 8 -8t-8 -8q-62 0 -80 -55q47 -42 47 -120q0 -75 -44.5 -118.5t-127.5 -43.5q-67 0 -110 29q-45 -15 -45 -57q0 -57 72 -57h129q79 0 124.5 -30t45.5 -93q0 -68 -55 -102.5t-149 -34.5q-86 0 -144 32.5 t-58 100.5q0 42 29 74t63 39q-74 7 -74 71q0 48 49 67q-49 42 -49 123zM388 306q0 66 -39.5 106t-114.5 40t-114.5 -40t-39.5 -106t39.5 -106t114.5 -40t114.5 40t39.5 106zM432 -64q0 107 -152 107h-99q-55 -7 -87 -37.5t-32 -73.5q0 -61 52 -89t133 -28q84 0 134.5 30 t50.5 91zM233 553q-18 0 -18 18t18 18t18 -18t-18 -18z" />
<glyph unicode="&#x122;" horiz-adv-x="670" d="M350 -14q-147 0 -224 87.5t-77 262.5q0 176 77 263.5t224 87.5q71 0 129.5 -27t92.5 -75q2 -3 2 -6q0 -9 -9 -9q-5 0 -8 4q-29 43 -86 70t-121 27q-139 0 -211 -84.5t-72 -250.5q0 -165 72 -249.5t211 -84.5q70 0 131 31t91 78v183h-196q-8 0 -8 8t8 8h200q5 0 9.5 -4 t4.5 -9v-180q0 -10 -8 -21q-37 -50 -98.5 -80t-133.5 -30zM364 -67q0 -69 -27 -109q-3 -4 -7 -4q-6 0 -6 6q0 2 2 6q14 21 14 52q0 15 -5 29.5t-5 22.5q0 20 17 20t17 -23z" />
<glyph unicode="&#x123;" horiz-adv-x="466" d="M62 306q0 75 44.5 118.5t127.5 43.5q68 0 113 -32q22 61 92 61q8 0 8 -8t-8 -8q-62 0 -80 -55q47 -42 47 -120q0 -75 -44.5 -118.5t-127.5 -43.5q-67 0 -110 29q-45 -15 -45 -57q0 -57 72 -57h129q79 0 124.5 -30t45.5 -93q0 -68 -55 -102.5t-149 -34.5q-86 0 -144 32.5 t-58 100.5q0 42 29 74t63 39q-74 7 -74 71q0 48 49 67q-49 42 -49 123zM388 306q0 66 -39.5 106t-114.5 40t-114.5 -40t-39.5 -106t39.5 -106t114.5 -40t114.5 40t39.5 106zM432 -64q0 107 -152 107h-99q-55 -7 -87 -37.5t-32 -73.5q0 -61 52 -89t133 -28q84 0 134.5 30 t50.5 91zM213 541q0 69 27 109q3 4 7 4q6 0 6 -6q0 -2 -2 -6q-14 -21 -14 -52q0 -15 5 -29.5t5 -22.5q0 -20 -17 -20t-17 23z" />
<glyph unicode="&#x124;" horiz-adv-x="640" d="M527 355v317q0 9 9 9t9 -9v-671q0 -9 -9 -9t-9 9v338h-414v-338q0 -9 -9 -9t-9 9v671q0 9 9 9t9 -9v-317h414zM422 745l-100 80l-100 -80q-3 -3 -7 -3q-8 0 -8 8q0 4 5 8l101 80q5 4 9 4t9 -4l101 -80q5 -4 5 -8q0 -8 -8 -8q-4 0 -7 3z" />
<glyph unicode="&#x125;" horiz-adv-x="500" d="M98 703v-340q13 41 54.5 73t107.5 32q51 0 86 -14t52.5 -40.5t24.5 -55.5t7 -67v-290q0 -9 -9 -9t-9 9v299q0 151 -152 151q-77 0 -119.5 -46.5t-42.5 -108.5v-295q0 -9 -9 -9t-9 9v702q0 9 9 9t9 -9zM189 745l-100 80l-100 -80q-3 -3 -7 -3q-8 0 -8 8q0 4 5 8l101 80 q5 4 9 4t9 -4l101 -80q5 -4 5 -8q0 -8 -8 -8q-4 0 -7 3z" />
<glyph unicode="&#x126;" horiz-adv-x="640" d="M590 480h-45v-479q0 -9 -9 -9t-9 9v338h-414v-338q0 -9 -9 -9t-9 9v479h-45q-8 0 -8 8t8 8h45v176q0 9 9 9t9 -9v-176h414v176q0 9 9 9t9 -9v-176h45q8 0 8 -8t-8 -8zM527 355v125h-414v-125h414z" />
<glyph unicode="&#x127;" horiz-adv-x="500" d="M98 703v-108h146q8 0 8 -8t-8 -8h-146v-216q13 41 54.5 73t107.5 32q51 0 86 -14t52.5 -40.5t24.5 -55.5t7 -67v-290q0 -9 -9 -9t-9 9v299q0 151 -152 151q-77 0 -119.5 -46.5t-42.5 -108.5v-295q0 -9 -9 -9t-9 9v578h-50q-8 0 -8 8t8 8h50v108q0 9 9 9t9 -9z" />
<glyph unicode="&#x128;" horiz-adv-x="208" d="M113 672v-671q0 -9 -9 -9t-9 9v671q0 9 9 9t9 -9zM174 756q35 0 52 34q4 8 10 8q8 0 8 -8q0 -3 -2 -7q-20 -43 -68 -43q-28 0 -66.5 21t-61.5 21q-35 0 -52 -34q-4 -8 -10 -8q-8 0 -8 8q0 3 2 7q20 43 68 43q28 0 66 -21t62 -21z" />
<glyph unicode="&#x129;" horiz-adv-x="178" d="M98 453v-452q0 -9 -9 -9t-9 9v452q0 9 9 9t9 -9zM152 560q35 0 52 34q4 8 10 8q8 0 8 -8q0 -3 -2 -7q-20 -43 -68 -43q-28 0 -66.5 21t-61.5 21q-35 0 -52 -34q-4 -8 -10 -8q-8 0 -8 8q0 3 2 7q20 43 68 43q28 0 66 -21t62 -21z" />
<glyph unicode="&#x12a;" horiz-adv-x="208" d="M113 672v-671q0 -9 -9 -9t-9 9v671q0 9 9 9t9 -9zM208 755h-210q-8 0 -8 8t8 8h210q8 0 8 -8t-8 -8z" />
<glyph unicode="&#x12b;" horiz-adv-x="178" d="M193 559h-210q-8 0 -8 8t8 8h210q8 0 8 -8t-8 -8zM98 453v-452q0 -9 -9 -9t-9 9v452q0 9 9 9t9 -9z" />
<glyph unicode="&#x12c;" horiz-adv-x="208" d="M113 672v-671q0 -9 -9 -9t-9 9v671q0 9 9 9t9 -9zM104 738q-101 0 -101 87q0 8 8 8t8 -8q0 -40 21.5 -56t63.5 -16t63.5 16t21.5 56q0 8 8 8t8 -8q0 -87 -101 -87z" />
<glyph unicode="&#x12d;" horiz-adv-x="178" d="M88 537q-101 0 -101 87q0 8 8 8t8 -8q0 -40 21.5 -56t63.5 -16t63.5 16t21.5 56q0 8 8 8t8 -8q0 -87 -101 -87zM98 453v-452q0 -9 -9 -9t-9 9v452q0 9 9 9t9 -9z" />
<glyph unicode="&#x12e;" horiz-adv-x="208" d="M159 -150q8 0 8 -8q0 -5 -6 -8q-26 -11 -55 -11q-42 0 -61.5 20t-19.5 51q0 67 71 102q-1 2 -1 5v671q0 9 9 9t9 -9v-671q0 -5 -7 -9q-63 -36 -63 -93q0 -60 63 -60q23 0 46 9q6 2 7 2z" />
<glyph unicode="&#x12f;" horiz-adv-x="178" d="M89 603q-12 0 -12 15q0 16 12 16t12 -16q0 -15 -12 -15zM145 -150q8 0 8 -8q0 -5 -6 -8q-26 -11 -55 -11q-42 0 -61.5 20t-19.5 51q0 66 71 101q-2 2 -2 6v452q0 9 9 9t9 -9v-452q0 -5 -7 -9q-62 -37 -62 -93q0 -60 63 -60q23 0 46 9q6 2 7 2z" />
<glyph unicode="&#x130;" horiz-adv-x="208" d="M113 672v-671q0 -9 -9 -9t-9 9v671q0 9 9 9t9 -9zM104 754q-18 0 -18 18t18 18t18 -18t-18 -18z" />
<glyph unicode="&#x131;" horiz-adv-x="178" d="M98 453v-452q0 -9 -9 -9t-9 9v452q0 9 9 9t9 -9z" />
<glyph unicode="&#x132;" horiz-adv-x="570" d="M113 672v-671q0 -9 -9 -9t-9 9v671q0 9 9 9t9 -9zM457 189v483q0 9 9 9t9 -9v-483q0 -97 -37.5 -150t-130.5 -53q-62 0 -103 22q-5 2 -5 8q0 8 8 8q3 0 11 -4q35 -17 89 -17q84 0 117 48t33 138z" />
<glyph unicode="&#x133;" horiz-adv-x="359" d="M89 603q-12 0 -12 15q0 16 12 16t12 -16q0 -15 -12 -15zM98 453v-452q0 -9 -9 -9t-9 9v452q0 9 9 9t9 -9zM269 603q-12 0 -12 15q0 16 12 16t12 -16q0 -15 -12 -15zM152 -185q50 0 79.5 35.5t29.5 91.5v511q0 9 9 9t9 -9v-511q0 -62 -34 -102.5t-93 -40.5q-8 0 -8 8t8 8z " />
<glyph unicode="&#x134;" horiz-adv-x="398" d="M285 189v483q0 9 9 9t9 -9v-483q0 -97 -37.5 -150t-130.5 -53q-62 0 -103 22q-5 2 -5 8q0 8 8 8q3 0 11 -4q35 -17 89 -17q84 0 117 48t33 138zM392 745l-100 80l-100 -80q-3 -3 -7 -3q-8 0 -8 8q0 4 5 8l101 80q5 4 9 4t9 -4l101 -80q5 -4 5 -8q0 -8 -8 -8q-4 0 -7 3z " />
<glyph unicode="&#x135;" horiz-adv-x="183" d="M-24 -185q50 0 79.5 35.5t29.5 91.5v511q0 9 9 9t9 -9v-511q0 -62 -34 -102.5t-93 -40.5q-8 0 -8 8t8 8zM194 553l-100 80l-100 -80q-3 -3 -7 -3q-8 0 -8 8q0 4 5 8l101 80q5 4 9 4t9 -4l101 -80q5 -4 5 -8q0 -8 -8 -8q-4 0 -7 3z" />
<glyph unicode="&#x136;" horiz-adv-x="541" d="M113 672v-406l357 412q3 3 7 3q9 0 9 -9q0 -4 -3 -7l-238 -272l275 -386q2 -3 2 -7q0 -8 -8 -8q-5 0 -8 4l-273 383l-120 -139v-239q0 -9 -9 -9t-9 9v671q0 9 9 9t9 -9zM315 -67q0 -69 -27 -109q-3 -4 -7 -4q-6 0 -6 6q0 2 2 6q14 21 14 52q0 15 -5 29.5t-5 22.5 q0 20 17 20t17 -23z" />
<glyph unicode="&#x137;" horiz-adv-x="434" d="M180 261l-82 -68v-192q0 -9 -9 -9t-9 9v702q0 9 9 9t9 -9v-487l290 243q3 3 7 3q9 0 9 -9q0 -4 -4 -7l-206 -173l215 -264q4 -4 4 -8q0 -9 -9 -9q-5 0 -8 4zM254 -67q0 -69 -27 -109q-3 -4 -7 -4q-6 0 -6 6q0 2 2 6q14 21 14 52q0 15 -5 29.5t-5 22.5q0 20 17 20t17 -23z " />
<glyph unicode="&#x138;" horiz-adv-x="434" d="M180 261l-82 -68v-192q0 -9 -9 -9t-9 9v452q0 9 9 9t9 -9v-237l290 243q3 3 7 3q9 0 9 -9q0 -4 -4 -7l-206 -173l215 -264q4 -4 4 -8q0 -9 -9 -9q-5 0 -8 4z" />
<glyph unicode="&#x139;" horiz-adv-x="468" d="M113 672v-656h319q8 0 8 -8t-8 -8h-329q-8 0 -8 9v663q0 9 9 9t9 -9zM197 858q9 -7 0 -16l-106 -114q-5 -5 -10 -1q-5 5 0 10l101 119q7 9 15 2z" />
<glyph unicode="&#x13a;" horiz-adv-x="198" d="M158 -8q-48 0 -65.5 27.5t-17.5 80.5v603q0 9 9 9t9 -9v-603q0 -46 13.5 -69t51.5 -23q8 0 8 -8t-8 -8zM177 868q9 -7 0 -16l-106 -114q-5 -5 -10 -1q-5 5 0 10l101 119q7 9 15 2z" />
<glyph unicode="&#x13b;" horiz-adv-x="468" d="M113 672v-656h319q8 0 8 -8t-8 -8h-329q-8 0 -8 9v663q0 9 9 9t9 -9zM290 -67q0 -69 -27 -109q-3 -4 -7 -4q-6 0 -6 6q0 2 2 6q14 21 14 52q0 15 -5 29.5t-5 22.5q0 20 17 20t17 -23z" />
<glyph unicode="&#x13c;" horiz-adv-x="198" d="M158 -8q-48 0 -65.5 27.5t-17.5 80.5v603q0 9 9 9t9 -9v-603q0 -46 13.5 -69t51.5 -23q8 0 8 -8t-8 -8zM144 -67q0 -69 -27 -109q-3 -4 -7 -4q-6 0 -6 6q0 2 2 6q14 21 14 52q0 15 -5 29.5t-5 22.5q0 20 17 20t17 -23z" />
<glyph unicode="&#x13d;" horiz-adv-x="468" d="M113 672v-656h319q8 0 8 -8t-8 -8h-329q-8 0 -8 9v663q0 9 9 9t9 -9zM355 658q0 -68 -27 -109q-3 -4 -7 -4q-6 0 -6 6q0 2 2 6q14 21 14 52q0 15 -5 29.5t-5 22.5q0 20 17 20t17 -23z" />
<glyph unicode="&#x13e;" horiz-adv-x="198" d="M158 -8q-48 0 -65.5 27.5t-17.5 80.5v603q0 9 9 9t9 -9v-603q0 -46 13.5 -69t51.5 -23q8 0 8 -8t-8 -8zM212 689q0 -69 -27 -109q-3 -4 -7 -4q-6 0 -6 6q0 2 2 6q14 21 14 52q0 15 -5 29.5t-5 22.5q0 20 17 20t17 -23z" />
<glyph unicode="&#x13f;" horiz-adv-x="468" d="M113 672v-656h319q8 0 8 -8t-8 -8h-329q-8 0 -8 9v663q0 9 9 9t9 -9zM382 325q-17 0 -17 19q0 20 17 20t17 -20q0 -19 -17 -19z" />
<glyph unicode="&#x140;" horiz-adv-x="233" d="M158 -8q-48 0 -65.5 27.5t-17.5 80.5v603q0 9 9 9t9 -9v-603q0 -46 13.5 -69t51.5 -23q8 0 8 -8t-8 -8zM196 356q-17 0 -17 19q0 20 17 20t17 -20q0 -19 -17 -19z" />
<glyph unicode="&#x141;" horiz-adv-x="468" d="M113 672v-363l220 107q4 2 7 2q8 0 8 -8q0 -6 -7 -9l-228 -111v-274h319q8 0 8 -8t-8 -8h-329q-8 0 -8 9v272l-64 -31q-4 -2 -7 -2q-8 0 -8 8q0 6 7 9l72 35v372q0 9 9 9t9 -9z" />
<glyph unicode="&#x142;" horiz-adv-x="253" d="M188 -8q-48 0 -65.5 27.5t-17.5 80.5v270l-69 -40q-4 -2 -7 -2q-8 0 -8 8q0 6 6 9l78 45v313q0 9 9 9t9 -9v-302l94 55q4 2 6 2q8 0 8 -8q0 -6 -5 -8l-103 -61v-281q0 -46 13.5 -69t51.5 -23q8 0 8 -8t-8 -8z" />
<glyph unicode="&#x143;" horiz-adv-x="619" d="M516 32v640q0 9 9 9t9 -9v-671q0 -9 -9 -9q-6 0 -9 5l-413 644v-640q0 -9 -9 -9t-9 9v671q0 9 9 9q5 0 8 -5zM389 858q9 -7 0 -16l-106 -114q-5 -5 -10 -1q-5 5 0 10l101 119q7 9 15 2z" />
<glyph unicode="&#x144;" horiz-adv-x="500" d="M98 453v-90q12 41 54 73t108 32q51 0 86 -14t52.5 -40.5t24.5 -55.5t7 -67v-290q0 -9 -9 -9t-9 9v299q0 151 -152 151q-77 0 -119.5 -46.5t-42.5 -108.5v-295q0 -9 -9 -9t-9 9v452q0 9 9 9t9 -9zM328 655q9 -7 0 -16l-106 -114q-5 -5 -10 -1q-5 5 0 10l101 119q7 9 15 2z " />
<glyph unicode="&#x145;" horiz-adv-x="619" d="M516 32v640q0 9 9 9t9 -9v-671q0 -9 -9 -9q-6 0 -9 5l-413 644v-640q0 -9 -9 -9t-9 9v671q0 9 9 9q5 0 8 -5zM325 -67q0 -69 -27 -109q-3 -4 -7 -4q-6 0 -6 6q0 2 2 6q14 21 14 52q0 15 -5 29.5t-5 22.5q0 20 17 20t17 -23z" />
<glyph unicode="&#x146;" horiz-adv-x="500" d="M98 453v-90q12 41 54 73t108 32q51 0 86 -14t52.5 -40.5t24.5 -55.5t7 -67v-290q0 -9 -9 -9t-9 9v299q0 151 -152 151q-77 0 -119.5 -46.5t-42.5 -108.5v-295q0 -9 -9 -9t-9 9v452q0 9 9 9t9 -9zM278 -67q0 -69 -27 -109q-3 -4 -7 -4q-6 0 -6 6q0 2 2 6q14 21 14 52 q0 15 -5 29.5t-5 22.5q0 20 17 20t17 -23z" />
<glyph unicode="&#x147;" horiz-adv-x="619" d="M516 32v640q0 9 9 9t9 -9v-671q0 -9 -9 -9q-6 0 -9 5l-413 644v-640q0 -9 -9 -9t-9 9v671q0 9 9 9q5 0 8 -5zM313 759l100 80q3 3 7 3q8 0 8 -8q0 -4 -5 -8l-101 -80q-5 -4 -9 -4t-9 4l-101 80q-5 4 -5 8q0 8 8 8q4 0 7 -3z" />
<glyph unicode="&#x148;" horiz-adv-x="500" d="M98 453v-90q12 41 54 73t108 32q51 0 86 -14t52.5 -40.5t24.5 -55.5t7 -67v-290q0 -9 -9 -9t-9 9v299q0 151 -152 151q-77 0 -119.5 -46.5t-42.5 -108.5v-295q0 -9 -9 -9t-9 9v452q0 9 9 9t9 -9zM260 567l100 80q3 3 7 3q8 0 8 -8q0 -4 -5 -8l-101 -80q-5 -4 -9 -4t-9 4 l-101 80q-5 4 -5 8q0 8 8 8q4 0 7 -3z" />
<glyph unicode="&#x149;" horiz-adv-x="500" d="M98 453v-90q12 41 54 73t108 32q51 0 86 -14t52.5 -40.5t24.5 -55.5t7 -67v-290q0 -9 -9 -9t-9 9v299q0 151 -152 151q-77 0 -119.5 -46.5t-42.5 -108.5v-295q0 -9 -9 -9t-9 9v452q0 9 9 9t9 -9zM83 650q0 -68 -27 -109q-3 -4 -7 -4q-6 0 -6 6q0 2 2 6q14 21 14 52 q0 15 -5 29.5t-5 22.5q0 20 17 20t17 -23z" />
<glyph unicode="&#x14a;" horiz-adv-x="619" d="M366 -179q150 0 150 176l-413 644v-640q0 -9 -9 -9t-9 9v671q0 9 9 9q5 0 8 -5l414 -644v640q0 9 9 9t9 -9v-671q0 -94 -38 -146t-130 -52q-9 0 -9 9t9 9z" />
<glyph unicode="&#x14b;" horiz-adv-x="500" d="M303 -185q50 0 79.5 35.5t29.5 91.5v358q0 151 -152 151q-77 0 -119.5 -46.5t-42.5 -108.5v-295q0 -9 -9 -9t-9 9v452q0 9 9 9t9 -9v-90q12 41 54 73t108 32q51 0 86 -14t52.5 -40.5t24.5 -55.5t7 -67v-349q0 -62 -34 -102.5t-93 -40.5q-8 0 -8 8t8 8z" />
<glyph unicode="&#x14c;" horiz-adv-x="700" d="M350 2q139 0 211 84.5t72 249.5q0 166 -72 250.5t-211 84.5t-211 -84.5t-72 -250.5q0 -165 72 -249.5t211 -84.5zM350 687q147 0 224 -87.5t77 -263.5q0 -175 -77 -262.5t-224 -87.5t-224 87.5t-77 262.5q0 176 77 263.5t224 87.5zM460 755h-210q-8 0 -8 8t8 8h210 q8 0 8 -8t-8 -8z" />
<glyph unicode="&#x14d;" horiz-adv-x="488" d="M244 3q181 0 181 224q0 225 -181 225t-181 -225q0 -224 181 -224zM244 -13q-199 0 -199 240q0 241 199 241t199 -241q0 -240 -199 -240zM350 559h-210q-8 0 -8 8t8 8h210q8 0 8 -8t-8 -8z" />
<glyph unicode="&#x14e;" horiz-adv-x="700" d="M350 2q139 0 211 84.5t72 249.5q0 166 -72 250.5t-211 84.5t-211 -84.5t-72 -250.5q0 -165 72 -249.5t211 -84.5zM350 687q147 0 224 -87.5t77 -263.5q0 -175 -77 -262.5t-224 -87.5t-224 87.5t-77 262.5q0 176 77 263.5t224 87.5zM355 738q-101 0 -101 87q0 8 8 8t8 -8 q0 -40 21.5 -56t63.5 -16t63.5 16t21.5 56q0 8 8 8t8 -8q0 -87 -101 -87z" />
<glyph unicode="&#x14f;" horiz-adv-x="488" d="M244 3q181 0 181 224q0 225 -181 225t-181 -225q0 -224 181 -224zM244 -13q-199 0 -199 240q0 241 199 241t199 -241q0 -240 -199 -240zM244 537q-101 0 -101 87q0 8 8 8t8 -8q0 -40 21.5 -56t63.5 -16t63.5 16t21.5 56q0 8 8 8t8 -8q0 -87 -101 -87z" />
<glyph unicode="&#x150;" horiz-adv-x="700" d="M350 2q139 0 211 84.5t72 249.5q0 166 -72 250.5t-211 84.5t-211 -84.5t-72 -250.5q0 -165 72 -249.5t211 -84.5zM350 687q147 0 224 -87.5t77 -263.5q0 -175 -77 -262.5t-224 -87.5t-224 87.5t-77 262.5q0 176 77 263.5t224 87.5zM405 858q9 -7 0 -16l-106 -114 q-5 -5 -10 -1q-5 5 0 10l101 119q7 9 15 2zM509 858q9 -7 0 -16l-106 -114q-5 -5 -10 -1q-5 5 0 10l101 119q7 9 15 2z" />
<glyph unicode="&#x151;" horiz-adv-x="488" d="M244 3q181 0 181 224q0 225 -181 225t-181 -225q0 -224 181 -224zM244 -13q-199 0 -199 240q0 241 199 241t199 -241q0 -240 -199 -240zM287 655q9 -7 0 -16l-106 -114q-5 -5 -10 -1q-5 5 0 10l101 119q7 9 15 2zM391 655q9 -7 0 -16l-106 -114q-5 -5 -10 -1q-5 5 0 10 l101 119q7 9 15 2z" />
<glyph unicode="&#x152;" horiz-adv-x="939" d="M544 331v-315h344q8 0 8 -8t-8 -8h-354q-8 0 -8 9v23q-70 -46 -176 -46q-147 0 -224 87.5t-77 262.5q0 176 77 263.5t224 87.5q106 0 176 -46v23q0 9 8 9h342q8 0 8 -8t-8 -8h-332v-310h261q8 0 8 -8t-8 -8h-261zM350 671q-139 0 -211 -84.5t-72 -250.5q0 -165 72 -249.5 t211 -84.5q110 0 176 50v567q-69 52 -176 52z" />
<glyph unicode="&#x153;" horiz-adv-x="846" d="M244 -13q-199 0 -199 240q0 241 199 241q76 0 125 -39.5t65 -115.5q13 76 63 115.5t127 39.5q183 0 183 -191q0 -21 -3 -39q-2 -12 -16 -12h-346q0 -113 47.5 -168t134.5 -55q84 0 152 49q6 4 8 4q8 0 8 -8q0 -3 -3 -6q-68 -55 -165 -55q-155 0 -190 155 q-35 -155 -190 -155zM425 228q-1 224 -181 224q-181 0 -181 -225q0 -224 181 -224t181 225zM790 277q0 175 -166 175q-89 0 -135 -54t-46 -156h346q1 27 1 35z" />
<glyph unicode="&#x154;" horiz-adv-x="544" d="M268 309h-155v-308q0 -9 -9 -9t-9 9v663q0 9 9 9h205q79 0 131 -52.5t52 -129.5t-52 -129.5t-131 -52.5h-21q6 -9 17 -23.5t39.5 -54.5t54 -74.5t51.5 -70.5t41.5 -57t14.5 -20q3 -4 3 -8q0 -9 -9 -9q-6 0 -9 5zM113 657v-332h196q74 0 119.5 48.5t45.5 117.5 t-45.5 117.5t-119.5 48.5h-196zM343 858q9 -7 0 -16l-106 -114q-5 -5 -10 -1q-5 5 0 10l101 119q7 9 15 2z" />
<glyph unicode="&#x155;" horiz-adv-x="283" d="M260 466q8 0 8 -8t-8 -8q-79 0 -120.5 -52.5t-41.5 -118.5v-278q0 -9 -9 -9t-9 9v449q0 9 9 9t9 -9v-101q10 45 52.5 81t109.5 36zM251 655q9 -7 0 -16l-106 -114q-5 -5 -10 -1q-5 5 0 10l101 119q7 9 15 2z" />
<glyph unicode="&#x156;" horiz-adv-x="544" d="M268 309h-155v-308q0 -9 -9 -9t-9 9v663q0 9 9 9h205q79 0 131 -52.5t52 -129.5t-52 -129.5t-131 -52.5h-21q6 -9 17 -23.5t39.5 -54.5t54 -74.5t51.5 -70.5t41.5 -57t14.5 -20q3 -4 3 -8q0 -9 -9 -9q-6 0 -9 5zM113 657v-332h196q74 0 119.5 48.5t45.5 117.5 t-45.5 117.5t-119.5 48.5h-196zM298 -67q0 -69 -27 -109q-3 -4 -7 -4q-6 0 -6 6q0 2 2 6q14 21 14 52q0 15 -5 29.5t-5 22.5q0 20 17 20t17 -23z" />
<glyph unicode="&#x157;" horiz-adv-x="283" d="M260 466q8 0 8 -8t-8 -8q-79 0 -120.5 -52.5t-41.5 -118.5v-278q0 -9 -9 -9t-9 9v449q0 9 9 9t9 -9v-101q10 45 52.5 81t109.5 36zM108 -67q0 -69 -27 -109q-3 -4 -7 -4q-6 0 -6 6q0 2 2 6q14 21 14 52q0 15 -5 29.5t-5 22.5q0 20 17 20t17 -23z" />
<glyph unicode="&#x158;" horiz-adv-x="544" d="M268 309h-155v-308q0 -9 -9 -9t-9 9v663q0 9 9 9h205q79 0 131 -52.5t52 -129.5t-52 -129.5t-131 -52.5h-21q6 -9 17 -23.5t39.5 -54.5t54 -74.5t51.5 -70.5t41.5 -57t14.5 -20q3 -4 3 -8q0 -9 -9 -9q-6 0 -9 5zM113 657v-332h196q74 0 119.5 48.5t45.5 117.5 t-45.5 117.5t-119.5 48.5h-196zM267 759l100 80q3 3 7 3q8 0 8 -8q0 -4 -5 -8l-101 -80q-5 -4 -9 -4t-9 4l-101 80q-5 4 -5 8q0 8 8 8q4 0 7 -3z" />
<glyph unicode="&#x159;" horiz-adv-x="283" d="M260 466q8 0 8 -8t-8 -8q-79 0 -120.5 -52.5t-41.5 -118.5v-278q0 -9 -9 -9t-9 9v449q0 9 9 9t9 -9v-101q10 45 52.5 81t109.5 36zM160 567l100 80q3 3 7 3q8 0 8 -8q0 -4 -5 -8l-101 -80q-5 -4 -9 -4t-9 4l-101 80q-5 4 -5 8q0 8 8 8q4 0 7 -3z" />
<glyph unicode="&#x15a;" horiz-adv-x="545" d="M458 580q-61 91 -188 91q-95 0 -137 -42t-42 -103q0 -46 29.5 -78.5t73.5 -49t95.5 -36t95.5 -39t73.5 -58.5t29.5 -93q0 -89 -57 -137.5t-169 -48.5q-145 0 -219 115q-3 5 -3 9q0 9 9 9q5 0 10 -8q65 -109 203 -109q103 0 155.5 44.5t52.5 125.5q0 44 -22 76.5t-57 52 t-77 35t-84.5 31t-77.5 34.5t-57 50.5t-22 74.5q0 71 48 116t149 45q132 0 202 -97q2 -3 2 -6q0 -8 -8 -8q-5 0 -8 4zM352 858q9 -7 0 -16l-106 -114q-5 -5 -10 -1q-5 5 0 10l101 119q7 9 15 2z" />
<glyph unicode="&#x15b;" horiz-adv-x="399" d="M196 452q-58 0 -92 -24.5t-34 -71.5q0 -38 29.5 -62t72 -37.5t85 -28.5t72 -44t29.5 -73q0 -63 -43 -93.5t-117 -30.5q-101 0 -164 68q-3 3 -3 6q0 8 8 8q3 0 7 -4q60 -62 152 -62q66 0 104 26.5t38 81.5q0 40 -29.5 66.5t-72 40.5l-85 28t-72 41t-29.5 69q0 55 40 83.5 t104 28.5q48 0 86.5 -18t58.5 -48q2 -3 2 -6q0 -8 -8 -8q-4 0 -7 4q-41 60 -132 60zM269 655q9 -7 0 -16l-106 -114q-5 -5 -10 -1q-5 5 0 10l101 119q7 9 15 2z" />
<glyph unicode="&#x15c;" horiz-adv-x="545" d="M458 580q-61 91 -188 91q-95 0 -137 -42t-42 -103q0 -46 29.5 -78.5t73.5 -49t95.5 -36t95.5 -39t73.5 -58.5t29.5 -93q0 -89 -57 -137.5t-169 -48.5q-145 0 -219 115q-3 5 -3 9q0 9 9 9q5 0 10 -8q65 -109 203 -109q103 0 155.5 44.5t52.5 125.5q0 44 -22 76.5t-57 52 t-77 35t-84.5 31t-77.5 34.5t-57 50.5t-22 74.5q0 71 48 116t149 45q132 0 202 -97q2 -3 2 -6q0 -8 -8 -8q-5 0 -8 4zM382 745l-100 80l-100 -80q-3 -3 -7 -3q-8 0 -8 8q0 4 5 8l101 80q5 4 9 4t9 -4l101 -80q5 -4 5 -8q0 -8 -8 -8q-4 0 -7 3z" />
<glyph unicode="&#x15d;" horiz-adv-x="399" d="M196 452q-58 0 -92 -24.5t-34 -71.5q0 -38 29.5 -62t72 -37.5t85 -28.5t72 -44t29.5 -73q0 -63 -43 -93.5t-117 -30.5q-101 0 -164 68q-3 3 -3 6q0 8 8 8q3 0 7 -4q60 -62 152 -62q66 0 104 26.5t38 81.5q0 40 -29.5 66.5t-72 40.5l-85 28t-72 41t-29.5 69q0 55 40 83.5 t104 28.5q48 0 86.5 -18t58.5 -48q2 -3 2 -6q0 -8 -8 -8q-4 0 -7 4q-41 60 -132 60zM306 553l-100 80l-100 -80q-3 -3 -7 -3q-8 0 -8 8q0 4 5 8l101 80q5 4 9 4t9 -4l101 -80q5 -4 5 -8q0 -8 -8 -8q-4 0 -7 3z" />
<glyph unicode="&#x15e;" horiz-adv-x="545" d="M347 -139q0 -38 -22 -60.5t-66 -22.5q-38 0 -59 18q-3 3 -3 6q0 7 7 7q2 0 7 -3q20 -14 48 -14q73 0 73 69q0 33 -19 48t-46 15q-12 0 -23 -2.5t-12 -2.5q-8 0 -8 9l3 60q-122 14 -184 113q-3 5 -3 9q0 9 9 9q5 0 10 -8q65 -109 203 -109q103 0 155.5 44.5t52.5 125.5 q0 44 -22 76.5t-57 52t-77 35t-84.5 31t-77.5 34.5t-57 50.5t-22 74.5q0 71 48 116t149 45q132 0 202 -97q2 -3 2 -6q0 -8 -8 -8q-5 0 -8 4q-61 91 -188 91q-95 0 -137 -42t-42 -103q0 -46 29.5 -78.5t73.5 -49t95.5 -36t95.5 -39t73.5 -58.5t29.5 -93q0 -89 -57 -137.5 t-169 -48.5q-4 0 -11 0.5t-10 0.5l-4 -55q14 5 30 5q80 0 80 -76z" />
<glyph unicode="&#x15f;" horiz-adv-x="399" d="M274 -139q0 -38 -22 -60.5t-66 -22.5q-38 0 -59 18q-3 3 -3 6q0 7 7 7q3 0 7 -3q20 -14 48 -14q73 0 73 69q0 33 -19 48t-46 15q-12 0 -23 -2.5t-12 -2.5q-8 0 -8 9l3 63q-73 12 -120 64q-3 3 -3 6q0 8 8 8q3 0 7 -4q60 -62 152 -62q66 0 104 26.5t38 81.5 q0 40 -29.5 66.5t-72 40.5l-85 28t-72 41t-29.5 69q0 55 40 83.5t104 28.5q48 0 86.5 -18t58.5 -48q2 -3 2 -6q0 -8 -8 -8q-4 0 -7 4q-41 60 -132 60q-58 0 -92 -24.5t-34 -71.5q0 -38 29.5 -62t72 -37.5t85 -28.5t72 -44t29.5 -73q0 -63 -43 -93.5t-117 -30.5q-12 0 -30 2 l-4 -57q14 5 30 5q80 0 80 -76z" />
<glyph unicode="&#x160;" horiz-adv-x="545" d="M458 580q-61 91 -188 91q-95 0 -137 -42t-42 -103q0 -46 29.5 -78.5t73.5 -49t95.5 -36t95.5 -39t73.5 -58.5t29.5 -93q0 -89 -57 -137.5t-169 -48.5q-145 0 -219 115q-3 5 -3 9q0 9 9 9q5 0 10 -8q65 -109 203 -109q103 0 155.5 44.5t52.5 125.5q0 44 -22 76.5t-57 52 t-77 35t-84.5 31t-77.5 34.5t-57 50.5t-22 74.5q0 71 48 116t149 45q132 0 202 -97q2 -3 2 -6q0 -8 -8 -8q-5 0 -8 4zM278 759l100 80q3 3 7 3q8 0 8 -8q0 -4 -5 -8l-101 -80q-5 -4 -9 -4t-9 4l-101 80q-5 4 -5 8q0 8 8 8q4 0 7 -3z" />
<glyph unicode="&#x161;" horiz-adv-x="399" d="M196 452q-58 0 -92 -24.5t-34 -71.5q0 -38 29.5 -62t72 -37.5t85 -28.5t72 -44t29.5 -73q0 -63 -43 -93.5t-117 -30.5q-101 0 -164 68q-3 3 -3 6q0 8 8 8q3 0 7 -4q60 -62 152 -62q66 0 104 26.5t38 81.5q0 40 -29.5 66.5t-72 40.5l-85 28t-72 41t-29.5 69q0 55 40 83.5 t104 28.5q48 0 86.5 -18t58.5 -48q2 -3 2 -6q0 -8 -8 -8q-4 0 -7 4q-41 60 -132 60zM202 567l100 80q3 3 7 3q8 0 8 -8q0 -4 -5 -8l-101 -80q-5 -4 -9 -4t-9 4l-101 80q-5 4 -5 8q0 8 8 8q4 0 7 -3z" />
<glyph unicode="&#x162;" horiz-adv-x="538" d="M278 657v-656q0 -9 -9 -9t-9 9v656h-214q-8 0 -8 8t8 8h446q8 0 8 -8t-8 -8h-214zM285 -67q0 -69 -27 -109q-3 -4 -7 -4q-6 0 -6 6q0 2 2 6q14 21 14 52q0 15 -5 29.5t-5 22.5q0 20 17 20t17 -23z" />
<glyph unicode="&#x163;" horiz-adv-x="258" d="M195 -8q-100 0 -100 118v328h-62q-8 0 -8 8t8 8h62v128q0 9 9 9t9 -9v-128h90q8 0 8 -8t-8 -8h-90v-328q0 -51 19 -76.5t63 -25.5q8 0 8 -8t-8 -8zM168 -67q0 -69 -27 -109q-3 -4 -7 -4q-6 0 -6 6q0 2 2 6q14 21 14 52q0 15 -5 29.5t-5 22.5q0 20 17 20t17 -23z" />
<glyph unicode="&#x164;" horiz-adv-x="538" d="M278 657v-656q0 -9 -9 -9t-9 9v656h-214q-8 0 -8 8t8 8h446q8 0 8 -8t-8 -8h-214zM269 759l100 80q3 3 7 3q8 0 8 -8q0 -4 -5 -8l-101 -80q-5 -4 -9 -4t-9 4l-101 80q-5 4 -5 8q0 8 8 8q4 0 7 -3z" />
<glyph unicode="&#x165;" horiz-adv-x="258" d="M195 -8q-100 0 -100 118v328h-62q-8 0 -8 8t8 8h62v128q0 9 9 9t9 -9v-128h90q8 0 8 -8t-8 -8h-90v-328q0 -51 19 -76.5t63 -25.5q8 0 8 -8t-8 -8zM236 658q0 -68 -27 -109q-3 -4 -7 -4q-6 0 -6 6q0 2 2 6q14 21 14 52q0 15 -5 29.5t-5 22.5q0 20 17 20t17 -23z" />
<glyph unicode="&#x166;" horiz-adv-x="538" d="M278 657v-308h121q8 0 8 -8t-8 -8h-121v-332q0 -9 -9 -9t-9 9v332h-121q-8 0 -8 8t8 8h121v308h-214q-8 0 -8 8t8 8h446q8 0 8 -8t-8 -8h-214z" />
<glyph unicode="&#x167;" horiz-adv-x="258" d="M203 291h-90v-181q0 -51 19 -76.5t63 -25.5q8 0 8 -8t-8 -8q-100 0 -100 118v181h-62q-8 0 -8 8t8 8h62v131h-62q-8 0 -8 8t8 8h62v128q0 9 9 9t9 -9v-128h90q8 0 8 -8t-8 -8h-90v-131h90q8 0 8 -8t-8 -8z" />
<glyph unicode="&#x168;" horiz-adv-x="625" d="M522 186v486q0 9 9 9t9 -9v-486q0 -44 -9 -77t-32 -62.5t-68.5 -45t-111.5 -15.5t-112 16t-69.5 45t-33 62.5t-9.5 76.5v486q0 9 9 9t9 -9v-486q0 -41 8.5 -71.5t30 -57.5t64 -41t103.5 -14q117 0 160 48.5t43 135.5zM385 756q35 0 52 34q4 8 10 8q8 0 8 -8q0 -3 -2 -7 q-20 -43 -68 -43q-28 0 -66.5 21t-61.5 21q-35 0 -52 -34q-4 -8 -10 -8q-8 0 -8 8q0 3 2 7q20 43 68 43q28 0 66 -21t62 -21z" />
<glyph unicode="&#x169;" horiz-adv-x="490" d="M245 4q157 0 157 151v298q0 9 9 9t9 -9v-289q0 -177 -175 -177t-175 177v289q0 9 9 9t9 -9v-298q0 -151 157 -151zM317 560q35 0 52 34q4 8 10 8q8 0 8 -8q0 -3 -2 -7q-20 -43 -68 -43q-28 0 -66.5 21t-61.5 21q-35 0 -52 -34q-4 -8 -10 -8q-8 0 -8 8q0 3 2 7 q20 43 68 43q28 0 66 -21t62 -21z" />
<glyph unicode="&#x16a;" horiz-adv-x="625" d="M522 186v486q0 9 9 9t9 -9v-486q0 -44 -9 -77t-32 -62.5t-68.5 -45t-111.5 -15.5t-112 16t-69.5 45t-33 62.5t-9.5 76.5v486q0 9 9 9t9 -9v-486q0 -41 8.5 -71.5t30 -57.5t64 -41t103.5 -14q117 0 160 48.5t43 135.5zM426 755h-210q-8 0 -8 8t8 8h210q8 0 8 -8t-8 -8z " />
<glyph unicode="&#x16b;" horiz-adv-x="490" d="M245 4q157 0 157 151v298q0 9 9 9t9 -9v-289q0 -177 -175 -177t-175 177v289q0 9 9 9t9 -9v-298q0 -151 157 -151zM352 559h-210q-8 0 -8 8t8 8h210q8 0 8 -8t-8 -8z" />
<glyph unicode="&#x16c;" horiz-adv-x="625" d="M522 186v486q0 9 9 9t9 -9v-486q0 -44 -9 -77t-32 -62.5t-68.5 -45t-111.5 -15.5t-112 16t-69.5 45t-33 62.5t-9.5 76.5v486q0 9 9 9t9 -9v-486q0 -41 8.5 -71.5t30 -57.5t64 -41t103.5 -14q117 0 160 48.5t43 135.5zM318 738q-101 0 -101 87q0 8 8 8t8 -8 q0 -40 21.5 -56t63.5 -16t63.5 16t21.5 56q0 8 8 8t8 -8q0 -87 -101 -87z" />
<glyph unicode="&#x16d;" horiz-adv-x="490" d="M245 4q157 0 157 151v298q0 9 9 9t9 -9v-289q0 -177 -175 -177t-175 177v289q0 9 9 9t9 -9v-298q0 -151 157 -151zM246 537q-101 0 -101 87q0 8 8 8t8 -8q0 -40 21.5 -56t63.5 -16t63.5 16t21.5 56q0 8 8 8t8 -8q0 -87 -101 -87z" />
<glyph unicode="&#x16e;" horiz-adv-x="625" d="M522 186v486q0 9 9 9t9 -9v-486q0 -44 -9 -77t-32 -62.5t-68.5 -45t-111.5 -15.5t-112 16t-69.5 45t-33 62.5t-9.5 76.5v486q0 9 9 9t9 -9v-486q0 -41 8.5 -71.5t30 -57.5t64 -41t103.5 -14q117 0 160 48.5t43 135.5zM322 721q84 0 84 80t-84 80t-84 -80t84 -80zM322 706 q-100 0 -100 95t100 95t100 -95t-100 -95z" />
<glyph unicode="&#x16f;" horiz-adv-x="490" d="M245 4q157 0 157 151v298q0 9 9 9t9 -9v-289q0 -177 -175 -177t-175 177v289q0 9 9 9t9 -9v-298q0 -151 157 -151zM248 520q84 0 84 80t-84 80t-84 -80t84 -80zM248 505q-100 0 -100 95t100 95t100 -95t-100 -95z" />
<glyph unicode="&#x170;" horiz-adv-x="625" d="M522 186v486q0 9 9 9t9 -9v-486q0 -44 -9 -77t-32 -62.5t-68.5 -45t-111.5 -15.5t-112 16t-69.5 45t-33 62.5t-9.5 76.5v486q0 9 9 9t9 -9v-486q0 -41 8.5 -71.5t30 -57.5t64 -41t103.5 -14q117 0 160 48.5t43 135.5zM350 858q9 -7 0 -16l-106 -114q-5 -5 -10 -1 q-5 5 0 10l101 119q7 9 15 2zM454 858q9 -7 0 -16l-106 -114q-5 -5 -10 -1q-5 5 0 10l101 119q7 9 15 2z" />
<glyph unicode="&#x171;" horiz-adv-x="490" d="M245 4q157 0 157 151v298q0 9 9 9t9 -9v-289q0 -177 -175 -177t-175 177v289q0 9 9 9t9 -9v-298q0 -151 157 -151zM277 655q9 -7 0 -16l-106 -114q-5 -5 -10 -1q-5 5 0 10l101 119q7 9 15 2zM381 655q9 -7 0 -16l-106 -114q-5 -5 -10 -1q-5 5 0 10l101 119q7 9 15 2z" />
<glyph unicode="&#x172;" horiz-adv-x="625" d="M461 -150q8 0 8 -8q0 -5 -6 -8q-26 -11 -55 -11q-42 0 -61.5 20t-19.5 51q0 63 63 98q-32 -6 -71 -6q-66 0 -112 16t-69.5 45t-33 62.5t-9.5 76.5v486q0 9 9 9t9 -9v-486q0 -41 8.5 -71.5t30 -57.5t64 -41t103.5 -14q117 0 160 48.5t43 135.5v486q0 9 9 9t9 -9v-486 q0 -149 -117 -186q-38 -17 -58 -44t-20 -57q0 -60 63 -60q23 0 46 9q6 2 7 2z" />
<glyph unicode="&#x173;" horiz-adv-x="490" d="M364 -150q8 0 8 -8q0 -5 -6 -8q-26 -11 -55 -11q-42 0 -61.5 20t-19.5 51q0 62 61 97q-19 -4 -46 -4q-175 0 -175 177v289q0 9 9 9t9 -9v-298q0 -151 157 -151t157 151v298q0 9 9 9t9 -9v-289q0 -132 -96 -165q-37 -17 -56.5 -43.5t-19.5 -56.5q0 -60 63 -60q23 0 46 9 q6 2 7 2z" />
<glyph unicode="&#x174;" horiz-adv-x="826" d="M592 -1l-179 645l-179 -645q-3 -7 -9 -7q-8 0 -9 7l-184 667q-1 4 -1 6q0 9 9 9q7 0 9 -8l176 -649l179 650q2 7 9 7t9 -7l179 -650l176 649q2 8 9 8q9 0 9 -9q0 -2 -1 -6l-184 -667q-1 -7 -9 -7q-6 0 -9 7zM513 745l-100 80l-100 -80q-3 -3 -7 -3q-8 0 -8 8q0 4 5 8 l101 80q5 4 9 4t9 -4l101 -80q5 -4 5 -8q0 -8 -8 -8q-4 0 -7 3z" />
<glyph unicode="&#x175;" horiz-adv-x="656" d="M453 0l-125 430l-125 -430q-2 -8 -10 -8q-7 0 -9 8l-158 445q-2 6 -2 8q0 9 9 9q7 0 9 -7l151 -432l126 432q2 7 9 7t9 -7l126 -432l151 432q2 7 9 7q9 0 9 -9q0 -2 -2 -8l-158 -445q-2 -8 -9 -8q-8 0 -10 8zM428 553l-100 80l-100 -80q-3 -3 -7 -3q-8 0 -8 8q0 4 5 8 l101 80q5 4 9 4t9 -4l101 -80q5 -4 5 -8q0 -8 -8 -8q-4 0 -7 3z" />
<glyph unicode="&#x176;" d="M254 344l209 332q3 5 8 5q9 0 9 -9q0 -3 -2 -6l-215 -341v-324q0 -9 -9 -9t-9 9v324l-215 341q-2 3 -2 6q0 9 9 9q5 0 8 -5zM354 745l-100 80l-100 -80q-3 -3 -7 -3q-8 0 -8 8q0 4 5 8l101 80q5 4 9 4t9 -4l101 -80q5 -4 5 -8q0 -8 -8 -8q-4 0 -7 3z" />
<glyph unicode="&#x177;" horiz-adv-x="428" d="M25 -201q-8 0 -8 8t8 8q75 0 105.5 35t74.5 149l-179 447q-2 6 -2 7q0 9 9 9q6 0 9 -7l172 -435l172 435q3 7 9 7q9 0 9 -9q0 -1 -2 -7l-207 -516q-30 -75 -66 -103t-104 -28zM315 553l-100 80l-100 -80q-3 -3 -7 -3q-8 0 -8 8q0 4 5 8l101 80q5 4 9 4t9 -4l101 -80 q5 -4 5 -8q0 -8 -8 -8q-4 0 -7 3z" />
<glyph unicode="&#x178;" d="M252 344l209 332q3 5 8 5q9 0 9 -9q0 -3 -2 -6l-215 -341v-324q0 -9 -9 -9t-9 9v324l-215 341q-2 3 -2 6q0 9 9 9q5 0 8 -5zM192 748q-15 0 -15 16t15 16t15 -16t-15 -16zM314 748q-15 0 -15 16t15 16t15 -16t-15 -16z" />
<glyph unicode="&#x179;" horiz-adv-x="497" d="M469 0h-445q-8 0 -8 8q0 4 3 8l418 641h-390q-8 0 -8 8t8 8h406q8 0 8 -8q0 -3 -3 -7l-417 -642h428q8 0 8 -8t-8 -8zM323 858q9 -7 0 -16l-106 -114q-5 -5 -10 -1q-5 5 0 10l101 119q7 9 15 2z" />
<glyph unicode="&#x17a;" horiz-adv-x="390" d="M353 0h-316q-8 0 -8 8q0 2 3 7l300 423h-274q-8 0 -8 8t8 8h289q8 0 8 -8q0 -3 -3 -7l-299 -423h300q8 0 8 -8t-8 -8zM272 655q9 -7 0 -16l-106 -114q-5 -5 -10 -1q-5 5 0 10l101 119q7 9 15 2z" />
<glyph unicode="&#x17b;" horiz-adv-x="497" d="M469 0h-445q-8 0 -8 8q0 4 3 8l418 641h-390q-8 0 -8 8t8 8h406q8 0 8 -8q0 -3 -3 -7l-417 -642h428q8 0 8 -8t-8 -8zM248 754q-18 0 -18 18t18 18t18 -18t-18 -18z" />
<glyph unicode="&#x17c;" horiz-adv-x="390" d="M353 0h-316q-8 0 -8 8q0 2 3 7l300 423h-274q-8 0 -8 8t8 8h289q8 0 8 -8q0 -3 -3 -7l-299 -423h300q8 0 8 -8t-8 -8zM196 553q-18 0 -18 18t18 18t18 -18t-18 -18z" />
<glyph unicode="&#x17d;" horiz-adv-x="497" d="M469 0h-445q-8 0 -8 8q0 4 3 8l418 641h-390q-8 0 -8 8t8 8h406q8 0 8 -8q0 -3 -3 -7l-417 -642h428q8 0 8 -8t-8 -8zM246 759l100 80q3 3 7 3q8 0 8 -8q0 -4 -5 -8l-101 -80q-5 -4 -9 -4t-9 4l-101 80q-5 4 -5 8q0 8 8 8q4 0 7 -3z" />
<glyph unicode="&#x17e;" horiz-adv-x="390" d="M353 0h-316q-8 0 -8 8q0 2 3 7l300 423h-274q-8 0 -8 8t8 8h289q8 0 8 -8q0 -3 -3 -7l-299 -423h300q8 0 8 -8t-8 -8zM198 567l100 80q3 3 7 3q8 0 8 -8q0 -4 -5 -8l-101 -80q-5 -4 -9 -4t-9 4l-101 80q-5 4 -5 8q0 8 8 8q4 0 7 -3z" />
<glyph unicode="&#x17f;" horiz-adv-x="214" d="M119 454v-453q0 -9 -9 -9t-9 9v437h-63q-8 0 -8 8t8 8h63v64q0 76 40.5 121.5t119.5 45.5q8 0 8 -8t-8 -8q-71 0 -106.5 -39t-35.5 -112v-64z" />
<glyph unicode="&#x192;" horiz-adv-x="410" d="M282 382h-112l-80 -415q-18 -92 -48 -130t-95 -38q-33 0 -61 13q-7 3 -7 8q0 8 7 8l12 -4q29 -9 56 -9q44 -1 72.5 31.5t44.5 116.5l80 419h-77q-8 0 -8 8t8 8h80l24 121q18 92 48 130t95 38q33 0 61 -13q7 -3 7 -8q0 -8 -7 -8q-1 0 -2.5 0.5l-4.5 1.5t-5 2q-29 9 -56 9 q-47 0 -74 -32.5t-43 -115.5l-24 -125h109q8 0 8 -8t-8 -8z" />
<glyph unicode="&#x1e2;" horiz-adv-x="832" d="M437 331v-315h344q8 0 8 -8t-8 -8h-353q-9 0 -9 9v213h-252l-138 -224q-4 -6 -9 -6q-9 0 -9 9q0 3 4 9l405 657q4 6 10 6h339q8 0 8 -8t-8 -8h-332v-310h261q8 0 8 -8t-8 -8h-261zM176 238h243v395zM648 755h-210q-8 0 -8 8t8 8h210q8 0 8 -8t-8 -8z" />
<glyph unicode="&#x1e3;" horiz-adv-x="796" d="M226 468q71 0 112.5 -33t50.5 -91q38 124 185 124q47 0 82.5 -14t54 -34.5t29.5 -49t14 -50.5t3 -46q0 -37 -19 -37h-345q0 -234 181 -234q84 0 152 49q6 4 8 4q8 0 8 -8q0 -3 -3 -6q-68 -55 -165 -55q-78 0 -125 39.5t-60 105.5q-10 -64 -55 -104t-128 -40 q-81 0 -123.5 36t-42.5 97q0 64 45.5 98t122.5 34h167v58q0 68 -39.5 104.5t-109.5 36.5q-97 0 -141 -75q-3 -6 -9 -6q-8 0 -8 8q0 3 3 8q50 81 155 81zM206 4q72 0 120.5 39t48.5 118v77h-167q-68 0 -109 -30.5t-41 -86.5q0 -55 38 -86t110 -31zM740 277q0 175 -166 175 q-180 0 -180 -199h345q1 16 1 24zM494 559h-210q-8 0 -8 8t8 8h210q8 0 8 -8t-8 -8z" />
<glyph unicode="&#x1fa;" horiz-adv-x="604" d="M380 997q6 -10 -4 -15l-140 -71q-7 -4 -10 2t4 9l136 78q9 5 14 -3zM468 222h-332l-87 -223q-3 -7 -9 -7q-9 0 -9 8q0 3 1 5l263 671q2 5 7 5t7 -5l263 -671q1 -2 1 -5q0 -8 -9 -8q-6 0 -9 7zM462 238l-160 411l-160 -411h320zM303 721q84 0 84 80t-84 80t-84 -80t84 -80 zM303 706q-100 0 -100 95t100 95t100 -95t-100 -95z" />
<glyph unicode="&#x1fb;" horiz-adv-x="462" d="M392 311v-310q0 -8 -9 -8q-8 0 -8 8v73q-19 -43 -65 -64.5t-104 -21.5q-81 0 -123.5 37t-42.5 99q0 65 45.5 100t122.5 35h167v52q0 68 -39.5 104.5t-109.5 36.5q-101 0 -143 -72q-3 -6 -9 -6q-8 0 -8 8q0 4 3 8q48 78 157 78q81 0 123.5 -42t42.5 -115zM206 4 q71 0 120 34t49 100v106h-167q-68 0 -109 -31.5t-41 -88.5q0 -56 38.5 -88t109.5 -32zM232 507q84 0 84 80t-84 80t-84 -80t84 -80zM232 492q-100 0 -100 95t100 95t100 -95t-100 -95zM282 835q9 -7 0 -16l-106 -114q-5 -5 -10 -1q-5 5 0 10l101 119q7 9 15 2z" />
<glyph unicode="&#x1fc;" horiz-adv-x="832" d="M437 331v-315h344q8 0 8 -8t-8 -8h-353q-9 0 -9 9v213h-252l-138 -224q-4 -6 -9 -6q-9 0 -9 9q0 3 4 9l405 657q4 6 10 6h339q8 0 8 -8t-8 -8h-332v-310h261q8 0 8 -8t-8 -8h-261zM176 238h243v395zM618 858q9 -7 0 -16l-106 -114q-5 -5 -10 -1q-5 5 0 10l101 119 q7 9 15 2z" />
<glyph unicode="&#x1fd;" horiz-adv-x="796" d="M226 468q71 0 112.5 -33t50.5 -91q38 124 185 124q47 0 82.5 -14t54 -34.5t29.5 -49t14 -50.5t3 -46q0 -37 -19 -37h-345q0 -234 181 -234q84 0 152 49q6 4 8 4q8 0 8 -8q0 -3 -3 -6q-68 -55 -165 -55q-78 0 -125 39.5t-60 105.5q-10 -64 -55 -104t-128 -40 q-81 0 -123.5 36t-42.5 97q0 64 45.5 98t122.5 34h167v58q0 68 -39.5 104.5t-109.5 36.5q-97 0 -141 -75q-3 -6 -9 -6q-8 0 -8 8q0 3 3 8q50 81 155 81zM206 4q72 0 120.5 39t48.5 118v77h-167q-68 0 -109 -30.5t-41 -86.5q0 -55 38 -86t110 -31zM740 277q0 175 -166 175 q-180 0 -180 -199h345q1 16 1 24zM469 655q9 -7 0 -16l-106 -114q-5 -5 -10 -1q-5 5 0 10l101 119q7 9 15 2z" />
<glyph unicode="&#x1fe;" horiz-adv-x="704" d="M350 687q131 0 208 -71l61 77q3 4 8 4q7 0 7 -7q0 -4 -3 -7l-62 -79q82 -88 82 -268q0 -175 -77 -262.5t-224 -87.5q-134 0 -209 72l-62 -79q-3 -3 -7 -3q-7 0 -7 7q0 4 3 7l62 79q-81 89 -81 267q0 176 77 263.5t224 87.5zM350 2q139 0 211 84.5t72 249.5q0 168 -75 254 l-406 -518q70 -70 198 -70zM67 336q0 -168 74 -253l406 518q-72 70 -197 70q-139 0 -211 -84.5t-72 -250.5zM404 858q9 -7 0 -16l-106 -114q-5 -5 -10 -1q-5 5 0 10l101 119q7 9 15 2z" />
<glyph unicode="&#x1ff;" horiz-adv-x="488" d="M244 -13q-101 0 -151 62l-47 -51q-3 -3 -7 -3q-9 0 -9 9q0 4 4 7l49 52q-38 59 -38 164q0 241 199 241q103 0 154 -67l52 56q3 3 7 3q9 0 9 -9q0 -4 -4 -7l-54 -58q35 -58 35 -159q0 -240 -199 -240zM63 227q0 -95 32 -150l291 311q-45 64 -142 64q-181 0 -181 -225z M244 3q181 0 181 224q0 92 -30 146l-290 -311q44 -59 139 -59zM328 655q9 -7 0 -16l-106 -114q-5 -5 -10 -1q-5 5 0 10l101 119q7 9 15 2z" />
<glyph unicode="&#x218;" horiz-adv-x="545" d="M458 580q-61 91 -188 91q-95 0 -137 -42t-42 -103q0 -46 29.5 -78.5t73.5 -49t95.5 -36t95.5 -39t73.5 -58.5t29.5 -93q0 -89 -57 -137.5t-169 -48.5q-145 0 -219 115q-3 5 -3 9q0 9 9 9q5 0 10 -8q65 -109 203 -109q103 0 155.5 44.5t52.5 125.5q0 44 -22 76.5t-57 52 t-77 35t-84.5 31t-77.5 34.5t-57 50.5t-22 74.5q0 71 48 116t149 45q132 0 202 -97q2 -3 2 -6q0 -8 -8 -8q-5 0 -8 4zM283 -67q0 -69 -27 -109q-3 -4 -7 -4q-6 0 -6 6q0 2 2 6q14 21 14 52q0 15 -5 29.5t-5 22.5q0 20 17 20t17 -23z" />
<glyph unicode="&#x219;" horiz-adv-x="399" d="M196 452q-58 0 -92 -24.5t-34 -71.5q0 -38 29.5 -62t72 -37.5t85 -28.5t72 -44t29.5 -73q0 -63 -43 -93.5t-117 -30.5q-101 0 -164 68q-3 3 -3 6q0 8 8 8q3 0 7 -4q60 -62 152 -62q66 0 104 26.5t38 81.5q0 40 -29.5 66.5t-72 40.5l-85 28t-72 41t-29.5 69q0 55 40 83.5 t104 28.5q48 0 86.5 -18t58.5 -48q2 -3 2 -6q0 -8 -8 -8q-4 0 -7 4q-41 60 -132 60zM224 -67q0 -69 -27 -109q-3 -4 -7 -4q-6 0 -6 6q0 2 2 6q14 21 14 52q0 15 -5 29.5t-5 22.5q0 20 17 20t17 -23z" />
<glyph unicode="&#x237;" horiz-adv-x="183" d="M-24 -185q50 0 79.5 35.5t29.5 91.5v511q0 9 9 9t9 -9v-511q0 -62 -34 -102.5t-93 -40.5q-8 0 -8 8t8 8z" />
<glyph unicode="&#x2c6;" horiz-adv-x="334" d="M267 553l-100 80l-100 -80q-3 -3 -7 -3q-8 0 -8 8q0 4 5 8l101 80q5 4 9 4t9 -4l101 -80q5 -4 5 -8q0 -8 -8 -8q-4 0 -7 3z" />
<glyph unicode="&#x2c7;" horiz-adv-x="330" d="M165 567l100 80q3 3 7 3q8 0 8 -8q0 -4 -5 -8l-101 -80q-5 -4 -9 -4t-9 4l-101 80q-5 4 -5 8q0 8 8 8q4 0 7 -3z" />
<glyph unicode="&#x2d8;" horiz-adv-x="315" d="M157 537q-101 0 -101 87q0 8 8 8t8 -8q0 -40 21.5 -56t63.5 -16t63.5 16t21.5 56q0 8 8 8t8 -8q0 -87 -101 -87z" />
<glyph unicode="&#x2d9;" horiz-adv-x="277" d="M139 553q-18 0 -18 18t18 18t18 -18t-18 -18z" />
<glyph unicode="&#x2da;" horiz-adv-x="267" d="M133 520q84 0 84 80t-84 80t-84 -80t84 -80zM133 505q-100 0 -100 95t100 95t100 -95t-100 -95z" />
<glyph unicode="&#x2db;" horiz-adv-x="308" d="M213 -150q8 0 8 -8q0 -5 -6 -8q-26 -11 -55 -11q-42 0 -61.5 20t-19.5 51q0 71 80 106h17q-38 -17 -58.5 -44t-20.5 -57q0 -60 63 -60q23 0 46 9q6 2 7 2z" />
<glyph unicode="&#x2dc;" horiz-adv-x="378" d="M253 560q35 0 52 34q4 8 10 8q8 0 8 -8q0 -3 -2 -7q-20 -43 -68 -43q-28 0 -66.5 21t-61.5 21q-35 0 -52 -34q-4 -8 -10 -8q-8 0 -8 8q0 3 2 7q20 43 68 43q28 0 66 -21t62 -21z" />
<glyph unicode="&#x2dd;" horiz-adv-x="489" d="M249 655q9 -7 0 -16l-106 -114q-5 -5 -10 -1q-5 5 0 10l101 119q7 9 15 2zM353 655q9 -7 0 -16l-106 -114q-5 -5 -10 -1q-5 5 0 10l101 119q7 9 15 2z" />
<glyph unicode="&#x1e80;" horiz-adv-x="826" d="M592 -1l-179 645l-179 -645q-3 -7 -9 -7q-8 0 -9 7l-184 667q-1 4 -1 6q0 9 9 9q7 0 9 -8l176 -649l179 650q2 7 9 7t9 -7l179 -650l176 649q2 8 9 8q9 0 9 -9q0 -2 -1 -6l-184 -667q-1 -7 -9 -7q-6 0 -9 7zM356 858q8 7 15 -2l101 -119q5 -5 0 -10q-5 -4 -10 1l-106 114 q-9 9 0 16z" />
<glyph unicode="&#x1e81;" horiz-adv-x="656" d="M453 0l-125 430l-125 -430q-2 -8 -10 -8q-7 0 -9 8l-158 445q-2 6 -2 8q0 9 9 9q7 0 9 -7l151 -432l126 432q2 7 9 7t9 -7l126 -432l151 432q2 7 9 7q9 0 9 -9q0 -2 -2 -8l-158 -445q-2 -8 -9 -8q-8 0 -10 8zM272 655q8 7 15 -2l101 -119q5 -5 0 -10q-5 -4 -10 1 l-106 114q-9 9 0 16z" />
<glyph unicode="&#x1e82;" horiz-adv-x="826" d="M592 -1l-179 645l-179 -645q-3 -7 -9 -7q-8 0 -9 7l-184 667q-1 4 -1 6q0 9 9 9q7 0 9 -8l176 -649l179 650q2 7 9 7t9 -7l179 -650l176 649q2 8 9 8q9 0 9 -9q0 -2 -1 -6l-184 -667q-1 -7 -9 -7q-6 0 -9 7zM479 858q9 -7 0 -16l-106 -114q-5 -5 -10 -1q-5 5 0 10 l101 119q7 9 15 2z" />
<glyph unicode="&#x1e83;" horiz-adv-x="656" d="M453 0l-125 430l-125 -430q-2 -8 -10 -8q-7 0 -9 8l-158 445q-2 6 -2 8q0 9 9 9q7 0 9 -7l151 -432l126 432q2 7 9 7t9 -7l126 -432l151 432q2 7 9 7q9 0 9 -9q0 -2 -2 -8l-158 -445q-2 -8 -9 -8q-8 0 -10 8zM385 655q9 -7 0 -16l-106 -114q-5 -5 -10 -1q-5 5 0 10 l101 119q7 9 15 2z" />
<glyph unicode="&#x1e84;" horiz-adv-x="826" d="M592 -1l-179 645l-179 -645q-3 -7 -9 -7q-8 0 -9 7l-184 667q-1 4 -1 6q0 9 9 9q7 0 9 -8l176 -649l179 650q2 7 9 7t9 -7l179 -650l176 649q2 8 9 8q9 0 9 -9q0 -2 -1 -6l-184 -667q-1 -7 -9 -7q-6 0 -9 7zM352 748q-15 0 -15 16t15 16t15 -16t-15 -16zM474 748 q-15 0 -15 16t15 16t15 -16t-15 -16z" />
<glyph unicode="&#x1e85;" horiz-adv-x="656" d="M453 0l-125 430l-125 -430q-2 -8 -10 -8q-7 0 -9 8l-158 445q-2 6 -2 8q0 9 9 9q7 0 9 -7l151 -432l126 432q2 7 9 7t9 -7l126 -432l151 432q2 7 9 7q9 0 9 -9q0 -2 -2 -8l-158 -445q-2 -8 -9 -8q-8 0 -10 8zM267 551q-15 0 -15 16t15 16t15 -16t-15 -16zM389 551 q-15 0 -15 16t15 16t15 -16t-15 -16z" />
<glyph unicode="&#x1ef2;" d="M254 344l209 332q3 5 8 5q9 0 9 -9q0 -3 -2 -6l-215 -341v-324q0 -9 -9 -9t-9 9v324l-215 341q-2 3 -2 6q0 9 9 9q5 0 8 -5zM187 858q8 7 15 -2l101 -119q5 -5 0 -10q-5 -4 -10 1l-106 114q-9 9 0 16z" />
<glyph unicode="&#x1ef3;" horiz-adv-x="428" d="M25 -201q-8 0 -8 8t8 8q75 0 105.5 35t74.5 149l-179 447q-2 6 -2 7q0 9 9 9q6 0 9 -7l172 -435l172 435q3 7 9 7q9 0 9 -9q0 -1 -2 -7l-207 -516q-30 -75 -66 -103t-104 -28zM144 655q8 7 15 -2l101 -119q5 -5 0 -10q-5 -4 -10 1l-106 114q-9 9 0 16z" />
<glyph unicode="&#x2009;" horiz-adv-x="14" />
<glyph unicode="&#x2013;" horiz-adv-x="584" d="M468 274h-352q-8 0 -8 8t8 8h352q8 0 8 -8t-8 -8z" />
<glyph unicode="&#x2014;" horiz-adv-x="918" d="M802 274h-686q-8 0 -8 8t8 8h686q8 0 8 -8t-8 -8z" />
<glyph unicode="&#x2018;" horiz-adv-x="137" d="M53 568q0 68 27 109q3 4 7 4q6 0 6 -6q0 -2 -2 -6q-14 -21 -14 -52q0 -15 5 -29.5t5 -22.5q0 -20 -17 -20t-17 23z" />
<glyph unicode="&#x2019;" horiz-adv-x="137" d="M93 658q0 -68 -27 -109q-3 -4 -7 -4q-6 0 -6 6q0 2 2 6q14 21 14 52q0 15 -5 29.5t-5 22.5q0 20 17 20t17 -23z" />
<glyph unicode="&#x201a;" horiz-adv-x="141" d="M96 16q0 -68 -27 -109q-3 -4 -7 -4q-6 0 -6 6q0 2 2 6q14 21 14 52q0 15 -5 29.5t-5 22.5q0 20 17 20t17 -23z" />
<glyph unicode="&#x201c;" horiz-adv-x="234" d="M53 568q0 68 27 109q3 4 7 4q6 0 6 -6q0 -2 -2 -6q-14 -21 -14 -52q0 -15 5 -29.5t5 -22.5q0 -20 -17 -20t-17 23zM140 568q0 68 27 109q3 4 7 4q6 0 6 -6q0 -2 -2 -6q-14 -21 -14 -52q0 -15 5 -29.5t5 -22.5q0 -20 -17 -20t-17 23z" />
<glyph unicode="&#x201d;" horiz-adv-x="234" d="M180 658q0 -68 -27 -109q-3 -4 -7 -4q-6 0 -6 6q0 2 2 6q14 21 14 52q0 15 -5 29.5t-5 22.5q0 20 17 20t17 -23zM93 658q0 -68 -27 -109q-3 -4 -7 -4q-6 0 -6 6q0 2 2 6q14 21 14 52q0 15 -5 29.5t-5 22.5q0 20 17 20t17 -23z" />
<glyph unicode="&#x201e;" horiz-adv-x="238" d="M183 16q0 -68 -27 -109q-3 -4 -7 -4q-6 0 -6 6q0 2 2 6q14 21 14 52q0 15 -5 29.5t-5 22.5q0 20 17 20t17 -23zM96 16q0 -68 -27 -109q-3 -4 -7 -4q-6 0 -6 6q0 2 2 6q14 21 14 52q0 15 -5 29.5t-5 22.5q0 20 17 20t17 -23z" />
<glyph unicode="&#x2020;" horiz-adv-x="421" d="M210 -150q-6 0 -6 7l-4 628h-125q-8 0 -8 8t8 8h125l-2 198q0 13 12 13t12 -13l-2 -198h125q8 0 8 -8t-8 -8h-125l-4 -628q0 -7 -6 -7z" />
<glyph unicode="&#x2021;" horiz-adv-x="421" d="M200 485h-125q-8 0 -8 8t8 8h125l-2 198q0 13 12 13t12 -13l-2 -198h125q8 0 8 -8t-8 -8h-125l-3 -229l3 -229h125q8 0 8 -8t-8 -8h-125l2 -198q0 -13 -12 -13t-12 13l2 198h-125q-8 0 -8 8t8 8h125l2 229z" />
<glyph unicode="&#x2022;" horiz-adv-x="418" d="M209 149q-130 0 -130 130q0 136 130 136t130 -136q0 -130 -130 -130z" />
<glyph unicode="&#x2030;" horiz-adv-x="1078" d="M188 376q118 0 118 148t-118 148t-118 -148t118 -148zM188 361q-134 0 -134 163t134 163t134 -163t-134 -163zM558 2q118 0 118 148t-118 148t-118 -148t118 -148zM558 -13q-134 0 -134 163t134 163t134 -163t-134 -163zM196 7l337 666q3 8 10 8q8 0 8 -8q0 -3 -2 -7 l-337 -666q-3 -8 -10 -8q-8 0 -8 8q0 3 2 7zM890 2q118 0 118 148t-118 148t-118 -148t118 -148zM890 -13q-134 0 -134 163t134 163t134 -163t-134 -163z" />
<glyph unicode="&#x2039;" horiz-adv-x="324" d="M63 212q0 4 6 10l177 205q3 3 6 3q8 0 8 -8q0 -4 -4 -8l-175 -202l175 -202q4 -4 4 -8q0 -8 -8 -8q-3 0 -6 3l-177 205q-6 6 -6 10z" />
<glyph unicode="&#x203a;" horiz-adv-x="324" d="M261 212q0 -4 -6 -10l-177 -205q-3 -3 -6 -3q-8 0 -8 8q0 4 4 8l175 202l-175 202q-4 4 -4 8q0 8 8 8q3 0 6 -3l177 -205q6 -6 6 -10z" />
<glyph unicode="&#x2044;" horiz-adv-x="288" d="M281 664l-258 -665q-3 -7 -9 -7q-9 0 -9 9q0 2 2 8l258 665q3 7 9 7q9 0 9 -9q0 -2 -2 -8z" />
<glyph unicode="&#x2070;" horiz-adv-x="288" d="M144 730q116 0 116 -155q0 -156 -116 -156t-116 156q0 81 29 118t87 37zM144 434q51 0 75.5 34t24.5 107q0 140 -100 140q-52 0 -76 -34t-24 -106q0 -73 24 -107t76 -34z" />
<glyph unicode="&#x2074;" horiz-adv-x="254" d="M44 512h132v184zM192 512h31q7 0 7 -7t-7 -7h-31v-68q0 -8 -8 -8t-8 8v68h-146q-7 0 -7 7q0 2 4 8l149 208q4 6 8 6q8 0 8 -8v-207z" />
<glyph unicode="&#x2075;" horiz-adv-x="261" d="M215 708h-140l-20 -116q27 23 74 23t75 -23.5t28 -73.5q0 -48 -27 -73.5t-76 -25.5q-71 0 -100 57q-2 4 -2 7q0 7 6 7q5 0 8 -5q27 -52 88 -52q42 0 64.5 22t22.5 63q0 83 -87 83q-43 0 -76 -25q-4 -3 -7 -3q-7 0 -7 7q0 3 1 7l22 128q1 7 8 7h145q7 0 7 -7t-7 -7z" />
<glyph unicode="&#x2076;" horiz-adv-x="266" d="M136 613q46 0 73.5 -25t27.5 -72q0 -49 -27 -73t-74 -24q-107 0 -107 148q0 81 30.5 122t82.5 41q50 0 74 -24q3 -3 3 -6q0 -8 -8 -8q-3 0 -9 4q-27 18 -60 18q-97 0 -97 -154q7 18 32 35.5t59 17.5zM136 434q39 0 62 21.5t23 60.5q0 40 -23 61t-62 21q-62 0 -88 -60 q0 -47 24 -75.5t64 -28.5z" />
<glyph unicode="&#x2077;" horiz-adv-x="224" d="M75 429q0 -8 -8 -8t-8 8q0 46 13.5 81.5t32.5 58t38.5 42t33 44t13.5 53.5h-166q-7 0 -7 7t7 7h175q7 0 7 -7q0 -35 -13.5 -62.5t-33 -47t-38.5 -41t-32.5 -56t-13.5 -79.5z" />
<glyph unicode="&#x2078;" horiz-adv-x="246" d="M123 419q-47 0 -75 22.5t-28 64.5q0 33 18.5 53t47.5 27q-22 6 -38 23.5t-16 45.5q0 36 25 55.5t66 19.5t66 -19.5t25 -55.5q0 -28 -16 -45.5t-38 -23.5q29 -7 47.5 -27t18.5 -53q0 -42 -28 -64.5t-75 -22.5zM123 716q-75 0 -75 -61q0 -29 20.5 -45.5t54.5 -16.5 t54.5 16.5t20.5 45.5q0 61 -75 61zM123 579q-87 0 -87 -73t87 -73t87 73t-87 73z" />
<glyph unicode="&#x2079;" horiz-adv-x="266" d="M130 536q-46 0 -73.5 25t-27.5 72q0 49 27 73t74 24q107 0 107 -148q0 -81 -30.5 -122t-82.5 -41q-50 0 -74 24q-3 3 -3 6q0 8 8 8q3 0 9 -4q27 -18 60 -18q97 0 97 154q-7 -18 -32 -35.5t-59 -17.5zM130 715q-39 0 -62 -21.5t-23 -60.5q0 -40 23 -61t62 -21q62 0 88 60 q0 47 -24 75.5t-64 28.5z" />
<glyph unicode="&#x2080;" horiz-adv-x="288" d="M144 254q116 0 116 -155q0 -156 -116 -156t-116 156q0 81 29 118t87 37zM144 -42q51 0 75.5 34t24.5 107q0 140 -100 140q-52 0 -76 -34t-24 -106q0 -73 24 -107t76 -34z" />
<glyph unicode="&#x2081;" horiz-adv-x="157" d="M107 245v-289q0 -8 -8 -8t-8 8v275l-63 -42q-5 -3 -7 -3q-7 0 -7 7q0 4 4 7l74 50q6 3 7 3q8 0 8 -8z" />
<glyph unicode="&#x2082;" horiz-adv-x="259" d="M217 -51h-181q-7 0 -7 7q0 32 18.5 56.5t45 40t53 30.5t45 37t18.5 50q0 30 -20 50t-61 20q-57 0 -73 -48q-2 -6 -8 -6q-7 0 -7 7q0 2 1 5q19 56 87 56q48 0 72.5 -23t24.5 -61q0 -30 -18.5 -54t-45 -40t-53 -31t-45 -36t-18.5 -46h172q7 0 7 -7t-7 -7z" />
<glyph unicode="&#x2083;" horiz-adv-x="254" d="M191 234h-145q-7 0 -7 7t7 7h159q7 0 7 -7q0 -4 -3 -7l-92 -106h11q51 0 74.5 -26.5t23.5 -66.5q0 -92 -108 -92q-64 0 -93 48q-2 4 -2 7q0 7 7 7q4 0 7 -5q27 -43 81 -43q92 0 92 78q0 79 -84 79h-23q-7 0 -7 7q0 3 3 6z" />
<glyph unicode="&#x2084;" horiz-adv-x="254" d="M44 38h132v184zM192 38h31q7 0 7 -7t-7 -7h-31v-68q0 -8 -8 -8t-8 8v68h-146q-7 0 -7 7q0 2 4 8l149 208q4 6 8 6q8 0 8 -8v-207z" />
<glyph unicode="&#x2085;" horiz-adv-x="261" d="M215 232h-140l-20 -116q27 23 74 23t75 -23.5t28 -73.5q0 -48 -27 -73.5t-76 -25.5q-71 0 -100 57q-2 4 -2 7q0 7 6 7q5 0 8 -5q27 -52 88 -52q42 0 64.5 22t22.5 63q0 83 -87 83q-43 0 -76 -25q-5 -3 -7 -3q-7 0 -7 7q0 3 1 7l22 128q1 7 8 7h145q7 0 7 -7t-7 -7z" />
<glyph unicode="&#x2086;" horiz-adv-x="266" d="M136 137q46 0 73.5 -25t27.5 -72q0 -49 -27 -73t-74 -24q-107 0 -107 148q0 81 30.5 122t82.5 41q50 0 74 -24q3 -3 3 -6q0 -8 -8 -8q-3 0 -9 4q-27 18 -60 18q-97 0 -97 -154q7 18 32 35.5t59 17.5zM136 -42q39 0 62 21.5t23 60.5q0 40 -23 61t-62 21q-62 0 -88 -60 q0 -47 24 -75.5t64 -28.5z" />
<glyph unicode="&#x2087;" horiz-adv-x="224" d="M75 -45q0 -8 -8 -8t-8 8q0 46 13.5 81.5t32.5 58t38.5 42t33 44t13.5 53.5h-166q-7 0 -7 7t7 7h175q7 0 7 -7q0 -35 -13.5 -62.5t-33 -47t-38.5 -41t-32.5 -56t-13.5 -79.5z" />
<glyph unicode="&#x2088;" horiz-adv-x="246" d="M123 -57q-47 0 -75 22.5t-28 64.5q0 33 18.5 53t47.5 27q-22 6 -38 23.5t-16 45.5q0 36 25 55.5t66 19.5t66 -19.5t25 -55.5q0 -28 -16 -45.5t-38 -23.5q29 -7 47.5 -27t18.5 -53q0 -42 -28 -64.5t-75 -22.5zM123 240q-75 0 -75 -61q0 -29 20.5 -45.5t54.5 -16.5 t54.5 16.5t20.5 45.5q0 61 -75 61zM123 103q-87 0 -87 -73t87 -73t87 73t-87 73z" />
<glyph unicode="&#x2089;" horiz-adv-x="266" d="M130 60q-46 0 -73.5 25t-27.5 72q0 49 27 73t74 24q107 0 107 -148q0 -81 -30.5 -122t-82.5 -41q-50 0 -74 24q-3 3 -3 6q0 8 8 8q3 0 9 -4q27 -18 60 -18q97 0 97 154q-7 -18 -32 -35.5t-59 -17.5zM130 239q-39 0 -62 -21.5t-23 -60.5q0 -40 23 -61t62 -21q62 0 88 60 q0 47 -24 75.5t-64 28.5z" />
<glyph unicode="&#x20ac;" horiz-adv-x="629" d="M52 266h-38q-8 0 -8 8t8 8h37q-2 17 -2 54q0 31 1 46h-36q-8 0 -8 8t8 8h37q27 289 299 289q71 0 129.5 -27t92.5 -75q2 -3 2 -6q0 -9 -9 -9q-5 0 -8 4q-29 43 -86 70t-121 27q-254 0 -280 -273h218q8 0 8 -8t-8 -8h-220q-1 -15 -1 -46q0 -37 2 -54h219q8 0 8 -8t-8 -8 h-218q30 -264 280 -264q65 0 124 27t88 70q3 4 8 4q9 0 9 -9q0 -3 -2 -6q-34 -47 -95 -74.5t-132 -27.5q-268 0 -298 280z" />
<glyph unicode="&#x2116;" horiz-adv-x="1059" d="M873 272q126 0 126 157t-126 157t-126 -157t126 -157zM873 130q-17 0 -17 17q0 19 17 19q18 0 18 -19q0 -17 -18 -17zM873 257q-143 0 -143 172t143 172t143 -172t-143 -172zM623 27v645q0 9 9 9t9 -9v-671q0 -9 -9 -9q-6 0 -10 6l-519 650v-647q0 -9 -9 -9t-9 9v671 q0 9 9 9q4 0 9 -6z" />
<glyph unicode="&#x2122;" horiz-adv-x="399" d="M169 638h-57v-163q0 -8 -8 -8t-8 8v163h-56q-7 0 -7 7t7 7h129q7 0 7 -7t-7 -7zM291 516q-7 0 -10 7l-50 96v-144q0 -8 -7 -8q-8 0 -8 8v172q0 8 8 8q5 0 8 -6l59 -114l59 114q3 6 8 6q8 0 8 -8v-172q0 -8 -8 -8q-7 0 -7 8v144l-50 -96q-3 -7 -10 -7z" />
<glyph unicode="&#x2212;" horiz-adv-x="444" d="M8 226h428q8 0 8 -8t-8 -8h-428q-8 0 -8 8t8 8z" />
<glyph unicode="&#x221a;" horiz-adv-x="539" d="M472 695l-217 -855q-2 -11 -10 -11q-6 0 -9 7l-168 417q-3 9 -3 10q0 9 9 9q6 0 9 -8l160 -402l213 842q2 8 9 8q9 0 9 -9q0 -2 -2 -8z" />
<glyph unicode="&#x2260;" horiz-adv-x="444" d="M8 303h261l45 66q3 4 7 4q8 0 8 -8q0 -2 -2 -5l-39 -57h148q8 0 8 -8t-8 -8h-159l-92 -137h251q8 0 8 -8t-8 -8h-262l-45 -67q-3 -4 -7 -4q-8 0 -8 8q0 2 2 5l39 58h-147q-8 0 -8 8t8 8h158l92 137h-250q-8 0 -8 8t8 8z" />
<glyph unicode="&#x2264;" horiz-adv-x="344" d="M16 16h312q8 0 8 -8t-8 -8h-312q-8 0 -8 8t8 8zM30 287l302 -183q4 -3 4 -7q0 -8 -8 -8q-3 0 -6 2l-308 188q-6 3 -6 8t6 8l308 188q3 2 6 2q8 0 8 -8q0 -4 -4 -7z" />
<glyph unicode="&#x2265;" horiz-adv-x="344" d="M16 16h312q8 0 8 -8t-8 -8h-312q-8 0 -8 8t8 8zM12 104l302 183l-302 183q-4 3 -4 7q0 8 8 8q3 0 6 -2l308 -188q6 -3 6 -8t-6 -8l-308 -188q-3 -2 -6 -2q-8 0 -8 8q0 4 4 7z" />
<glyph unicode="&#xe000;" horiz-adv-x="460" d="M0 460h460v-460h-460v460z" />
<glyph unicode="&#xf6c3;" horiz-adv-x="141" d="M90 -67q0 -69 -27 -109q-3 -4 -7 -4q-6 0 -6 6q0 2 2 6q14 21 14 52q0 15 -5 29.5t-5 22.5q0 20 17 20t17 -23z" />
<glyph unicode="&#xfb06;" horiz-adv-x="643" d="M196 452q-58 0 -92 -24.5t-34 -71.5q0 -38 29.5 -62t72 -37.5t85 -28.5t72 -44t29.5 -73q0 -63 -43 -93.5t-117 -30.5q-101 0 -164 68q-3 3 -3 6q0 8 8 8q3 0 7 -4q60 -62 152 -62q66 0 104 26.5t38 81.5q0 40 -29.5 66.5t-72 40.5l-85 28t-72 41t-29.5 69q0 55 40 83.5 t104 28.5q50 0 92 -21q-59 59 -59 123q0 48 30.5 82.5t97.5 34.5q68 0 104.5 -41t36.5 -118v-74h90q8 0 8 -8t-8 -8h-90v-328q0 -51 19 -76.5t63 -25.5q8 0 8 -8t-8 -8q-100 0 -100 118v328h-62q-8 0 -8 8t8 8h62v74q0 142 -125 142q-56 0 -83.5 -30t-27.5 -70 q0 -32 15.5 -64t33 -52.5t47.5 -50.5q3 -3 3 -7q0 -8 -8 -8q-4 0 -7 4q-41 60 -132 60z" />
<glyph horiz-adv-x="592" d="M296 2q118 0 168 78t50 257q0 178 -50 256t-168 78t-168 -78t-50 -256q0 -179 50 -257t168 -78zM296 -14q-126 0 -181 82t-55 269q0 186 55 268t181 82t181 -82t55 -268q0 -187 -55 -269t-181 -82z" />
<glyph horiz-adv-x="592" d="M366 672v-671q0 -9 -9 -9t-9 9v654l-219 -163q-5 -3 -7 -3q-9 0 -9 9q0 5 5 8l231 172q4 3 8 3q9 0 9 -9z" />
<glyph horiz-adv-x="592" d="M101 18h399q9 0 9 -9t-9 -9h-409q-9 0 -9 9q0 48 22 88.5t57 69.5t77.5 55.5t85.5 53.5t78 56.5t57 71t22 91.5q0 75 -50.5 125.5t-133.5 50.5q-72 0 -112 -28.5t-59 -83.5q-2 -7 -10 -7t-8 8q0 2 1 5q40 122 188 122q91 0 146.5 -54t55.5 -138q0 -51 -22 -94.5 t-57 -74.5t-77.5 -59t-85 -54t-77.5 -53.5t-57 -63.5t-22 -78z" />
<glyph horiz-adv-x="592" d="M459 655h-327q-9 0 -9 9t9 9h346q9 0 9 -9q0 -4 -3 -7l-230 -267h52q103 0 154.5 -53.5t51.5 -144.5q0 -98 -56 -152t-164 -54q-158 0 -211 107q-2 4 -2 7q0 7 8 7q6 0 10 -8q22 -47 73.5 -72t121.5 -25q100 0 150.5 49t50.5 141q0 81 -46 131t-141 50h-70q-9 0 -9 9 q0 5 5 10z" />
<glyph horiz-adv-x="592" d="M432 672v-491h82q9 0 9 -8q0 -9 -9 -9h-82v-163q0 -9 -9 -9t-9 9v163h-336q-9 0 -9 9q0 3 3 8l342 494q4 6 9 6q9 0 9 -9zM95 181h319v463z" />
<glyph horiz-adv-x="592" d="M481 657h-310l-58 -300q63 73 182 73q101 0 160 -57.5t59 -161.5q0 -111 -59.5 -168t-159.5 -57q-153 0 -217 125q-1 2 -1 5q0 8 8 8q5 0 8 -6q59 -116 202 -116q90 0 145 53t55 156q0 100 -55 151.5t-145 51.5q-59 0 -100 -17t-81 -60q-4 -4 -9 -4q-11 0 -11 11q0 3 1 8 l60 310q2 11 13 11h313q8 0 8 -8t-8 -8z" />
<glyph horiz-adv-x="592" d="M297 421q102 0 162 -56t60 -160q0 -112 -59 -165.5t-163 -53.5q-114 0 -169 88t-55 246q0 192 59.5 279.5t180.5 87.5q53 0 94.5 -15.5t62.5 -36.5q4 -4 4 -8q0 -8 -8 -8q-4 0 -8 4q-54 48 -145 48q-223 0 -223 -334v-46q64 130 207 130zM297 2q204 0 204 203 q0 100 -55.5 150t-148.5 50q-135 0 -203 -135q0 -118 50 -193t153 -75z" />
<glyph horiz-adv-x="592" d="M484 657h-387q-8 0 -8 8t8 8h397q8 0 8 -8q0 -44 -16.5 -86t-42.5 -78t-57.5 -73t-63.5 -80t-58 -91t-42.5 -114.5t-16.5 -141.5q0 -9 -9 -9t-9 9q0 76 16.5 143t42.5 116t58 93t63.5 81t57.5 71.5t42.5 73t16.5 78.5z" />
<glyph horiz-adv-x="592" d="M296 -14q-105 0 -164 49t-59 144q0 78 41 126.5t115 61.5q-55 12 -89.5 52.5t-34.5 102.5q0 80 51.5 122.5t139.5 42.5t139.5 -42.5t51.5 -122.5q0 -62 -34.5 -102.5t-89.5 -52.5q74 -13 115 -61.5t41 -126.5q0 -95 -59 -144t-164 -49zM296 671q-80 0 -126.5 -38 t-46.5 -111q0 -71 47.5 -109.5t125.5 -38.5t125.5 38.5t47.5 109.5q0 73 -46.5 111t-126.5 38zM296 358q-98 0 -151.5 -45t-53.5 -134q0 -87 55.5 -132t149.5 -45t149.5 45t55.5 132q0 89 -53.5 134t-151.5 45z" />
<glyph horiz-adv-x="592" d="M295 252q-102 0 -162 56t-60 160q0 112 59 165.5t163 53.5q114 0 169 -88t55 -246q0 -192 -59.5 -279.5t-180.5 -87.5q-53 0 -94.5 15.5t-62.5 36.5q-4 4 -4 8q0 8 8 8q4 0 8 -4q54 -48 145 -48q223 0 223 334v46q-64 -130 -207 -130zM295 671q-204 0 -204 -203 q0 -100 55.5 -150t148.5 -50q135 0 203 135q0 118 -50 193t-153 75z" />
<glyph horiz-adv-x="732" d="M578 687q51 0 86 -33t35 -83q0 -59 -43.5 -92t-110.5 -33q-37 0 -68 6q-21 -32 -56 -47q59 0 98 -31.5t39 -83.5q0 -44 -21 -71.5t-52 -36.5t-68 -15.5t-68 -10.5t-52 -20.5t-21 -45.5q0 -21 13.5 -33.5t35.5 -12.5q18 0 28 10.5t12 22.5t12 22.5t28 10.5q44 0 44 -45 q0 -21 -11.5 -36t-30.5 -22.5t-38 -11t-39 -3.5q-64 0 -114.5 30t-79.5 76.5t-44 97t-15 97.5q0 79 43 137t123 58q64 0 104 -44q-54 -35 -85 -64t-51 -73.5t-20 -102.5q0 -27 2 -40q2 -16 12 -16q9 0 9 17q0 5 -0.5 18.5t-0.5 20.5q0 70 35 117.5t103 89.5q46 28 67 55 q-59 15 -152 81q-12 9 -41 34.5t-52 39.5t-44 14q-18 0 -29 -11.5t-11 -29.5t11.5 -28.5t28.5 -10.5q13 0 33 20q8 6 17 6q11 0 18.5 -7.5t7.5 -18.5q0 -22 -26.5 -37t-53.5 -15q-38 0 -65 27t-27 64q0 38 27 65.5t65 27.5q54 0 122 -58q41 58 113 58q58 0 100 -42t42 -100 q0 -22 -7 -43q22 -4 50 -4q39 0 68.5 17.5t29.5 55.5q0 26 -18.5 45t-46.5 19q-12 0 -24.5 -6t-19.5 -6q-11 0 -18.5 7.5t-7.5 18.5q0 14 11 22q21 16 59 16zM440 510q6 16 6 35q0 34 -23.5 62t-62.5 28q-48 0 -71 -42q72 -57 151 -83z" />
<glyph horiz-adv-x="600" d="M541 270q0 -142 -62.5 -212t-178.5 -70t-178.5 70t-62.5 212t62.5 212t178.5 70t178.5 -70t62.5 -212zM523 270q0 133 -58 199.5t-165 66.5t-165 -66.5t-58 -199.5t58 -199.5t165 -66.5t165 66.5t58 199.5z" />
<glyph horiz-adv-x="353" d="M248 537v-536q0 -9 -9 -9t-9 9v519l-160 -113q-4 -3 -7 -3q-9 0 -9 9q0 5 5 8l172 122q5 3 8 3q9 0 9 -9z" />
<glyph horiz-adv-x="504" d="M74 18h383q9 0 9 -9t-9 -9h-393q-9 0 -9 9q0 48 21 85t54.5 60t73.5 41t80.5 35.5t74 37.5t54.5 52t21 74q0 68 -46.5 105t-126.5 37q-72 0 -111.5 -28t-58.5 -84q-2 -7 -10 -7t-8 8q0 2 1 5q40 122 187 122q87 0 139 -42t52 -116q0 -51 -28 -89.5t-70 -59.5t-91 -43.5 t-91 -42.5t-70 -56.5t-28 -84.5z" />
<glyph horiz-adv-x="530" d="M421 520h-327q-9 0 -9 9t9 9h346q9 0 9 -9q0 -4 -3 -7l-230 -267h52q103 0 154.5 -53.5t51.5 -144.5q0 -98 -56 -152t-164 -54q-158 0 -211 107q-2 4 -2 7q0 7 8 7q6 0 10 -8q22 -47 73.5 -72t121.5 -25q100 0 150.5 49t50.5 141q0 81 -46 131t-141 50h-70q-9 0 -9 9 q0 5 5 10z" />
<glyph horiz-adv-x="529" d="M394 537v-491h82q9 0 9 -8q0 -9 -9 -9h-82v-163q0 -9 -9 -9t-9 9v163h-336q-9 0 -9 9q0 4 3 8l342 494q4 6 9 6q9 0 9 -9zM57 46h319v463z" />
<glyph horiz-adv-x="558" d="M462 522h-310l-58 -300q63 73 182 73q101 0 160 -57.5t59 -161.5q0 -111 -59.5 -168t-159.5 -57q-153 0 -217 125q-1 2 -1 5q0 8 8 8q5 0 8 -6q59 -116 202 -116q90 0 145 53t55 156q0 100 -55 151.5t-145 51.5q-59 0 -100 -17t-81 -60q-4 -4 -9 -4q-11 0 -11 11q0 3 1 8 l60 310q2 11 13 11h313q8 0 8 -8t-8 -8z" />
<glyph horiz-adv-x="566" d="M284 417q103 0 162.5 -54t59.5 -158q0 -112 -59 -165.5t-163 -53.5q-114 0 -169 88t-55 246q0 188 59.5 274.5t180.5 86.5q53 0 94.5 -15.5t62.5 -36.5q4 -4 4 -8q0 -8 -8 -8q-4 0 -8 4q-54 48 -145 48q-223 0 -223 -328v-50q64 130 207 130zM284 2q204 0 204 203 q0 99 -55 147.5t-149 48.5q-135 0 -203 -135q0 -111 50.5 -187.5t152.5 -76.5z" />
<glyph horiz-adv-x="483" d="M429 522h-387q-8 0 -8 8t8 8h397q8 0 8 -8q0 -44 -16.5 -86t-42.5 -78t-57.5 -73t-63.5 -80t-58 -91t-42.5 -114.5t-16.5 -141.5q0 -9 -9 -9t-9 9q0 76 16.5 143t42.5 116t57.5 93t63.5 81t58 71.5t42.5 73t16.5 78.5z" />
<glyph horiz-adv-x="550" d="M275 -14q-105 0 -164 48.5t-59 143.5q0 78 41 125.5t115 60.5q-55 12 -89.5 51.5t-34.5 101.5q0 80 51.5 121.5t139.5 41.5t139.5 -41.5t51.5 -121.5q0 -62 -34.5 -101.5t-89.5 -51.5q74 -13 115 -60.5t41 -125.5q0 -95 -59 -143.5t-164 -48.5zM275 664 q-80 0 -126.5 -37.5t-46.5 -109.5q0 -71 47.5 -108.5t125.5 -37.5t125.5 37.5t47.5 108.5q0 72 -46.5 109.5t-126.5 37.5zM275 355q-99 0 -152 -44.5t-53 -132.5q0 -87 55.5 -131.5t149.5 -44.5t149.5 44.5t55.5 131.5q0 88 -53 132.5t-152 44.5z" />
<glyph horiz-adv-x="566" d="M282 121q-103 0 -162.5 54t-59.5 158q0 112 59 165.5t163 53.5q114 0 169 -88t55 -246q0 -188 -59.5 -274.5t-180.5 -86.5q-53 0 -94.5 15.5t-62.5 36.5q-4 4 -4 8q0 8 8 8q4 0 8 -4q54 -48 145 -48q223 0 223 328v50q-64 -130 -207 -130zM282 536q-204 0 -204 -203 q0 -99 55 -147.5t149 -48.5q135 0 203 135q0 111 -50.5 187.5t-152.5 76.5z" />
<glyph horiz-adv-x="282" d="M232 329h-183q-8 0 -8 8t8 8h183q8 0 8 -8t-8 -8z" />
<glyph horiz-adv-x="303" d="M80 337q0 49 1.5 83t6 83t15 85.5t27 75t44.5 67t65 46.5q4 2 7 2q8 0 8 -7q0 -6 -7 -10q-42 -21 -71.5 -61t-44 -80.5t-22.5 -99.5t-9.5 -94.5t-1.5 -89.5q0 -44 1 -73.5t5 -78t14 -84.5t25.5 -75t42 -67.5t61.5 -46.5q7 -4 7 -10q0 -7 -8 -7q-3 0 -7 2q-37 18 -65 46.5 t-44.5 67t-27 75t-15 85.5t-6 83t-1.5 83z" />
<glyph horiz-adv-x="303" d="M223 337q0 -49 -1.5 -83t-6 -83t-15 -85.5t-27 -75t-44.5 -67t-65 -46.5q-4 -2 -7 -2q-8 0 -8 7q0 6 7 10q42 21 71.5 61t44 80.5t22.5 99.5t9.5 94.5t1.5 89.5q0 44 -1 73.5t-5 78t-14 84.5t-25.5 75t-42 67.5t-61.5 46.5q-7 4 -7 10q0 7 8 7q3 0 7 -2q37 -18 65 -46.5 t44.5 -67t27 -75t15 -85.5t6 -83t1.5 -83z" />
<glyph horiz-adv-x="233" d="M93 -89h75q8 0 8 -8t-8 -8h-84q-9 0 -9 9v866q0 9 9 9h84q8 0 8 -8t-8 -8h-75v-852z" />
<glyph horiz-adv-x="233" d="M65 -89h75v852h-75q-8 0 -8 8t8 8h84q9 0 9 -9v-866q0 -9 -9 -9h-84q-8 0 -8 8t8 8z" />
<glyph horiz-adv-x="296" d="M56 329h-13q-8 0 -8 8t8 8h13q52 0 75.5 27t23.5 86q0 40 -6.5 117.5t-6.5 119.5q0 40 23 62t63 22q8 0 8 -8t-8 -8q-31 0 -49.5 -17t-18.5 -51q0 -39 5.5 -119.5t5.5 -118.5q0 -55 -23.5 -87.5t-68.5 -32.5q45 0 68.5 -32.5t23.5 -87.5q0 -38 -5.5 -118.5t-5.5 -119.5 q0 -34 18.5 -51t49.5 -17q8 0 8 -8t-8 -8q-40 0 -63 22t-23 62q0 42 6.5 119.5t6.5 117.5q0 59 -23.5 86t-75.5 27z" />
<glyph horiz-adv-x="296" d="M253 329h-13q-52 0 -75.5 -27t-23.5 -86q0 -40 6.5 -117.5t6.5 -119.5q0 -40 -23 -62t-63 -22q-8 0 -8 8t8 8q31 0 49.5 17t18.5 51q0 39 -5.5 119.5t-5.5 118.5q0 55 23.5 87.5t68.5 32.5q-45 0 -68.5 32.5t-23.5 87.5q0 38 5.5 118.5t5.5 119.5q0 34 -18.5 51t-49.5 17 q-8 0 -8 8t8 8q40 0 63 -22t23 -62q0 -42 -6.5 -119.5t-6.5 -117.5q0 -59 23.5 -86t75.5 -27h13q8 0 8 -8t-8 -8z" />
<glyph horiz-adv-x="464" d="M63 337q0 4 6 10l177 205q3 3 6 3q8 0 8 -8q0 -4 -4 -8l-175 -202l175 -202q4 -4 4 -8q0 -8 -8 -8q-3 0 -6 3l-177 205q-6 6 -6 10zM203 337q0 4 6 10l177 205q3 3 6 3q8 0 8 -8q0 -4 -4 -8l-175 -202l175 -202q4 -4 4 -8q0 -8 -8 -8q-3 0 -6 3l-177 205q-6 6 -6 10z" />
<glyph horiz-adv-x="464" d="M401 337q0 -4 -6 -10l-177 -205q-3 -3 -6 -3q-8 0 -8 8q0 4 4 8l175 202l-175 202q-4 4 -4 8q0 8 8 8q3 0 6 -3l177 -205q6 -6 6 -10zM261 337q0 -4 -6 -10l-177 -205q-3 -3 -6 -3q-8 0 -8 8q0 4 4 8l175 202l-175 202q-4 4 -4 8q0 8 8 8q3 0 6 -3l177 -205q6 -6 6 -10z " />
<glyph horiz-adv-x="324" d="M63 337q0 4 6 10l177 205q3 3 6 3q8 0 8 -8q0 -4 -4 -8l-175 -202l175 -202q4 -4 4 -8q0 -8 -8 -8q-3 0 -6 3l-177 205q-6 6 -6 10z" />
<glyph horiz-adv-x="323" d="M260 337q0 -4 -6 -10l-177 -205q-3 -3 -6 -3q-8 0 -8 8q0 4 4 8l175 202l-175 202q-4 4 -4 8q0 8 8 8q3 0 6 -3l177 -205q6 -6 6 -10z" />
<glyph horiz-adv-x="584" d="M468 329h-352q-8 0 -8 8t8 8h352q8 0 8 -8t-8 -8z" />
<glyph horiz-adv-x="918" d="M802 329h-686q-8 0 -8 8t8 8h686q8 0 8 -8t-8 -8z" />
<glyph horiz-adv-x="164" d="M81 317q-17 0 -17 19q0 20 17 20t17 -20q0 -19 -17 -19z" />
<glyph horiz-adv-x="461" d="M397 160q0 9 9 9t9 -9q0 -82 -44.5 -128t-135.5 -46q-89 0 -138.5 46.5t-49.5 125.5q0 55 23 96.5t56 66.5t66 46.5t56 49.5t23 62q0 38 -25 63q-4 4 -4 9q0 9 9 9q4 0 9 -5q29 -29 29 -76q0 -32 -16.5 -58.5t-41.5 -44t-54 -39.5t-54 -43.5t-41.5 -56.5t-16.5 -79 q0 -71 44 -113.5t126 -42.5q162 0 162 158zM259 681q17 0 17 -19q0 -20 -17 -20t-17 20q0 19 17 19z" />
<glyph horiz-adv-x="141" d="M70 681q17 0 17 -19q0 -20 -17 -20t-17 20q0 19 17 19zM70 549q6 0 6 -7l5 -538q0 -12 -11 -12t-11 12l5 538q0 7 6 7z" />
<glyph horiz-adv-x="418" d="M209 207q-130 0 -130 130q0 136 130 136t130 -136q0 -130 -130 -130z" />
<glyph horiz-adv-x="465" d="M229 3q81 0 126.5 37t45.5 105q0 44 -25 74.5t-63 45.5t-82 31t-82 31t-63 46t-25 75q0 57 39.5 94.5t123.5 41.5v79q0 8 8 8t8 -8v-79q112 -4 164 -85q3 -5 3 -8q0 -7 -8 -7q-4 0 -8 5q-52 79 -159 79q-80 0 -116.5 -34.5t-36.5 -85.5q0 -47 35 -76.5t85 -46t100 -34.5 t85 -54t35 -92q0 -73 -45.5 -113.5t-133.5 -44.5v-93q0 -8 -8 -8t-8 8v92q-63 2 -113.5 32.5t-74.5 75.5q-2 4 -2 7q0 7 8 7q6 0 8 -5q24 -43 71.5 -71.5t107.5 -28.5z" />
<glyph horiz-adv-x="502" d="M289 -13v-93q0 -8 -8 -8t-8 8v93q-104 3 -162.5 72.5t-58.5 210.5q0 136 58.5 205.5t162.5 76.5v78q0 8 8 8t8 -8v-78q50 -1 92 -19t56.5 -31t22.5 -24q3 -5 3 -8q0 -7 -7 -7q-5 0 -9 5q-58 68 -161 68t-159.5 -68.5t-56.5 -197.5q0 -136 56 -201.5t160 -65.5 q103 0 164 74q4 5 8 5q8 0 8 -7q0 -3 -3 -8q-58 -76 -174 -80z" />
<glyph horiz-adv-x="501" d="M288 279h-152q32 -66 32 -120q0 -31 -15.5 -69t-38.5 -59q33 14 68 14q42 0 97 -22t81 -22q36 0 55.5 11t38.5 39q4 5 8 5q8 0 8 -7q0 -3 -3 -8q-21 -29 -44 -43t-63 -14q-33 0 -86.5 22.5t-90.5 22.5q-57 0 -104 -34q-8 -6 -11 -6q-8 0 -8 8q0 4 6 8q36 24 60 67t24 86 q0 57 -33 121h-58q-8 0 -8 8t8 8h49q-44 76 -44 132q0 65 48.5 112t133.5 47q76 0 123.5 -31t64.5 -84q2 -6 2 -8q0 -8 -8 -8q-6 0 -8 6q-38 109 -174 109q-76 0 -120 -42t-44 -101q0 -24 8 -49.5t15 -40t23 -42.5h160q8 0 8 -8t-8 -8z" />
<glyph horiz-adv-x="482" d="M241 323l200 250q3 5 8 5q9 0 9 -9q0 -3 -2 -6l-198 -245h139q8 0 8 -8t-8 -8h-147v-62h147q8 0 8 -8t-8 -8h-147v-223q0 -9 -9 -9t-9 9v223h-147q-8 0 -8 8t8 8h147v62h-147q-8 0 -8 8t8 8h138l-197 245q-2 3 -2 6q0 9 9 9q5 0 8 -5z" />
<glyph horiz-adv-x="410" d="M170 382l-80 -415q-18 -92 -48 -130t-95 -38q-33 0 -61 13q-7 3 -7 8q0 8 7 8l12 -4q29 -9 56 -9q44 -1 72.5 31.5t44.5 116.5l80 419h-77q-8 0 -8 8t8 8h80l23 114q18 92 48 130t95 38q33 0 61 -13q7 -3 7 -8q0 -8 -7 -8l-12 4q-29 9 -56 9q-47 0 -74 -32.5t-43 -115.5 l-23 -118h109q8 0 8 -8t-8 -8h-112z" />
<glyph horiz-adv-x="550" d="M257 224h-176q13 -111 71 -166t153 -55q112 0 172 77q5 6 9 6q8 0 8 -7q0 -3 -3 -8q-65 -84 -186 -84q-103 0 -166 59.5t-76 177.5h-32q-8 0 -8 8t8 8h31q-2 19 -2 49l2 45h-31q-8 0 -8 8t8 8h32q13 115 76 175t166 60q54 0 98.5 -18t60.5 -33t24 -26q3 -5 3 -8 q0 -7 -7 -7q-5 0 -9 5q-59 71 -170 71q-96 0 -153.5 -56t-70.5 -163h176q8 0 8 -8t-8 -8h-177q-2 -23 -2 -45l2 -49h177q8 0 8 -8t-8 -8z" />
<glyph horiz-adv-x="555" d="M509 211q0 -104 -77 -168q16 -39 16 -76q0 -62 -33.5 -104.5t-93.5 -42.5q-35 0 -60 16q-5 3 -5 8q0 8 8 8q3 0 9 -3q21 -13 47 -13q50 0 80 37.5t30 93.5q0 34 -14 64q-71 -45 -160 -45q-92 0 -151.5 48.5t-59.5 136.5q0 61 31.5 105.5t99.5 85.5q-56 103 -56 186 q0 60 35 99.5t95 39.5q54 0 86.5 -33t32.5 -90q0 -62 -42.5 -109t-127.5 -99q19 -33 52 -73t62.5 -71t61 -73t49.5 -80q34 27 51 70.5t17 81.5q0 48 -25.5 87.5t-67.5 63.5q-6 3 -6 8q0 7 7 7q3 0 8 -3q47 -27 74 -69.5t27 -93.5zM138 548q0 -82 53 -177q79 47 119.5 92.5 t40.5 100.5q0 49 -28.5 78t-72.5 29q-51 0 -81.5 -34.5t-30.5 -88.5zM256 2q89 0 154 45q-28 62 -110.5 154t-115.5 146q-121 -71 -121 -176q0 -80 54 -124.5t139 -44.5z" />
<glyph horiz-adv-x="732" d="M591 681q39 0 66 -27t27 -65q0 -61 -58 -92t-127 -31l-19 1q2 -19 2 -45q0 -108 -68 -198t-146 -123q-6 -3 -6 -11q0 -10 11 -10q3 0 9 2q76 32 134 97t85 151q43 0 72.5 -30t29.5 -85q0 -93 -80.5 -158t-213.5 -65q-112 0 -186.5 55.5t-74.5 155.5q0 71 59 71 q43 0 43 -45q0 -19 -18 -36.5t-18 -30.5q0 -18 15 -32.5t34 -14.5q21 0 36.5 16t15.5 38q0 18 -18 73.5t-18 89.5q0 50 32 80t79 30q85 0 129 -78q8 22 8 68l-2 41q-68 13 -136.5 56t-92.5 102q-31 -2 -51.5 -20t-20.5 -45q0 -23 14.5 -35.5t38.5 -12.5q12 0 20 -8t8 -20 q0 -11 -8 -19.5t-20 -8.5q-44 0 -76.5 28t-32.5 76q0 57 45 89t108 32q77 0 148 -46.5t101 -120.5q14 -2 29 -2q57 0 93 21.5t36 49.5q0 15 -10.5 25.5t-26.5 10.5q-15 0 -25.5 -10.5t-10.5 -25.5q0 -11 -8 -19t-19 -8t-19 8t-8 19q0 38 25.5 65t64.5 27zM252 634 q29 -42 63.5 -63.5t89.5 -39.5q-23 38 -64 67.5t-89 35.5z" />
<glyph horiz-adv-x="407" d="M58 -71l274 825q2 7 9 7q9 0 9 -9q0 -2 -2 -8l-274 -825q-2 -7 -9 -7q-9 0 -9 9q0 2 2 8z" />
<glyph horiz-adv-x="408" d="M75 754l274 -825q2 -6 2 -8q0 -9 -9 -9q-7 0 -9 7l-274 825q-2 6 -2 8q0 9 9 9q7 0 9 -7z" />
<glyph horiz-adv-x="218" d="M118 812v-950q0 -9 -9 -9t-9 9v950q0 9 9 9t9 -9z" />
<glyph horiz-adv-x="288" d="M144 687q116 0 116 -155q0 -156 -116 -156t-116 156q0 81 29 118t87 37zM144 391q51 0 75.5 34t24.5 107q0 140 -100 140q-52 0 -76 -34t-24 -106q0 -73 24 -107t76 -34z" />
<glyph horiz-adv-x="157" d="M107 676v-289q0 -8 -8 -8t-8 8v275l-63 -42q-5 -3 -7 -3q-7 0 -7 7q0 4 4 7l74 50q6 3 7 3q8 0 8 -8z" />
<glyph horiz-adv-x="259" d="M217 382h-181q-7 0 -7 7q0 32 18.5 56.5t45 40t53 30.5t45 37t18.5 50q0 30 -20 50t-61 20q-57 0 -73 -48q-2 -6 -8 -6q-7 0 -7 7q0 2 1 5q19 56 87 56q48 0 72.5 -23t24.5 -61q0 -30 -18.5 -54t-45 -40t-53 -31t-45 -36t-18.5 -46h172q7 0 7 -7t-7 -7z" />
<glyph horiz-adv-x="254" d="M191 667h-145q-7 0 -7 7t7 7h159q7 0 7 -7q0 -4 -3 -7l-92 -106h11q51 0 74.5 -26.5t23.5 -66.5q0 -92 -108 -92q-64 0 -93 48q-2 4 -2 7q0 7 7 7q4 0 7 -5q27 -43 81 -43q92 0 92 78q0 79 -84 79h-23q-7 0 -7 7q0 3 3 6z" />
<glyph horiz-adv-x="254" d="M44 469h132v184zM192 469h31q7 0 7 -7t-7 -7h-31v-68q0 -8 -8 -8t-8 8v68h-146q-7 0 -7 7q0 2 4 8l149 208q4 6 8 6q8 0 8 -8v-207z" />
<glyph horiz-adv-x="261" d="M215 666h-140l-20 -116q27 23 74 23t75 -23.5t28 -73.5q0 -48 -27 -73.5t-76 -25.5q-71 0 -100 57q-2 4 -2 7q0 7 6 7q5 0 8 -5q27 -52 88 -52q42 0 64.5 22t22.5 63q0 83 -87 83q-43 0 -76 -25q-5 -3 -7 -3q-7 0 -7 7q0 3 1 7l22 128q1 7 8 7h145q7 0 7 -7t-7 -7z" />
<glyph horiz-adv-x="266" d="M136 570q46 0 73.5 -25t27.5 -72q0 -49 -27 -73t-74 -24q-107 0 -107 148q0 81 30.5 122t82.5 41q50 0 74 -24q3 -3 3 -6q0 -8 -8 -8q-3 0 -9 4q-27 18 -60 18q-97 0 -97 -154q7 18 32 35.5t59 17.5zM136 391q39 0 62 21.5t23 60.5q0 40 -23 61t-62 21q-62 0 -88 -60 q0 -47 24 -75.5t64 -28.5z" />
<glyph horiz-adv-x="224" d="M75 387q0 -8 -8 -8t-8 8q0 46 13.5 81.5t32.5 58t38.5 42t33 44t13.5 53.5h-166q-7 0 -7 7t7 7h175q7 0 7 -7q0 -35 -13.5 -62.5t-33 -47t-38.5 -41t-32.5 -56t-13.5 -79.5z" />
<glyph horiz-adv-x="246" d="M123 376q-47 0 -75 22.5t-28 64.5q0 33 18.5 53t47.5 27q-22 6 -38 23.5t-16 45.5q0 36 25 55.5t66 19.5t66 -19.5t25 -55.5q0 -28 -16 -45.5t-38 -23.5q29 -7 47.5 -27t18.5 -53q0 -42 -28 -64.5t-75 -22.5zM123 673q-75 0 -75 -61q0 -29 20.5 -45.5t54.5 -16.5 t54.5 16.5t20.5 45.5q0 61 -75 61zM123 536q-87 0 -87 -73t87 -73t87 73t-87 73z" />
<glyph horiz-adv-x="266" d="M130 493q-46 0 -73.5 25t-27.5 72q0 49 27 73t74 24q107 0 107 -148q0 -81 -30.5 -122t-82.5 -41q-50 0 -74 24q-3 3 -3 6q0 8 8 8q3 0 9 -4q27 -18 60 -18q97 0 97 154q-7 -18 -32 -35.5t-59 -17.5zM130 672q-39 0 -62 -21.5t-23 -60.5q0 -40 23 -61t62 -21q62 0 88 60 q0 47 -24 75.5t-64 28.5z" />
<glyph horiz-adv-x="288" d="M144 298q116 0 116 -155q0 -156 -116 -156t-116 156q0 81 29 118t87 37zM144 2q51 0 75.5 34t24.5 107q0 140 -100 140q-52 0 -76 -34t-24 -106q0 -73 24 -107t76 -34z" />
<glyph horiz-adv-x="157" d="M107 289v-289q0 -8 -8 -8t-8 8v275l-63 -42q-5 -3 -7 -3q-7 0 -7 7q0 4 4 7l74 50q6 3 7 3q8 0 8 -8z" />
<glyph horiz-adv-x="259" d="M217 0h-181q-7 0 -7 7q0 32 18.5 56.5t45 40t53 30.5t45 37t18.5 50q0 30 -20 50t-61 20q-57 0 -73 -48q-2 -6 -8 -6q-7 0 -7 7q0 2 1 5q19 56 87 56q48 0 72.5 -23t24.5 -61q0 -30 -18.5 -54t-45 -40t-53 -31t-45 -36t-18.5 -46h172q7 0 7 -7t-7 -7z" />
<glyph horiz-adv-x="254" d="M191 278h-145q-7 0 -7 7t7 7h159q7 0 7 -7q0 -4 -3 -7l-92 -106h11q51 0 74.5 -26.5t23.5 -66.5q0 -92 -108 -92q-64 0 -93 48q-2 4 -2 7q0 7 7 7q4 0 7 -5q27 -43 81 -43q92 0 92 78q0 79 -84 79h-23q-7 0 -7 7q0 3 3 6z" />
<glyph horiz-adv-x="254" d="M44 82h132v184zM192 82h31q7 0 7 -7t-7 -7h-31v-68q0 -8 -8 -8t-8 8v68h-146q-7 0 -7 7q0 2 4 8l149 208q4 6 8 6q8 0 8 -8v-207z" />
<glyph horiz-adv-x="261" d="M215 275h-140l-20 -116q27 23 74 23t75 -23.5t28 -73.5q0 -48 -27 -73.5t-76 -25.5q-71 0 -100 57q-2 4 -2 7q0 7 6 7q5 0 8 -5q27 -52 88 -52q42 0 64.5 22t22.5 63q0 83 -87 83q-43 0 -76 -25q-5 -3 -7 -3q-7 0 -7 7q0 3 1 7l22 128q1 7 8 7h145q7 0 7 -7t-7 -7z" />
<glyph horiz-adv-x="266" d="M136 180q46 0 73.5 -25t27.5 -72q0 -49 -27 -73t-74 -24q-107 0 -107 148q0 81 30.5 122t82.5 41q50 0 74 -24q3 -3 3 -6q0 -8 -8 -8q-3 0 -9 4q-27 18 -60 18q-97 0 -97 -154q7 18 32 35.5t59 17.5zM136 1q39 0 62 21.5t23 60.5q0 40 -23 61t-62 21q-62 0 -88 -60 q0 -47 24 -75.5t64 -28.5z" />
<glyph horiz-adv-x="224" d="M75 0q0 -8 -8 -8t-8 8q0 46 13.5 81.5t32.5 58t38.5 42t33 44t13.5 53.5h-166q-7 0 -7 7t7 7h175q7 0 7 -7q0 -35 -13.5 -62.5t-33 -47t-38.5 -41t-32.5 -56t-13.5 -79.5z" />
<glyph horiz-adv-x="246" d="M123 -14q-47 0 -75 22.5t-28 64.5q0 33 18.5 53t47.5 27q-22 6 -38 23.5t-16 45.5q0 36 25 55.5t66 19.5t66 -19.5t25 -55.5q0 -28 -16 -45.5t-38 -23.5q29 -7 47.5 -27t18.5 -53q0 -42 -28 -64.5t-75 -22.5zM123 283q-75 0 -75 -61q0 -29 20.5 -45.5t54.5 -16.5 t54.5 16.5t20.5 45.5q0 61 -75 61zM123 146q-87 0 -87 -73t87 -73t87 73t-87 73z" />
<glyph horiz-adv-x="266" d="M130 103q-46 0 -73.5 25t-27.5 72q0 49 27 73t74 24q107 0 107 -148q0 -81 -30.5 -122t-82.5 -41q-50 0 -74 24q-3 3 -3 6q0 8 8 8q3 0 9 -4q27 -18 60 -18q97 0 97 154q-7 -18 -32 -35.5t-59 -17.5zM130 282q-39 0 -62 -21.5t-23 -60.5q0 -40 23 -61t62 -21q62 0 88 60 q0 47 -24 75.5t-64 28.5z" />
<glyph horiz-adv-x="511" d="M243 -13q-199 0 -199 240q0 241 199 241q143 0 181 -114v99q0 9 8 9q9 0 9 -9v-452q0 -9 -9 -9q-8 0 -8 9v99q-38 -113 -181 -113zM243 3q97 0 139.5 53t42.5 171q0 119 -42.5 172t-139.5 53q-181 0 -181 -225q0 -224 181 -224z" />
<glyph horiz-adv-x="510" d="M243 -13q-199 0 -199 240q0 241 199 241q143 0 181 -114v99q0 9 8 9q9 0 9 -9v-452q0 -9 -9 -9q-8 0 -8 9v99q-38 -113 -181 -113zM243 3q97 0 139.5 53t42.5 171q0 119 -42.5 172t-139.5 53q-181 0 -181 -225q0 -224 181 -224zM328 655q9 -7 0 -16l-106 -114 q-5 -5 -10 -1q-5 5 0 10l101 119q7 9 15 2z" />
<glyph horiz-adv-x="511" d="M243 -13q-199 0 -199 240q0 241 199 241q143 0 181 -114v99q0 9 8 9q9 0 9 -9v-452q0 -9 -9 -9q-8 0 -8 9v99q-38 -113 -181 -113zM243 3q97 0 139.5 53t42.5 171q0 119 -42.5 172t-139.5 53q-181 0 -181 -225q0 -224 181 -224zM253 537q-101 0 -101 87q0 8 8 8t8 -8 q0 -40 21.5 -56t63.5 -16t63.5 16t21.5 56q0 8 8 8t8 -8q0 -87 -101 -87z" />
<glyph horiz-adv-x="511" d="M243 -13q-199 0 -199 240q0 241 199 241q143 0 181 -114v99q0 9 8 9q9 0 9 -9v-452q0 -9 -9 -9q-8 0 -8 9v99q-38 -113 -181 -113zM243 3q97 0 139.5 53t42.5 171q0 119 -42.5 172t-139.5 53q-181 0 -181 -225q0 -224 181 -224zM358 553l-100 80l-100 -80q-3 -3 -7 -3 q-8 0 -8 8q0 4 5 8l101 80q5 4 9 4t9 -4l101 -80q5 -4 5 -8q0 -8 -8 -8q-4 0 -7 3z" />
<glyph horiz-adv-x="511" d="M243 -13q-199 0 -199 240q0 241 199 241q143 0 181 -114v99q0 9 8 9q9 0 9 -9v-452q0 -9 -9 -9q-8 0 -8 9v99q-38 -113 -181 -113zM243 3q97 0 139.5 53t42.5 171q0 119 -42.5 172t-139.5 53q-181 0 -181 -225q0 -224 181 -224zM192 551q-15 0 -15 16t15 16t15 -16 t-15 -16zM314 551q-15 0 -15 16t15 16t15 -16t-15 -16z" />
<glyph horiz-adv-x="511" d="M243 -13q-199 0 -199 240q0 241 199 241q143 0 181 -114v99q0 9 8 9q9 0 9 -9v-452q0 -9 -9 -9q-8 0 -8 9v99q-38 -113 -181 -113zM243 3q97 0 139.5 53t42.5 171q0 119 -42.5 172t-139.5 53q-181 0 -181 -225q0 -224 181 -224zM196 655q8 7 15 -2l101 -119q5 -5 0 -10 q-5 -4 -10 1l-106 114q-9 9 0 16z" />
<glyph horiz-adv-x="511" d="M243 -13q-199 0 -199 240q0 241 199 241q143 0 181 -114v99q0 9 8 9q9 0 9 -9v-452q0 -9 -9 -9q-8 0 -8 9v99q-38 -113 -181 -113zM243 3q97 0 139.5 53t42.5 171q0 119 -42.5 172t-139.5 53q-181 0 -181 -225q0 -224 181 -224zM361 559h-210q-8 0 -8 8t8 8h210q8 0 8 -8 t-8 -8z" />
<glyph horiz-adv-x="511" d="M486 -150q8 0 8 -8q0 -5 -6 -8q-26 -11 -55 -11q-42 0 -61.5 20t-19.5 51q0 67 72 102v104q-38 -113 -181 -113q-199 0 -199 240q0 241 199 241q143 0 181 -114v99q0 9 8 9q9 0 9 -9v-452q0 -5 -5 -8q-66 -32 -66 -94q0 -60 63 -60q23 0 46 9q6 2 7 2zM243 3 q97 0 139.5 53t42.5 171q0 119 -42.5 172t-139.5 53q-181 0 -181 -225q0 -224 181 -224z" />
<glyph horiz-adv-x="511" d="M243 -13q-199 0 -199 240q0 241 199 241q143 0 181 -114v99q0 9 8 9q9 0 9 -9v-452q0 -9 -9 -9q-8 0 -8 9v99q-38 -113 -181 -113zM243 3q97 0 139.5 53t42.5 171q0 119 -42.5 172t-139.5 53q-181 0 -181 -225q0 -224 181 -224zM254 520q84 0 84 80t-84 80t-84 -80 t84 -80zM254 505q-100 0 -100 95t100 95t100 -95t-100 -95z" />
<glyph horiz-adv-x="511" d="M243 -13q-199 0 -199 240q0 241 199 241q143 0 181 -114v99q0 9 8 9q9 0 9 -9v-452q0 -9 -9 -9q-8 0 -8 9v99q-38 -113 -181 -113zM243 3q97 0 139.5 53t42.5 171q0 119 -42.5 172t-139.5 53q-181 0 -181 -225q0 -224 181 -224zM310 835q9 -7 0 -16l-106 -114 q-5 -5 -10 -1q-5 5 0 10l101 119q7 9 15 2zM254 507q84 0 84 80t-84 80t-84 -80t84 -80zM254 492q-100 0 -100 95t100 95t100 -95t-100 -95z" />
<glyph horiz-adv-x="511" d="M243 -13q-199 0 -199 240q0 241 199 241q143 0 181 -114v99q0 9 8 9q9 0 9 -9v-452q0 -9 -9 -9q-8 0 -8 9v99q-38 -113 -181 -113zM243 3q97 0 139.5 53t42.5 171q0 119 -42.5 172t-139.5 53q-181 0 -181 -225q0 -224 181 -224zM320 560q35 0 52 34q4 8 10 8q8 0 8 -8 q0 -3 -2 -7q-20 -43 -68 -43q-28 0 -66.5 21t-61.5 21q-35 0 -52 -34q-4 -8 -10 -8q-8 0 -8 8q0 3 2 7q20 43 68 43q28 0 66 -21t62 -21z" />
<glyph horiz-adv-x="695" d="M550 454h90q8 0 8 -8t-8 -8h-90v-328q0 -51 19 -76.5t63 -25.5q8 0 8 -8t-8 -8q-100 0 -100 118v328h-62q-8 0 -8 8t8 8h62v74q0 142 -125 142q-56 0 -83.5 -30t-27.5 -70q0 -32 16 -63.5t28 -44.5t45 -48q4 -4 4 -7q0 -8 -8 -8q-4 0 -7 3q-50 50 -130 50 q-181 0 -181 -225q0 -224 181 -224q74 0 137 50q5 3 7 3q8 0 8 -8q0 -4 -5 -8q-67 -53 -147 -53q-199 0 -199 240q0 241 199 241q61 0 102 -26q-65 63 -65 128q0 48 30.5 82.5t97.5 34.5q68 0 104.5 -41t36.5 -118v-74z" />
<glyph horiz-adv-x="802" d="M389 523q54 0 90 -28t36 -88v-172q0 -35 23 -51t58 -16q43 0 73 18t44 48.5t20 60.5t6 64q0 161 -91 242.5t-248 81.5q-165 0 -251 -88t-86 -259q0 -175 88.5 -260.5t248.5 -85.5q152 0 239 65q5 4 10 4q8 0 8 -8q0 -6 -8 -11q-52 -37 -108.5 -51.5t-140.5 -14.5 q-169 0 -262 90.5t-93 271.5q0 180 92 271.5t263 91.5q163 0 259.5 -86.5t96.5 -253.5q0 -36 -7 -69t-23.5 -66t-49.5 -52.5t-80 -19.5q-35 0 -61.5 16t-32.5 45q-34 -61 -125 -61q-67 0 -101 29.5t-34 75.5q0 105 149 105h107v52q0 44 -29.5 68.5t-79.5 24.5q-64 0 -97 -45 q-4 -5 -9 -5q-7 0 -7 7q0 3 3 8q34 51 110 51zM498 345h-107q-131 0 -131 -88q0 -39 28 -64t89 -25q62 0 91.5 25.5t29.5 65.5v86z" />
<glyph horiz-adv-x="495" d="M408 -12v99l-5.5 -11t-18 -24t-32.5 -30t-49 -24t-67 -11q-96 0 -143 58.5t-47 181.5t47 182t143 59q87 0 138.5 -49.5t51.5 -144.5v-286q0 -96 -50.5 -142.5t-138.5 -46.5q-116 0 -160 64q-2 4 -2 6q0 8 8 8q5 0 9 -6q41 -56 145 -56q81 0 126 42.5t45 130.5zM408 120 v154q0 86 -46.5 132t-125.5 46q-172 0 -172 -225q0 -223 172 -223q37 0 68 12t49.5 29t31.5 34t18 29z" />
<glyph horiz-adv-x="495" d="M408 -12v99l-5.5 -11t-18 -24t-32.5 -30t-49 -24t-67 -11q-96 0 -143 58.5t-47 181.5t47 182t143 59q87 0 138.5 -49.5t51.5 -144.5v-286q0 -96 -50.5 -142.5t-138.5 -46.5q-116 0 -160 64q-2 4 -2 6q0 8 8 8q5 0 9 -6q41 -56 145 -56q81 0 126 42.5t45 130.5zM408 120 v154q0 86 -46.5 132t-125.5 46q-172 0 -172 -225q0 -223 172 -223q37 0 68 12t49.5 29t31.5 34t18 29zM336 553l-100 80l-100 -80q-3 -3 -7 -3q-8 0 -8 8q0 4 5 8l101 80q5 4 9 4t9 -4l101 -80q5 -4 5 -8q0 -8 -8 -8q-4 0 -7 3z" />
<glyph horiz-adv-x="495" d="M408 -12v99l-5.5 -11t-18 -24t-32.5 -30t-49 -24t-67 -11q-96 0 -143 58.5t-47 181.5t47 182t143 59q87 0 138.5 -49.5t51.5 -144.5v-286q0 -96 -50.5 -142.5t-138.5 -46.5q-116 0 -160 64q-2 4 -2 6q0 8 8 8q5 0 9 -6q41 -56 145 -56q81 0 126 42.5t45 130.5zM408 120 v154q0 86 -46.5 132t-125.5 46q-172 0 -172 -225q0 -223 172 -223q37 0 68 12t49.5 29t31.5 34t18 29zM236 537q-101 0 -101 87q0 8 8 8t8 -8q0 -40 21.5 -56t63.5 -16t63.5 16t21.5 56q0 8 8 8t8 -8q0 -87 -101 -87z" />
<glyph horiz-adv-x="495" d="M408 -12v99l-5.5 -11t-18 -24t-32.5 -30t-49 -24t-67 -11q-96 0 -143 58.5t-47 181.5t47 182t143 59q87 0 138.5 -49.5t51.5 -144.5v-286q0 -96 -50.5 -142.5t-138.5 -46.5q-116 0 -160 64q-2 4 -2 6q0 8 8 8q5 0 9 -6q41 -56 145 -56q81 0 126 42.5t45 130.5zM408 120 v154q0 86 -46.5 132t-125.5 46q-172 0 -172 -225q0 -223 172 -223q37 0 68 12t49.5 29t31.5 34t18 29zM237 553q-18 0 -18 18t18 18t18 -18t-18 -18z" />
<glyph horiz-adv-x="495" d="M408 -12v99l-5.5 -11t-18 -24t-32.5 -30t-49 -24t-67 -11q-96 0 -143 58.5t-47 181.5t47 182t143 59q87 0 138.5 -49.5t51.5 -144.5v-286q0 -96 -50.5 -142.5t-138.5 -46.5q-116 0 -160 64q-2 4 -2 6q0 8 8 8q5 0 9 -6q41 -56 145 -56q81 0 126 42.5t45 130.5zM408 120 v154q0 86 -46.5 132t-125.5 46q-172 0 -172 -225q0 -223 172 -223q37 0 68 12t49.5 29t31.5 34t18 29zM226 561q0 69 27 109q3 4 7 4q6 0 6 -6q0 -2 -2 -6q-14 -21 -14 -52q0 -15 5 -29.5t5 -22.5q0 -20 -17 -20t-17 23z" />
</font>
</defs>
</svg>
